<svg xmlns="http://www.w3.org/2000/svg" viewBox="0 0 128 152">
  <defs>
    <radialGradient id="moon">
      <stop stop-color="#4288a1"/>
      <stop offset=".52" stop-color="#234c68"/>
      <stop offset="1" stop-color="#081728"/>
    </radialGradient>
    <linearGradient id="gold" x1="0" y1="0" x2="1" y2="1">
      <stop stop-color="#fff0b8"/>
      <stop offset=".48" stop-color="#d6a44d"/>
      <stop offset="1" stop-color="#775022"/>
    </linearGradient>
  </defs>
  <rect width="128" height="152" rx="12" fill="#07121f"/>
  <rect x="5" y="5" width="118" height="142" rx="9" fill="url(#moon)" stroke="url(#gold)" stroke-width="4"/>
  <g transform="translate(64 75)" fill="none" stroke="#d8f4ee" stroke-opacity=".18">
    <circle r="48"/>
    <circle r="37"/>
    <path d="M-53 0H53M0-53V53M-38-38l76 76M38-38l-76 76"/>
  </g>
  <g transform="translate(15 25)" fill="none" stroke="url(#gold)" stroke-linecap="round" stroke-linejoin="round" stroke-width="3.5">
    <path d="M8 65c8 17 31 20 51 10 18-9 22-29 11-40-9-9-25-8-33 2-7 9-2 21 10 21 10 0 16-9 12-17"/>
    <path d="m59 27 4-18 11 16 18-4-8 16 12 11-19 2M12 65 0 58l9-10-8-12 17 3M27 77l-5 17 16-9 12 12 2-19M70 62l18 8-4-18"/>
    <circle cx="69" cy="34" r="2.5" fill="#ffe8a0" stroke="none"/>
  </g>
  <path d="M38 116h52" stroke="#f4d586" stroke-opacity=".5"/>
  <text x="64" y="130" fill="#ffecb0" font-family="Georgia,serif" font-size="11" font-weight="700" text-anchor="middle" letter-spacing="3">DRAGON</text>
</svg>
