<svg xmlns="http://www.w3.org/2000/svg" viewBox="0 0 128 152">
  <defs>
    <linearGradient id="bg" x1="0" y1="0" x2="1" y2="1">
      <stop stop-color="#447f9c"/>
      <stop offset=".58" stop-color="#28566f"/>
      <stop offset="1" stop-color="#142f46"/>
    </linearGradient>
    <radialGradient id="glow" cx="38%" cy="30%" r="75%">
      <stop stop-color="#bbecf0" stop-opacity=".25"/>
      <stop offset="1" stop-color="#081b2b" stop-opacity="0"/>
    </radialGradient>
  </defs>
  <rect width="128" height="152" rx="12" fill="url(#bg)"/>
  <rect x="5" y="5" width="118" height="142" rx="9" fill="url(#glow)" stroke="#e8d7a2" stroke-width="3"/>
  <rect x="11" y="11" width="106" height="130" rx="7" fill="none" stroke="#dff8f4" stroke-opacity=".42"/>
  <g fill="none" stroke="#dff8f4" stroke-opacity=".18" stroke-width="2.5">
    <path d="M4 30c18-13 36-13 54 0s36 13 66 0M4 48c18-13 36-13 54 0s36 13 66 0M4 125c18-13 36-13 54 0s36 13 66 0"/>
    <path d="m22 13 7 8 8-8 8 8 8-8M75 139l7-8 8 8 8-8 8 8"/>
  </g>
  <g transform="translate(15 24)" fill="none" stroke="#e6f7ee" stroke-opacity=".46" stroke-linecap="round" stroke-linejoin="round" stroke-width="3">
    <path d="M8 65c8 17 31 20 51 10 18-9 22-29 11-40-9-9-25-8-33 2-7 9-2 21 10 21 10 0 16-9 12-17"/>
    <path d="m59 27 4-18 11 16 18-4-8 16 12 11-19 2M12 65 0 58l9-10-8-12 17 3M27 77l-5 17 16-9 12 12 2-19M70 62l18 8-4-18"/>
    <circle cx="69" cy="34" r="2.5" fill="#e6f7ee"/>
  </g>
  <circle cx="64" cy="111" r="24" fill="#071b2a" fill-opacity=".24" stroke="#e8d7a2" stroke-opacity=".28"/>
  <text x="64" y="136" fill="#f2e5bd" fill-opacity=".78" font-family="Georgia,serif" font-size="9" text-anchor="middle" letter-spacing="3">DRAGON</text>
</svg>
