<svg xmlns="http://www.w3.org/2000/svg" viewBox="0 0 128 152">
  <defs>
    <pattern id="lattice" width="18" height="18" patternUnits="userSpaceOnUse" patternTransform="rotate(45)">
      <path d="M0 0V18M9 0V18" stroke="#e6c573" stroke-opacity=".18"/>
    </pattern>
    <radialGradient id="bg">
      <stop stop-color="#4d3a2a"/>
      <stop offset=".65" stop-color="#2b211b"/>
      <stop offset="1" stop-color="#120f0e"/>
    </radialGradient>
  </defs>
  <rect width="128" height="152" rx="12" fill="url(#bg)"/>
  <rect x="5" y="5" width="118" height="142" rx="9" fill="url(#lattice)" stroke="#dfc174" stroke-width="3"/>
  <rect x="12" y="12" width="104" height="128" rx="7" fill="none" stroke="#f5dfa4" stroke-opacity=".35"/>
  <circle cx="64" cy="76" r="34" fill="#171312" stroke="#d6b665" stroke-width="2"/>
  <path d="M64 42a34 34 0 0 1 0 68 17 17 0 0 1 0-34 17 17 0 0 0 0-34Z" fill="#8f3c38"/>
  <path d="M64 110a34 34 0 0 1 0-68 17 17 0 0 1 0 34 17 17 0 0 0 0 34Z" fill="#315f77"/>
  <circle cx="64" cy="59" r="4" fill="#315f77"/>
  <circle cx="64" cy="93" r="4" fill="#8f3c38"/>
  <text x="64" y="128" fill="#e8cf8b" font-family="Georgia,serif" font-size="8" text-anchor="middle" letter-spacing="2">TIGER · DRAGON</text>
</svg>
