<svg xmlns="http://www.w3.org/2000/svg" width="960" height="540" viewBox="0 0 960 540" role="img" aria-labelledby="abalone-classic-title abalone-classic-desc">
  <title id="abalone-classic-title">abalone-classic tabletop cover</title>
  <desc id="abalone-classic-desc">A custom tabletop representative image focused on the physical board-game components.</desc>
  <defs>
    <linearGradient id="table" x1="0" y1="0" x2="1" y2="1">
      <stop offset="0" stop-color="#4e2f1c"/>
      <stop offset=".38" stop-color="#24140c"/>
      <stop offset="1" stop-color="#100906"/>
    </linearGradient>
    <linearGradient id="rail" x1="0" y1="0" x2="0" y2="1">
      <stop offset="0" stop-color="#795031"/>
      <stop offset=".5" stop-color="#4e2f1c"/>
      <stop offset="1" stop-color="#24140c"/>
    </linearGradient>
    <linearGradient id="felt" x1="0" y1="0" x2="1" y2="1">
      <stop offset="0" stop-color="#0b5a42"/>
      <stop offset="1" stop-color="#073125"/>
    </linearGradient>
    <radialGradient id="spot" cx="50%" cy="42%" r="70%">
      <stop offset="0" stop-color="#a2aab5" stop-opacity=".32"/>
      <stop offset=".64" stop-color="#a2aab5" stop-opacity=".08"/>
      <stop offset="1" stop-color="#a2aab5" stop-opacity="0"/>
    </radialGradient>
    <filter id="shadow" x="-30%" y="-30%" width="160%" height="160%">
      <feDropShadow dx="0" dy="14" stdDeviation="18" flood-color="#000" flood-opacity=".42"/>
    </filter>
    <filter id="chipShadow" x="-35%" y="-35%" width="170%" height="170%">
      <feDropShadow dx="0" dy="7" stdDeviation="7" flood-color="#000" flood-opacity=".32"/>
    </filter>
    <pattern id="woodgrain" width="90" height="46" patternUnits="userSpaceOnUse">
      <path d="M0 9c22-10 47 10 90 0M0 25c30 12 59-12 90 0M0 41c24-8 52 9 90 0" fill="none" stroke="#ffe2aa" stroke-opacity=".055" stroke-width="2"/>
    </pattern>
    <pattern id="feltthread" width="38" height="38" patternUnits="userSpaceOnUse" patternTransform="rotate(25)">
      <path d="M0 0h38" stroke="#fff" stroke-opacity=".045" stroke-width="2"/>
    </pattern>
  </defs>
  <rect width="960" height="540" rx="34" fill="url(#table)"/>
  <rect width="960" height="540" rx="34" fill="url(#woodgrain)"/>
  <rect x="42" y="34" width="876" height="472" rx="38" fill="url(#rail)" filter="url(#shadow)"/>
  <rect x="70" y="62" width="820" height="416" rx="28" fill="url(#felt)"/>
  <rect x="70" y="62" width="820" height="416" rx="28" fill="url(#feltthread)"/>
  <rect x="70" y="62" width="820" height="416" rx="28" fill="url(#spot)"/>
  <rect x="91" y="83" width="778" height="374" rx="20" fill="none" stroke="#ead0a0" stroke-opacity=".28" stroke-width="2"/>
  
    <path d="M480 72l270 151v94L480 468 210 317v-94z" fill="#6c4a2c" stroke="#e2bf82" stroke-opacity=".48" stroke-width="4" filter="url(#chipShadow)"/>
    <g><circle cx="368" cy="112" r="25" fill="#8a643e" stroke="#e1bd7f" stroke-opacity=".26" stroke-width="2"/><circle cx="424" cy="112" r="25" fill="#8a643e" stroke="#e1bd7f" stroke-opacity=".26" stroke-width="2"/><circle cx="480" cy="112" r="25" fill="#8a643e" stroke="#e1bd7f" stroke-opacity=".26" stroke-width="2"/><circle cx="536" cy="112" r="25" fill="#8a643e" stroke="#e1bd7f" stroke-opacity=".26" stroke-width="2"/><circle cx="592" cy="112" r="25" fill="#8a643e" stroke="#e1bd7f" stroke-opacity=".26" stroke-width="2"/><circle cx="340" cy="150" r="25" fill="#8a643e" stroke="#e1bd7f" stroke-opacity=".26" stroke-width="2"/><circle cx="396" cy="150" r="25" fill="#8a643e" stroke="#e1bd7f" stroke-opacity=".26" stroke-width="2"/><circle cx="452" cy="150" r="25" fill="#8a643e" stroke="#e1bd7f" stroke-opacity=".26" stroke-width="2"/><circle cx="508" cy="150" r="25" fill="#8a643e" stroke="#e1bd7f" stroke-opacity=".26" stroke-width="2"/><circle cx="564" cy="150" r="25" fill="#8a643e" stroke="#e1bd7f" stroke-opacity=".26" stroke-width="2"/><circle cx="620" cy="150" r="25" fill="#8a643e" stroke="#e1bd7f" stroke-opacity=".26" stroke-width="2"/><circle cx="312" cy="188" r="25" fill="#8a643e" stroke="#e1bd7f" stroke-opacity=".26" stroke-width="2"/><circle cx="368" cy="188" r="25" fill="#8a643e" stroke="#e1bd7f" stroke-opacity=".26" stroke-width="2"/><circle cx="424" cy="188" r="25" fill="#8a643e" stroke="#e1bd7f" stroke-opacity=".26" stroke-width="2"/><circle cx="480" cy="188" r="25" fill="#8a643e" stroke="#e1bd7f" stroke-opacity=".26" stroke-width="2"/><circle cx="536" cy="188" r="25" fill="#8a643e" stroke="#e1bd7f" stroke-opacity=".26" stroke-width="2"/><circle cx="592" cy="188" r="25" fill="#8a643e" stroke="#e1bd7f" stroke-opacity=".26" stroke-width="2"/><circle cx="648" cy="188" r="25" fill="#8a643e" stroke="#e1bd7f" stroke-opacity=".26" stroke-width="2"/><circle cx="284" cy="226" r="25" fill="#8a643e" stroke="#e1bd7f" stroke-opacity=".26" stroke-width="2"/><circle cx="340" cy="226" r="25" fill="#8a643e" stroke="#e1bd7f" stroke-opacity=".26" stroke-width="2"/><circle cx="396" cy="226" r="25" fill="#8a643e" stroke="#e1bd7f" stroke-opacity=".26" stroke-width="2"/><circle cx="452" cy="226" r="25" fill="#8a643e" stroke="#e1bd7f" stroke-opacity=".26" stroke-width="2"/><circle cx="508" cy="226" r="25" fill="#8a643e" stroke="#e1bd7f" stroke-opacity=".26" stroke-width="2"/><circle cx="564" cy="226" r="25" fill="#8a643e" stroke="#e1bd7f" stroke-opacity=".26" stroke-width="2"/><circle cx="620" cy="226" r="25" fill="#8a643e" stroke="#e1bd7f" stroke-opacity=".26" stroke-width="2"/><circle cx="676" cy="226" r="25" fill="#8a643e" stroke="#e1bd7f" stroke-opacity=".26" stroke-width="2"/><circle cx="256" cy="264" r="25" fill="#8a643e" stroke="#e1bd7f" stroke-opacity=".26" stroke-width="2"/><circle cx="312" cy="264" r="25" fill="#8a643e" stroke="#e1bd7f" stroke-opacity=".26" stroke-width="2"/><circle cx="368" cy="264" r="25" fill="#8a643e" stroke="#e1bd7f" stroke-opacity=".26" stroke-width="2"/><circle cx="424" cy="264" r="25" fill="#8a643e" stroke="#e1bd7f" stroke-opacity=".26" stroke-width="2"/><circle cx="480" cy="264" r="25" fill="#8a643e" stroke="#e1bd7f" stroke-opacity=".26" stroke-width="2"/><circle cx="536" cy="264" r="25" fill="#8a643e" stroke="#e1bd7f" stroke-opacity=".26" stroke-width="2"/><circle cx="592" cy="264" r="25" fill="#8a643e" stroke="#e1bd7f" stroke-opacity=".26" stroke-width="2"/><circle cx="648" cy="264" r="25" fill="#8a643e" stroke="#e1bd7f" stroke-opacity=".26" stroke-width="2"/><circle cx="704" cy="264" r="25" fill="#8a643e" stroke="#e1bd7f" stroke-opacity=".26" stroke-width="2"/><circle cx="284" cy="302" r="25" fill="#8a643e" stroke="#e1bd7f" stroke-opacity=".26" stroke-width="2"/><circle cx="340" cy="302" r="25" fill="#8a643e" stroke="#e1bd7f" stroke-opacity=".26" stroke-width="2"/><circle cx="396" cy="302" r="25" fill="#8a643e" stroke="#e1bd7f" stroke-opacity=".26" stroke-width="2"/><circle cx="452" cy="302" r="25" fill="#8a643e" stroke="#e1bd7f" stroke-opacity=".26" stroke-width="2"/><circle cx="508" cy="302" r="25" fill="#8a643e" stroke="#e1bd7f" stroke-opacity=".26" stroke-width="2"/><circle cx="564" cy="302" r="25" fill="#8a643e" stroke="#e1bd7f" stroke-opacity=".26" stroke-width="2"/><circle cx="620" cy="302" r="25" fill="#8a643e" stroke="#e1bd7f" stroke-opacity=".26" stroke-width="2"/><circle cx="676" cy="302" r="25" fill="#8a643e" stroke="#e1bd7f" stroke-opacity=".26" stroke-width="2"/><circle cx="312" cy="340" r="25" fill="#8a643e" stroke="#e1bd7f" stroke-opacity=".26" stroke-width="2"/><circle cx="368" cy="340" r="25" fill="#8a643e" stroke="#e1bd7f" stroke-opacity=".26" stroke-width="2"/><circle cx="424" cy="340" r="25" fill="#8a643e" stroke="#e1bd7f" stroke-opacity=".26" stroke-width="2"/><circle cx="480" cy="340" r="25" fill="#8a643e" stroke="#e1bd7f" stroke-opacity=".26" stroke-width="2"/><circle cx="536" cy="340" r="25" fill="#8a643e" stroke="#e1bd7f" stroke-opacity=".26" stroke-width="2"/><circle cx="592" cy="340" r="25" fill="#8a643e" stroke="#e1bd7f" stroke-opacity=".26" stroke-width="2"/><circle cx="648" cy="340" r="25" fill="#8a643e" stroke="#e1bd7f" stroke-opacity=".26" stroke-width="2"/><circle cx="340" cy="378" r="25" fill="#8a643e" stroke="#e1bd7f" stroke-opacity=".26" stroke-width="2"/><circle cx="396" cy="378" r="25" fill="#8a643e" stroke="#e1bd7f" stroke-opacity=".26" stroke-width="2"/><circle cx="452" cy="378" r="25" fill="#8a643e" stroke="#e1bd7f" stroke-opacity=".26" stroke-width="2"/><circle cx="508" cy="378" r="25" fill="#8a643e" stroke="#e1bd7f" stroke-opacity=".26" stroke-width="2"/><circle cx="564" cy="378" r="25" fill="#8a643e" stroke="#e1bd7f" stroke-opacity=".26" stroke-width="2"/><circle cx="620" cy="378" r="25" fill="#8a643e" stroke="#e1bd7f" stroke-opacity=".26" stroke-width="2"/><circle cx="368" cy="416" r="25" fill="#8a643e" stroke="#e1bd7f" stroke-opacity=".26" stroke-width="2"/><circle cx="424" cy="416" r="25" fill="#8a643e" stroke="#e1bd7f" stroke-opacity=".26" stroke-width="2"/><circle cx="480" cy="416" r="25" fill="#8a643e" stroke="#e1bd7f" stroke-opacity=".26" stroke-width="2"/><circle cx="536" cy="416" r="25" fill="#8a643e" stroke="#e1bd7f" stroke-opacity=".26" stroke-width="2"/><circle cx="592" cy="416" r="25" fill="#8a643e" stroke="#e1bd7f" stroke-opacity=".26" stroke-width="2"/></g>
    <g><circle cx="368" cy="112" r="20" fill="#161412" filter="url(#chipShadow)"/><circle cx="424" cy="112" r="20" fill="#161412" filter="url(#chipShadow)"/><circle cx="480" cy="112" r="20" fill="#161412" filter="url(#chipShadow)"/><circle cx="536" cy="112" r="20" fill="#161412" filter="url(#chipShadow)"/><circle cx="592" cy="112" r="20" fill="#161412" filter="url(#chipShadow)"/><circle cx="340" cy="150" r="20" fill="#161412" filter="url(#chipShadow)"/><circle cx="396" cy="150" r="20" fill="#161412" filter="url(#chipShadow)"/><circle cx="452" cy="150" r="20" fill="#161412" filter="url(#chipShadow)"/><circle cx="508" cy="150" r="20" fill="#161412" filter="url(#chipShadow)"/><circle cx="564" cy="150" r="20" fill="#161412" filter="url(#chipShadow)"/><circle cx="620" cy="150" r="20" fill="#161412" filter="url(#chipShadow)"/><circle cx="312" cy="188" r="20" fill="#161412" filter="url(#chipShadow)"/><circle cx="368" cy="188" r="20" fill="#161412" filter="url(#chipShadow)"/><circle cx="424" cy="188" r="20" fill="#161412" filter="url(#chipShadow)"/><circle cx="480" cy="188" r="20" fill="#161412" filter="url(#chipShadow)"/><circle cx="536" cy="188" r="20" fill="#161412" filter="url(#chipShadow)"/><circle cx="592" cy="188" r="20" fill="#161412" filter="url(#chipShadow)"/><circle cx="648" cy="188" r="20" fill="#161412" filter="url(#chipShadow)"/><circle cx="396" cy="226" r="20" fill="#161412" filter="url(#chipShadow)"/><circle cx="452" cy="226" r="20" fill="#161412" filter="url(#chipShadow)"/><circle cx="508" cy="226" r="20" fill="#161412" filter="url(#chipShadow)"/><circle cx="564" cy="226" r="20" fill="#161412" filter="url(#chipShadow)"/><circle cx="620" cy="226" r="20" fill="#161412" filter="url(#chipShadow)"/><circle cx="396" cy="302" r="20" fill="#f2eee1" filter="url(#chipShadow)"/><circle cx="452" cy="302" r="20" fill="#f2eee1" filter="url(#chipShadow)"/><circle cx="508" cy="302" r="20" fill="#f2eee1" filter="url(#chipShadow)"/><circle cx="564" cy="302" r="20" fill="#f2eee1" filter="url(#chipShadow)"/><circle cx="620" cy="302" r="20" fill="#f2eee1" filter="url(#chipShadow)"/><circle cx="312" cy="340" r="20" fill="#f2eee1" filter="url(#chipShadow)"/><circle cx="368" cy="340" r="20" fill="#f2eee1" filter="url(#chipShadow)"/><circle cx="424" cy="340" r="20" fill="#f2eee1" filter="url(#chipShadow)"/><circle cx="480" cy="340" r="20" fill="#f2eee1" filter="url(#chipShadow)"/><circle cx="536" cy="340" r="20" fill="#f2eee1" filter="url(#chipShadow)"/><circle cx="592" cy="340" r="20" fill="#f2eee1" filter="url(#chipShadow)"/><circle cx="648" cy="340" r="20" fill="#f2eee1" filter="url(#chipShadow)"/><circle cx="340" cy="378" r="20" fill="#f2eee1" filter="url(#chipShadow)"/><circle cx="396" cy="378" r="20" fill="#f2eee1" filter="url(#chipShadow)"/><circle cx="452" cy="378" r="20" fill="#f2eee1" filter="url(#chipShadow)"/><circle cx="508" cy="378" r="20" fill="#f2eee1" filter="url(#chipShadow)"/><circle cx="564" cy="378" r="20" fill="#f2eee1" filter="url(#chipShadow)"/><circle cx="620" cy="378" r="20" fill="#f2eee1" filter="url(#chipShadow)"/><circle cx="368" cy="416" r="20" fill="#f2eee1" filter="url(#chipShadow)"/><circle cx="424" cy="416" r="20" fill="#f2eee1" filter="url(#chipShadow)"/><circle cx="480" cy="416" r="20" fill="#f2eee1" filter="url(#chipShadow)"/><circle cx="536" cy="416" r="20" fill="#f2eee1" filter="url(#chipShadow)"/><circle cx="592" cy="416" r="20" fill="#f2eee1" filter="url(#chipShadow)"/></g>
  
</svg>
