<svg xmlns="http://www.w3.org/2000/svg" width="960" height="540" viewBox="0 0 960 540" role="img" aria-labelledby="abalone-classic-title abalone-classic-desc">
  <title id="abalone-classic-title">abalone-classic board game cover</title>
  <desc id="abalone-classic-desc">A handcrafted tabletop style representative image for the board game.</desc>
  <defs>
    <linearGradient id="table" x1="0" y1="0" x2="1" y2="1">
      <stop offset="0" stop-color="#321f13"/>
      <stop offset=".5" stop-color="#1f130c"/>
      <stop offset="1" stop-color="#0d0805"/>
    </linearGradient>
    <linearGradient id="rail" x1="0" y1="0" x2="0" y2="1">
      <stop offset="0" stop-color="#5b3922"/>
      <stop offset=".52" stop-color="#3d2516"/>
      <stop offset="1" stop-color="#25160d"/>
    </linearGradient>
    <linearGradient id="felt" x1="0" y1="0" x2="1" y2="1">
      <stop offset="0" stop-color="#0c4a37"/>
      <stop offset="1" stop-color="#06291f"/>
    </linearGradient>
    <radialGradient id="glow" cx="50%" cy="44%" r="62%">
      <stop offset="0" stop-color="#8c98a4" stop-opacity=".28"/>
      <stop offset="1" stop-color="#8c98a4" stop-opacity="0"/>
    </radialGradient>
    <filter id="shadow" x="-20%" y="-20%" width="140%" height="140%">
      <feDropShadow dx="0" dy="14" stdDeviation="16" flood-color="#000" flood-opacity=".42"/>
    </filter>
    <filter id="softShadow" x="-30%" y="-30%" width="160%" height="160%">
      <feDropShadow dx="0" dy="6" stdDeviation="8" flood-color="#000" flood-opacity=".3"/>
    </filter>
    <pattern id="grain" width="54" height="54" patternUnits="userSpaceOnUse">
      <path d="M0 12c18-9 34 9 54 0M0 31c18 7 33-7 54 0M0 48c20-8 34 8 54 0" fill="none" stroke="#ffe1a0" stroke-opacity=".055" stroke-width="2"/>
    </pattern>
    <pattern id="feltLines" width="42" height="42" patternUnits="userSpaceOnUse" patternTransform="rotate(22)">
      <path d="M0 0h42" stroke="#ffffff" stroke-opacity=".045" stroke-width="2"/>
    </pattern>
  </defs>
  <rect width="960" height="540" rx="36" fill="url(#table)"/>
  <rect width="960" height="540" rx="36" fill="url(#grain)"/>
  <rect x="48" y="42" width="864" height="456" rx="34" fill="url(#rail)" filter="url(#shadow)"/>
  <rect x="75" y="69" width="810" height="402" rx="26" fill="url(#felt)"/>
  <rect x="75" y="69" width="810" height="402" rx="26" fill="url(#feltLines)"/>
  <rect x="75" y="69" width="810" height="402" rx="26" fill="url(#glow)"/>
  <rect x="93" y="87" width="774" height="366" rx="20" fill="none" stroke="rgba(255,232,185,.32)" stroke-width="2"/>
  
    <path d="M480 91l258 146v68L480 451 222 305v-68z" fill="#9a744a" stroke="#e2c08a" stroke-opacity=".42" stroke-width="3" filter="url(#softShadow)"/>
    <circle cx="356" cy="137" r="22" fill="#151515" filter="url(#softShadow)"/><circle cx="418" cy="137" r="22" fill="#151515" filter="url(#softShadow)"/><circle cx="480" cy="137" r="22" fill="#151515" filter="url(#softShadow)"/><circle cx="542" cy="137" r="22" fill="#151515" filter="url(#softShadow)"/><circle cx="604" cy="137" r="22" fill="#151515" filter="url(#softShadow)"/><circle cx="325" cy="175" r="22" fill="#151515" filter="url(#softShadow)"/><circle cx="387" cy="175" r="22" fill="#151515" filter="url(#softShadow)"/><circle cx="449" cy="175" r="22" fill="#151515" filter="url(#softShadow)"/><circle cx="511" cy="175" r="22" fill="#151515" filter="url(#softShadow)"/><circle cx="573" cy="175" r="22" fill="#151515" filter="url(#softShadow)"/><circle cx="635" cy="175" r="22" fill="#151515" filter="url(#softShadow)"/><circle cx="294" cy="213" r="22" fill="#151515" filter="url(#softShadow)"/><circle cx="356" cy="213" r="22" fill="#151515" filter="url(#softShadow)"/><circle cx="418" cy="213" r="22" fill="#151515" filter="url(#softShadow)"/><circle cx="480" cy="213" r="22" fill="#151515" filter="url(#softShadow)"/><circle cx="542" cy="213" r="22" fill="#151515" filter="url(#softShadow)"/><circle cx="604" cy="213" r="22" fill="#151515" filter="url(#softShadow)"/><circle cx="666" cy="213" r="22" fill="#151515" filter="url(#softShadow)"/><circle cx="263" cy="251" r="22" fill="#6e5a42" filter="url(#softShadow)"/><circle cx="325" cy="251" r="22" fill="#6e5a42" filter="url(#softShadow)"/><circle cx="387" cy="251" r="22" fill="#6e5a42" filter="url(#softShadow)"/><circle cx="449" cy="251" r="22" fill="#6e5a42" filter="url(#softShadow)"/><circle cx="511" cy="251" r="22" fill="#6e5a42" filter="url(#softShadow)"/><circle cx="573" cy="251" r="22" fill="#6e5a42" filter="url(#softShadow)"/><circle cx="635" cy="251" r="22" fill="#6e5a42" filter="url(#softShadow)"/><circle cx="697" cy="251" r="22" fill="#6e5a42" filter="url(#softShadow)"/><circle cx="294" cy="289" r="22" fill="#f1eee4" filter="url(#softShadow)"/><circle cx="356" cy="289" r="22" fill="#f1eee4" filter="url(#softShadow)"/><circle cx="418" cy="289" r="22" fill="#f1eee4" filter="url(#softShadow)"/><circle cx="480" cy="289" r="22" fill="#f1eee4" filter="url(#softShadow)"/><circle cx="542" cy="289" r="22" fill="#f1eee4" filter="url(#softShadow)"/><circle cx="604" cy="289" r="22" fill="#f1eee4" filter="url(#softShadow)"/><circle cx="666" cy="289" r="22" fill="#f1eee4" filter="url(#softShadow)"/><circle cx="325" cy="327" r="22" fill="#f1eee4" filter="url(#softShadow)"/><circle cx="387" cy="327" r="22" fill="#f1eee4" filter="url(#softShadow)"/><circle cx="449" cy="327" r="22" fill="#f1eee4" filter="url(#softShadow)"/><circle cx="511" cy="327" r="22" fill="#f1eee4" filter="url(#softShadow)"/><circle cx="573" cy="327" r="22" fill="#f1eee4" filter="url(#softShadow)"/><circle cx="635" cy="327" r="22" fill="#f1eee4" filter="url(#softShadow)"/><circle cx="356" cy="365" r="22" fill="#f1eee4" filter="url(#softShadow)"/><circle cx="418" cy="365" r="22" fill="#f1eee4" filter="url(#softShadow)"/><circle cx="480" cy="365" r="22" fill="#f1eee4" filter="url(#softShadow)"/><circle cx="542" cy="365" r="22" fill="#f1eee4" filter="url(#softShadow)"/><circle cx="604" cy="365" r="22" fill="#f1eee4" filter="url(#softShadow)"/>
  
</svg>
