<svg xmlns="http://www.w3.org/2000/svg" width="960" height="540" viewBox="0 0 960 540" role="img" aria-labelledby="blokus-title blokus-desc">
  <title id="blokus-title">blokus board game cover</title>
  <desc id="blokus-desc">A handcrafted tabletop style representative image for the board game.</desc>
  <defs>
    <linearGradient id="table" x1="0" y1="0" x2="1" y2="1">
      <stop offset="0" stop-color="#321f13"/>
      <stop offset=".5" stop-color="#1f130c"/>
      <stop offset="1" stop-color="#0d0805"/>
    </linearGradient>
    <linearGradient id="rail" x1="0" y1="0" x2="0" y2="1">
      <stop offset="0" stop-color="#5b3922"/>
      <stop offset=".52" stop-color="#3d2516"/>
      <stop offset="1" stop-color="#25160d"/>
    </linearGradient>
    <linearGradient id="felt" x1="0" y1="0" x2="1" y2="1">
      <stop offset="0" stop-color="#0c4a37"/>
      <stop offset="1" stop-color="#06291f"/>
    </linearGradient>
    <radialGradient id="glow" cx="50%" cy="44%" r="62%">
      <stop offset="0" stop-color="#2d73d6" stop-opacity=".28"/>
      <stop offset="1" stop-color="#2d73d6" stop-opacity="0"/>
    </radialGradient>
    <filter id="shadow" x="-20%" y="-20%" width="140%" height="140%">
      <feDropShadow dx="0" dy="14" stdDeviation="16" flood-color="#000" flood-opacity=".42"/>
    </filter>
    <filter id="softShadow" x="-30%" y="-30%" width="160%" height="160%">
      <feDropShadow dx="0" dy="6" stdDeviation="8" flood-color="#000" flood-opacity=".3"/>
    </filter>
    <pattern id="grain" width="54" height="54" patternUnits="userSpaceOnUse">
      <path d="M0 12c18-9 34 9 54 0M0 31c18 7 33-7 54 0M0 48c20-8 34 8 54 0" fill="none" stroke="#ffe1a0" stroke-opacity=".055" stroke-width="2"/>
    </pattern>
    <pattern id="feltLines" width="42" height="42" patternUnits="userSpaceOnUse" patternTransform="rotate(22)">
      <path d="M0 0h42" stroke="#ffffff" stroke-opacity=".045" stroke-width="2"/>
    </pattern>
  </defs>
  <rect width="960" height="540" rx="36" fill="url(#table)"/>
  <rect width="960" height="540" rx="36" fill="url(#grain)"/>
  <rect x="48" y="42" width="864" height="456" rx="34" fill="url(#rail)" filter="url(#shadow)"/>
  <rect x="75" y="69" width="810" height="402" rx="26" fill="url(#felt)"/>
  <rect x="75" y="69" width="810" height="402" rx="26" fill="url(#feltLines)"/>
  <rect x="75" y="69" width="810" height="402" rx="26" fill="url(#glow)"/>
  <rect x="93" y="87" width="774" height="366" rx="20" fill="none" stroke="rgba(255,232,185,.32)" stroke-width="2"/>
  
    <g filter="url(#softShadow)"><rect x="263" y="70" width="19" height="16" rx="2" fill="#e7dcc3" opacity=".68"/><rect x="285" y="70" width="19" height="16" rx="2" fill="#e7dcc3" opacity=".82"/><rect x="307" y="70" width="19" height="16" rx="2" fill="#e7dcc3" opacity=".68"/><rect x="329" y="70" width="19" height="16" rx="2" fill="#e7dcc3" opacity=".82"/><rect x="351" y="70" width="19" height="16" rx="2" fill="#e7dcc3" opacity=".68"/><rect x="373" y="70" width="19" height="16" rx="2" fill="#e7dcc3" opacity=".82"/><rect x="395" y="70" width="19" height="16" rx="2" fill="#e7dcc3" opacity=".68"/><rect x="417" y="70" width="19" height="16" rx="2" fill="#e7dcc3" opacity=".82"/><rect x="439" y="70" width="19" height="16" rx="2" fill="#e7dcc3" opacity=".68"/><rect x="461" y="70" width="19" height="16" rx="2" fill="#e7dcc3" opacity=".82"/><rect x="483" y="70" width="19" height="16" rx="2" fill="#e7dcc3" opacity=".68"/><rect x="505" y="70" width="19" height="16" rx="2" fill="#e7dcc3" opacity=".82"/><rect x="527" y="70" width="19" height="16" rx="2" fill="#e7dcc3" opacity=".68"/><rect x="549" y="70" width="19" height="16" rx="2" fill="#e7dcc3" opacity=".82"/><rect x="571" y="70" width="19" height="16" rx="2" fill="#e7dcc3" opacity=".68"/><rect x="593" y="70" width="19" height="16" rx="2" fill="#e7dcc3" opacity=".82"/><rect x="615" y="70" width="19" height="16" rx="2" fill="#e7dcc3" opacity=".68"/><rect x="637" y="70" width="19" height="16" rx="2" fill="#e7dcc3" opacity=".82"/><rect x="659" y="70" width="19" height="16" rx="2" fill="#e7dcc3" opacity=".68"/><rect x="681" y="70" width="19" height="16" rx="2" fill="#e7dcc3" opacity=".82"/><rect x="263" y="89" width="19" height="16" rx="2" fill="#e7dcc3" opacity=".82"/><rect x="285" y="89" width="19" height="16" rx="2" fill="#e7dcc3" opacity=".68"/><rect x="307" y="89" width="19" height="16" rx="2" fill="#e7dcc3" opacity=".82"/><rect x="329" y="89" width="19" height="16" rx="2" fill="#e7dcc3" opacity=".68"/><rect x="351" y="89" width="19" height="16" rx="2" fill="#e7dcc3" opacity=".82"/><rect x="373" y="89" width="19" height="16" rx="2" fill="#e7dcc3" opacity=".68"/><rect x="395" y="89" width="19" height="16" rx="2" fill="#e7dcc3" opacity=".82"/><rect x="417" y="89" width="19" height="16" rx="2" fill="#e7dcc3" opacity=".68"/><rect x="439" y="89" width="19" height="16" rx="2" fill="#e7dcc3" opacity=".82"/><rect x="461" y="89" width="19" height="16" rx="2" fill="#e7dcc3" opacity=".68"/><rect x="483" y="89" width="19" height="16" rx="2" fill="#e7dcc3" opacity=".82"/><rect x="505" y="89" width="19" height="16" rx="2" fill="#e7dcc3" opacity=".68"/><rect x="527" y="89" width="19" height="16" rx="2" fill="#e7dcc3" opacity=".82"/><rect x="549" y="89" width="19" height="16" rx="2" fill="#e7dcc3" opacity=".68"/><rect x="571" y="89" width="19" height="16" rx="2" fill="#e7dcc3" opacity=".82"/><rect x="593" y="89" width="19" height="16" rx="2" fill="#e7dcc3" opacity=".68"/><rect x="615" y="89" width="19" height="16" rx="2" fill="#e7dcc3" opacity=".82"/><rect x="637" y="89" width="19" height="16" rx="2" fill="#e7dcc3" opacity=".68"/><rect x="659" y="89" width="19" height="16" rx="2" fill="#e7dcc3" opacity=".82"/><rect x="681" y="89" width="19" height="16" rx="2" fill="#e7dcc3" opacity=".68"/><rect x="263" y="108" width="19" height="16" rx="2" fill="#e7dcc3" opacity=".68"/><rect x="285" y="108" width="19" height="16" rx="2" fill="#e7dcc3" opacity=".82"/><rect x="307" y="108" width="19" height="16" rx="2" fill="#e7dcc3" opacity=".68"/><rect x="329" y="108" width="19" height="16" rx="2" fill="#e7dcc3" opacity=".82"/><rect x="351" y="108" width="19" height="16" rx="2" fill="#e7dcc3" opacity=".68"/><rect x="373" y="108" width="19" height="16" rx="2" fill="#e7dcc3" opacity=".82"/><rect x="395" y="108" width="19" height="16" rx="2" fill="#e7dcc3" opacity=".68"/><rect x="417" y="108" width="19" height="16" rx="2" fill="#e7dcc3" opacity=".82"/><rect x="439" y="108" width="19" height="16" rx="2" fill="#e7dcc3" opacity=".68"/><rect x="461" y="108" width="19" height="16" rx="2" fill="#e7dcc3" opacity=".82"/><rect x="483" y="108" width="19" height="16" rx="2" fill="#e7dcc3" opacity=".68"/><rect x="505" y="108" width="19" height="16" rx="2" fill="#e7dcc3" opacity=".82"/><rect x="527" y="108" width="19" height="16" rx="2" fill="#e7dcc3" opacity=".68"/><rect x="549" y="108" width="19" height="16" rx="2" fill="#e7dcc3" opacity=".82"/><rect x="571" y="108" width="19" height="16" rx="2" fill="#e7dcc3" opacity=".68"/><rect x="593" y="108" width="19" height="16" rx="2" fill="#e7dcc3" opacity=".82"/><rect x="615" y="108" width="19" height="16" rx="2" fill="#e7dcc3" opacity=".68"/><rect x="637" y="108" width="19" height="16" rx="2" fill="#e7dcc3" opacity=".82"/><rect x="659" y="108" width="19" height="16" rx="2" fill="#e7dcc3" opacity=".68"/><rect x="681" y="108" width="19" height="16" rx="2" fill="#e7dcc3" opacity=".82"/><rect x="263" y="127" width="19" height="16" rx="2" fill="#e7dcc3" opacity=".82"/><rect x="285" y="127" width="19" height="16" rx="2" fill="#e7dcc3" opacity=".68"/><rect x="307" y="127" width="19" height="16" rx="2" fill="#e7dcc3" opacity=".82"/><rect x="329" y="127" width="19" height="16" rx="2" fill="#e7dcc3" opacity=".68"/><rect x="351" y="127" width="19" height="16" rx="2" fill="#e7dcc3" opacity=".82"/><rect x="373" y="127" width="19" height="16" rx="2" fill="#e7dcc3" opacity=".68"/><rect x="395" y="127" width="19" height="16" rx="2" fill="#e7dcc3" opacity=".82"/><rect x="417" y="127" width="19" height="16" rx="2" fill="#e7dcc3" opacity=".68"/><rect x="439" y="127" width="19" height="16" rx="2" fill="#e7dcc3" opacity=".82"/><rect x="461" y="127" width="19" height="16" rx="2" fill="#e7dcc3" opacity=".68"/><rect x="483" y="127" width="19" height="16" rx="2" fill="#e7dcc3" opacity=".82"/><rect x="505" y="127" width="19" height="16" rx="2" fill="#e7dcc3" opacity=".68"/><rect x="527" y="127" width="19" height="16" rx="2" fill="#e7dcc3" opacity=".82"/><rect x="549" y="127" width="19" height="16" rx="2" fill="#e7dcc3" opacity=".68"/><rect x="571" y="127" width="19" height="16" rx="2" fill="#e7dcc3" opacity=".82"/><rect x="593" y="127" width="19" height="16" rx="2" fill="#e7dcc3" opacity=".68"/><rect x="615" y="127" width="19" height="16" rx="2" fill="#e7dcc3" opacity=".82"/><rect x="637" y="127" width="19" height="16" rx="2" fill="#e7dcc3" opacity=".68"/><rect x="659" y="127" width="19" height="16" rx="2" fill="#e7dcc3" opacity=".82"/><rect x="681" y="127" width="19" height="16" rx="2" fill="#e7dcc3" opacity=".68"/><rect x="263" y="146" width="19" height="16" rx="2" fill="#e7dcc3" opacity=".68"/><rect x="285" y="146" width="19" height="16" rx="2" fill="#e7dcc3" opacity=".82"/><rect x="307" y="146" width="19" height="16" rx="2" fill="#e7dcc3" opacity=".68"/><rect x="329" y="146" width="19" height="16" rx="2" fill="#e7dcc3" opacity=".82"/><rect x="351" y="146" width="19" height="16" rx="2" fill="#e7dcc3" opacity=".68"/><rect x="373" y="146" width="19" height="16" rx="2" fill="#e7dcc3" opacity=".82"/><rect x="395" y="146" width="19" height="16" rx="2" fill="#e7dcc3" opacity=".68"/><rect x="417" y="146" width="19" height="16" rx="2" fill="#e7dcc3" opacity=".82"/><rect x="439" y="146" width="19" height="16" rx="2" fill="#e7dcc3" opacity=".68"/><rect x="461" y="146" width="19" height="16" rx="2" fill="#e7dcc3" opacity=".82"/><rect x="483" y="146" width="19" height="16" rx="2" fill="#e7dcc3" opacity=".68"/><rect x="505" y="146" width="19" height="16" rx="2" fill="#e7dcc3" opacity=".82"/><rect x="527" y="146" width="19" height="16" rx="2" fill="#e7dcc3" opacity=".68"/><rect x="549" y="146" width="19" height="16" rx="2" fill="#e7dcc3" opacity=".82"/><rect x="571" y="146" width="19" height="16" rx="2" fill="#e7dcc3" opacity=".68"/><rect x="593" y="146" width="19" height="16" rx="2" fill="#e7dcc3" opacity=".82"/><rect x="615" y="146" width="19" height="16" rx="2" fill="#e7dcc3" opacity=".68"/><rect x="637" y="146" width="19" height="16" rx="2" fill="#e7dcc3" opacity=".82"/><rect x="659" y="146" width="19" height="16" rx="2" fill="#e7dcc3" opacity=".68"/><rect x="681" y="146" width="19" height="16" rx="2" fill="#e7dcc3" opacity=".82"/><rect x="263" y="165" width="19" height="16" rx="2" fill="#e7dcc3" opacity=".82"/><rect x="285" y="165" width="19" height="16" rx="2" fill="#e7dcc3" opacity=".68"/><rect x="307" y="165" width="19" height="16" rx="2" fill="#e7dcc3" opacity=".82"/><rect x="329" y="165" width="19" height="16" rx="2" fill="#e7dcc3" opacity=".68"/><rect x="351" y="165" width="19" height="16" rx="2" fill="#e7dcc3" opacity=".82"/><rect x="373" y="165" width="19" height="16" rx="2" fill="#e7dcc3" opacity=".68"/><rect x="395" y="165" width="19" height="16" rx="2" fill="#e7dcc3" opacity=".82"/><rect x="417" y="165" width="19" height="16" rx="2" fill="#e7dcc3" opacity=".68"/><rect x="439" y="165" width="19" height="16" rx="2" fill="#e7dcc3" opacity=".82"/><rect x="461" y="165" width="19" height="16" rx="2" fill="#e7dcc3" opacity=".68"/><rect x="483" y="165" width="19" height="16" rx="2" fill="#e7dcc3" opacity=".82"/><rect x="505" y="165" width="19" height="16" rx="2" fill="#e7dcc3" opacity=".68"/><rect x="527" y="165" width="19" height="16" rx="2" fill="#e7dcc3" opacity=".82"/><rect x="549" y="165" width="19" height="16" rx="2" fill="#e7dcc3" opacity=".68"/><rect x="571" y="165" width="19" height="16" rx="2" fill="#e7dcc3" opacity=".82"/><rect x="593" y="165" width="19" height="16" rx="2" fill="#e7dcc3" opacity=".68"/><rect x="615" y="165" width="19" height="16" rx="2" fill="#e7dcc3" opacity=".82"/><rect x="637" y="165" width="19" height="16" rx="2" fill="#e7dcc3" opacity=".68"/><rect x="659" y="165" width="19" height="16" rx="2" fill="#e7dcc3" opacity=".82"/><rect x="681" y="165" width="19" height="16" rx="2" fill="#e7dcc3" opacity=".68"/><rect x="263" y="184" width="19" height="16" rx="2" fill="#e7dcc3" opacity=".68"/><rect x="285" y="184" width="19" height="16" rx="2" fill="#e7dcc3" opacity=".82"/><rect x="307" y="184" width="19" height="16" rx="2" fill="#e7dcc3" opacity=".68"/><rect x="329" y="184" width="19" height="16" rx="2" fill="#e7dcc3" opacity=".82"/><rect x="351" y="184" width="19" height="16" rx="2" fill="#e7dcc3" opacity=".68"/><rect x="373" y="184" width="19" height="16" rx="2" fill="#e7dcc3" opacity=".82"/><rect x="395" y="184" width="19" height="16" rx="2" fill="#e7dcc3" opacity=".68"/><rect x="417" y="184" width="19" height="16" rx="2" fill="#e7dcc3" opacity=".82"/><rect x="439" y="184" width="19" height="16" rx="2" fill="#e7dcc3" opacity=".68"/><rect x="461" y="184" width="19" height="16" rx="2" fill="#e7dcc3" opacity=".82"/><rect x="483" y="184" width="19" height="16" rx="2" fill="#e7dcc3" opacity=".68"/><rect x="505" y="184" width="19" height="16" rx="2" fill="#e7dcc3" opacity=".82"/><rect x="527" y="184" width="19" height="16" rx="2" fill="#e7dcc3" opacity=".68"/><rect x="549" y="184" width="19" height="16" rx="2" fill="#e7dcc3" opacity=".82"/><rect x="571" y="184" width="19" height="16" rx="2" fill="#e7dcc3" opacity=".68"/><rect x="593" y="184" width="19" height="16" rx="2" fill="#e7dcc3" opacity=".82"/><rect x="615" y="184" width="19" height="16" rx="2" fill="#e7dcc3" opacity=".68"/><rect x="637" y="184" width="19" height="16" rx="2" fill="#e7dcc3" opacity=".82"/><rect x="659" y="184" width="19" height="16" rx="2" fill="#e7dcc3" opacity=".68"/><rect x="681" y="184" width="19" height="16" rx="2" fill="#e7dcc3" opacity=".82"/><rect x="263" y="203" width="19" height="16" rx="2" fill="#e7dcc3" opacity=".82"/><rect x="285" y="203" width="19" height="16" rx="2" fill="#e7dcc3" opacity=".68"/><rect x="307" y="203" width="19" height="16" rx="2" fill="#e7dcc3" opacity=".82"/><rect x="329" y="203" width="19" height="16" rx="2" fill="#e7dcc3" opacity=".68"/><rect x="351" y="203" width="19" height="16" rx="2" fill="#e7dcc3" opacity=".82"/><rect x="373" y="203" width="19" height="16" rx="2" fill="#e7dcc3" opacity=".68"/><rect x="395" y="203" width="19" height="16" rx="2" fill="#e7dcc3" opacity=".82"/><rect x="417" y="203" width="19" height="16" rx="2" fill="#e7dcc3" opacity=".68"/><rect x="439" y="203" width="19" height="16" rx="2" fill="#e7dcc3" opacity=".82"/><rect x="461" y="203" width="19" height="16" rx="2" fill="#e7dcc3" opacity=".68"/><rect x="483" y="203" width="19" height="16" rx="2" fill="#e7dcc3" opacity=".82"/><rect x="505" y="203" width="19" height="16" rx="2" fill="#e7dcc3" opacity=".68"/><rect x="527" y="203" width="19" height="16" rx="2" fill="#e7dcc3" opacity=".82"/><rect x="549" y="203" width="19" height="16" rx="2" fill="#e7dcc3" opacity=".68"/><rect x="571" y="203" width="19" height="16" rx="2" fill="#e7dcc3" opacity=".82"/><rect x="593" y="203" width="19" height="16" rx="2" fill="#e7dcc3" opacity=".68"/><rect x="615" y="203" width="19" height="16" rx="2" fill="#e7dcc3" opacity=".82"/><rect x="637" y="203" width="19" height="16" rx="2" fill="#e7dcc3" opacity=".68"/><rect x="659" y="203" width="19" height="16" rx="2" fill="#e7dcc3" opacity=".82"/><rect x="681" y="203" width="19" height="16" rx="2" fill="#e7dcc3" opacity=".68"/><rect x="263" y="222" width="19" height="16" rx="2" fill="#e7dcc3" opacity=".68"/><rect x="285" y="222" width="19" height="16" rx="2" fill="#e7dcc3" opacity=".82"/><rect x="307" y="222" width="19" height="16" rx="2" fill="#e7dcc3" opacity=".68"/><rect x="329" y="222" width="19" height="16" rx="2" fill="#e7dcc3" opacity=".82"/><rect x="351" y="222" width="19" height="16" rx="2" fill="#e7dcc3" opacity=".68"/><rect x="373" y="222" width="19" height="16" rx="2" fill="#e7dcc3" opacity=".82"/><rect x="395" y="222" width="19" height="16" rx="2" fill="#e7dcc3" opacity=".68"/><rect x="417" y="222" width="19" height="16" rx="2" fill="#e7dcc3" opacity=".82"/><rect x="439" y="222" width="19" height="16" rx="2" fill="#e7dcc3" opacity=".68"/><rect x="461" y="222" width="19" height="16" rx="2" fill="#e7dcc3" opacity=".82"/><rect x="483" y="222" width="19" height="16" rx="2" fill="#e7dcc3" opacity=".68"/><rect x="505" y="222" width="19" height="16" rx="2" fill="#e7dcc3" opacity=".82"/><rect x="527" y="222" width="19" height="16" rx="2" fill="#e7dcc3" opacity=".68"/><rect x="549" y="222" width="19" height="16" rx="2" fill="#e7dcc3" opacity=".82"/><rect x="571" y="222" width="19" height="16" rx="2" fill="#e7dcc3" opacity=".68"/><rect x="593" y="222" width="19" height="16" rx="2" fill="#e7dcc3" opacity=".82"/><rect x="615" y="222" width="19" height="16" rx="2" fill="#e7dcc3" opacity=".68"/><rect x="637" y="222" width="19" height="16" rx="2" fill="#e7dcc3" opacity=".82"/><rect x="659" y="222" width="19" height="16" rx="2" fill="#e7dcc3" opacity=".68"/><rect x="681" y="222" width="19" height="16" rx="2" fill="#e7dcc3" opacity=".82"/><rect x="263" y="241" width="19" height="16" rx="2" fill="#e7dcc3" opacity=".82"/><rect x="285" y="241" width="19" height="16" rx="2" fill="#e7dcc3" opacity=".68"/><rect x="307" y="241" width="19" height="16" rx="2" fill="#e7dcc3" opacity=".82"/><rect x="329" y="241" width="19" height="16" rx="2" fill="#e7dcc3" opacity=".68"/><rect x="351" y="241" width="19" height="16" rx="2" fill="#e7dcc3" opacity=".82"/><rect x="373" y="241" width="19" height="16" rx="2" fill="#e7dcc3" opacity=".68"/><rect x="395" y="241" width="19" height="16" rx="2" fill="#e7dcc3" opacity=".82"/><rect x="417" y="241" width="19" height="16" rx="2" fill="#e7dcc3" opacity=".68"/><rect x="439" y="241" width="19" height="16" rx="2" fill="#e7dcc3" opacity=".82"/><rect x="461" y="241" width="19" height="16" rx="2" fill="#e7dcc3" opacity=".68"/><rect x="483" y="241" width="19" height="16" rx="2" fill="#e7dcc3" opacity=".82"/><rect x="505" y="241" width="19" height="16" rx="2" fill="#e7dcc3" opacity=".68"/><rect x="527" y="241" width="19" height="16" rx="2" fill="#e7dcc3" opacity=".82"/><rect x="549" y="241" width="19" height="16" rx="2" fill="#e7dcc3" opacity=".68"/><rect x="571" y="241" width="19" height="16" rx="2" fill="#e7dcc3" opacity=".82"/><rect x="593" y="241" width="19" height="16" rx="2" fill="#e7dcc3" opacity=".68"/><rect x="615" y="241" width="19" height="16" rx="2" fill="#e7dcc3" opacity=".82"/><rect x="637" y="241" width="19" height="16" rx="2" fill="#e7dcc3" opacity=".68"/><rect x="659" y="241" width="19" height="16" rx="2" fill="#e7dcc3" opacity=".82"/><rect x="681" y="241" width="19" height="16" rx="2" fill="#e7dcc3" opacity=".68"/><rect x="263" y="260" width="19" height="16" rx="2" fill="#e7dcc3" opacity=".68"/><rect x="285" y="260" width="19" height="16" rx="2" fill="#e7dcc3" opacity=".82"/><rect x="307" y="260" width="19" height="16" rx="2" fill="#e7dcc3" opacity=".68"/><rect x="329" y="260" width="19" height="16" rx="2" fill="#e7dcc3" opacity=".82"/><rect x="351" y="260" width="19" height="16" rx="2" fill="#e7dcc3" opacity=".68"/><rect x="373" y="260" width="19" height="16" rx="2" fill="#e7dcc3" opacity=".82"/><rect x="395" y="260" width="19" height="16" rx="2" fill="#e7dcc3" opacity=".68"/><rect x="417" y="260" width="19" height="16" rx="2" fill="#e7dcc3" opacity=".82"/><rect x="439" y="260" width="19" height="16" rx="2" fill="#e7dcc3" opacity=".68"/><rect x="461" y="260" width="19" height="16" rx="2" fill="#e7dcc3" opacity=".82"/><rect x="483" y="260" width="19" height="16" rx="2" fill="#e7dcc3" opacity=".68"/><rect x="505" y="260" width="19" height="16" rx="2" fill="#e7dcc3" opacity=".82"/><rect x="527" y="260" width="19" height="16" rx="2" fill="#e7dcc3" opacity=".68"/><rect x="549" y="260" width="19" height="16" rx="2" fill="#e7dcc3" opacity=".82"/><rect x="571" y="260" width="19" height="16" rx="2" fill="#e7dcc3" opacity=".68"/><rect x="593" y="260" width="19" height="16" rx="2" fill="#e7dcc3" opacity=".82"/><rect x="615" y="260" width="19" height="16" rx="2" fill="#e7dcc3" opacity=".68"/><rect x="637" y="260" width="19" height="16" rx="2" fill="#e7dcc3" opacity=".82"/><rect x="659" y="260" width="19" height="16" rx="2" fill="#e7dcc3" opacity=".68"/><rect x="681" y="260" width="19" height="16" rx="2" fill="#e7dcc3" opacity=".82"/><rect x="263" y="279" width="19" height="16" rx="2" fill="#e7dcc3" opacity=".82"/><rect x="285" y="279" width="19" height="16" rx="2" fill="#e7dcc3" opacity=".68"/><rect x="307" y="279" width="19" height="16" rx="2" fill="#e7dcc3" opacity=".82"/><rect x="329" y="279" width="19" height="16" rx="2" fill="#e7dcc3" opacity=".68"/><rect x="351" y="279" width="19" height="16" rx="2" fill="#e7dcc3" opacity=".82"/><rect x="373" y="279" width="19" height="16" rx="2" fill="#e7dcc3" opacity=".68"/><rect x="395" y="279" width="19" height="16" rx="2" fill="#e7dcc3" opacity=".82"/><rect x="417" y="279" width="19" height="16" rx="2" fill="#e7dcc3" opacity=".68"/><rect x="439" y="279" width="19" height="16" rx="2" fill="#e7dcc3" opacity=".82"/><rect x="461" y="279" width="19" height="16" rx="2" fill="#e7dcc3" opacity=".68"/><rect x="483" y="279" width="19" height="16" rx="2" fill="#e7dcc3" opacity=".82"/><rect x="505" y="279" width="19" height="16" rx="2" fill="#e7dcc3" opacity=".68"/><rect x="527" y="279" width="19" height="16" rx="2" fill="#e7dcc3" opacity=".82"/><rect x="549" y="279" width="19" height="16" rx="2" fill="#e7dcc3" opacity=".68"/><rect x="571" y="279" width="19" height="16" rx="2" fill="#e7dcc3" opacity=".82"/><rect x="593" y="279" width="19" height="16" rx="2" fill="#e7dcc3" opacity=".68"/><rect x="615" y="279" width="19" height="16" rx="2" fill="#e7dcc3" opacity=".82"/><rect x="637" y="279" width="19" height="16" rx="2" fill="#e7dcc3" opacity=".68"/><rect x="659" y="279" width="19" height="16" rx="2" fill="#e7dcc3" opacity=".82"/><rect x="681" y="279" width="19" height="16" rx="2" fill="#e7dcc3" opacity=".68"/><rect x="263" y="298" width="19" height="16" rx="2" fill="#e7dcc3" opacity=".68"/><rect x="285" y="298" width="19" height="16" rx="2" fill="#e7dcc3" opacity=".82"/><rect x="307" y="298" width="19" height="16" rx="2" fill="#e7dcc3" opacity=".68"/><rect x="329" y="298" width="19" height="16" rx="2" fill="#e7dcc3" opacity=".82"/><rect x="351" y="298" width="19" height="16" rx="2" fill="#e7dcc3" opacity=".68"/><rect x="373" y="298" width="19" height="16" rx="2" fill="#e7dcc3" opacity=".82"/><rect x="395" y="298" width="19" height="16" rx="2" fill="#e7dcc3" opacity=".68"/><rect x="417" y="298" width="19" height="16" rx="2" fill="#e7dcc3" opacity=".82"/><rect x="439" y="298" width="19" height="16" rx="2" fill="#e7dcc3" opacity=".68"/><rect x="461" y="298" width="19" height="16" rx="2" fill="#e7dcc3" opacity=".82"/><rect x="483" y="298" width="19" height="16" rx="2" fill="#e7dcc3" opacity=".68"/><rect x="505" y="298" width="19" height="16" rx="2" fill="#e7dcc3" opacity=".82"/><rect x="527" y="298" width="19" height="16" rx="2" fill="#e7dcc3" opacity=".68"/><rect x="549" y="298" width="19" height="16" rx="2" fill="#e7dcc3" opacity=".82"/><rect x="571" y="298" width="19" height="16" rx="2" fill="#e7dcc3" opacity=".68"/><rect x="593" y="298" width="19" height="16" rx="2" fill="#e7dcc3" opacity=".82"/><rect x="615" y="298" width="19" height="16" rx="2" fill="#e7dcc3" opacity=".68"/><rect x="637" y="298" width="19" height="16" rx="2" fill="#e7dcc3" opacity=".82"/><rect x="659" y="298" width="19" height="16" rx="2" fill="#e7dcc3" opacity=".68"/><rect x="681" y="298" width="19" height="16" rx="2" fill="#e7dcc3" opacity=".82"/><rect x="263" y="317" width="19" height="16" rx="2" fill="#e7dcc3" opacity=".82"/><rect x="285" y="317" width="19" height="16" rx="2" fill="#e7dcc3" opacity=".68"/><rect x="307" y="317" width="19" height="16" rx="2" fill="#e7dcc3" opacity=".82"/><rect x="329" y="317" width="19" height="16" rx="2" fill="#e7dcc3" opacity=".68"/><rect x="351" y="317" width="19" height="16" rx="2" fill="#e7dcc3" opacity=".82"/><rect x="373" y="317" width="19" height="16" rx="2" fill="#e7dcc3" opacity=".68"/><rect x="395" y="317" width="19" height="16" rx="2" fill="#e7dcc3" opacity=".82"/><rect x="417" y="317" width="19" height="16" rx="2" fill="#e7dcc3" opacity=".68"/><rect x="439" y="317" width="19" height="16" rx="2" fill="#e7dcc3" opacity=".82"/><rect x="461" y="317" width="19" height="16" rx="2" fill="#e7dcc3" opacity=".68"/><rect x="483" y="317" width="19" height="16" rx="2" fill="#e7dcc3" opacity=".82"/><rect x="505" y="317" width="19" height="16" rx="2" fill="#e7dcc3" opacity=".68"/><rect x="527" y="317" width="19" height="16" rx="2" fill="#e7dcc3" opacity=".82"/><rect x="549" y="317" width="19" height="16" rx="2" fill="#e7dcc3" opacity=".68"/><rect x="571" y="317" width="19" height="16" rx="2" fill="#e7dcc3" opacity=".82"/><rect x="593" y="317" width="19" height="16" rx="2" fill="#e7dcc3" opacity=".68"/><rect x="615" y="317" width="19" height="16" rx="2" fill="#e7dcc3" opacity=".82"/><rect x="637" y="317" width="19" height="16" rx="2" fill="#e7dcc3" opacity=".68"/><rect x="659" y="317" width="19" height="16" rx="2" fill="#e7dcc3" opacity=".82"/><rect x="681" y="317" width="19" height="16" rx="2" fill="#e7dcc3" opacity=".68"/><rect x="263" y="336" width="19" height="16" rx="2" fill="#e7dcc3" opacity=".68"/><rect x="285" y="336" width="19" height="16" rx="2" fill="#e7dcc3" opacity=".82"/><rect x="307" y="336" width="19" height="16" rx="2" fill="#e7dcc3" opacity=".68"/><rect x="329" y="336" width="19" height="16" rx="2" fill="#e7dcc3" opacity=".82"/><rect x="351" y="336" width="19" height="16" rx="2" fill="#e7dcc3" opacity=".68"/><rect x="373" y="336" width="19" height="16" rx="2" fill="#e7dcc3" opacity=".82"/><rect x="395" y="336" width="19" height="16" rx="2" fill="#e7dcc3" opacity=".68"/><rect x="417" y="336" width="19" height="16" rx="2" fill="#e7dcc3" opacity=".82"/><rect x="439" y="336" width="19" height="16" rx="2" fill="#e7dcc3" opacity=".68"/><rect x="461" y="336" width="19" height="16" rx="2" fill="#e7dcc3" opacity=".82"/><rect x="483" y="336" width="19" height="16" rx="2" fill="#e7dcc3" opacity=".68"/><rect x="505" y="336" width="19" height="16" rx="2" fill="#e7dcc3" opacity=".82"/><rect x="527" y="336" width="19" height="16" rx="2" fill="#e7dcc3" opacity=".68"/><rect x="549" y="336" width="19" height="16" rx="2" fill="#e7dcc3" opacity=".82"/><rect x="571" y="336" width="19" height="16" rx="2" fill="#e7dcc3" opacity=".68"/><rect x="593" y="336" width="19" height="16" rx="2" fill="#e7dcc3" opacity=".82"/><rect x="615" y="336" width="19" height="16" rx="2" fill="#e7dcc3" opacity=".68"/><rect x="637" y="336" width="19" height="16" rx="2" fill="#e7dcc3" opacity=".82"/><rect x="659" y="336" width="19" height="16" rx="2" fill="#e7dcc3" opacity=".68"/><rect x="681" y="336" width="19" height="16" rx="2" fill="#e7dcc3" opacity=".82"/><rect x="263" y="355" width="19" height="16" rx="2" fill="#e7dcc3" opacity=".82"/><rect x="285" y="355" width="19" height="16" rx="2" fill="#e7dcc3" opacity=".68"/><rect x="307" y="355" width="19" height="16" rx="2" fill="#e7dcc3" opacity=".82"/><rect x="329" y="355" width="19" height="16" rx="2" fill="#e7dcc3" opacity=".68"/><rect x="351" y="355" width="19" height="16" rx="2" fill="#e7dcc3" opacity=".82"/><rect x="373" y="355" width="19" height="16" rx="2" fill="#e7dcc3" opacity=".68"/><rect x="395" y="355" width="19" height="16" rx="2" fill="#e7dcc3" opacity=".82"/><rect x="417" y="355" width="19" height="16" rx="2" fill="#e7dcc3" opacity=".68"/><rect x="439" y="355" width="19" height="16" rx="2" fill="#e7dcc3" opacity=".82"/><rect x="461" y="355" width="19" height="16" rx="2" fill="#e7dcc3" opacity=".68"/><rect x="483" y="355" width="19" height="16" rx="2" fill="#e7dcc3" opacity=".82"/><rect x="505" y="355" width="19" height="16" rx="2" fill="#e7dcc3" opacity=".68"/><rect x="527" y="355" width="19" height="16" rx="2" fill="#e7dcc3" opacity=".82"/><rect x="549" y="355" width="19" height="16" rx="2" fill="#e7dcc3" opacity=".68"/><rect x="571" y="355" width="19" height="16" rx="2" fill="#e7dcc3" opacity=".82"/><rect x="593" y="355" width="19" height="16" rx="2" fill="#e7dcc3" opacity=".68"/><rect x="615" y="355" width="19" height="16" rx="2" fill="#e7dcc3" opacity=".82"/><rect x="637" y="355" width="19" height="16" rx="2" fill="#e7dcc3" opacity=".68"/><rect x="659" y="355" width="19" height="16" rx="2" fill="#e7dcc3" opacity=".82"/><rect x="681" y="355" width="19" height="16" rx="2" fill="#e7dcc3" opacity=".68"/><rect x="263" y="374" width="19" height="16" rx="2" fill="#e7dcc3" opacity=".68"/><rect x="285" y="374" width="19" height="16" rx="2" fill="#e7dcc3" opacity=".82"/><rect x="307" y="374" width="19" height="16" rx="2" fill="#e7dcc3" opacity=".68"/><rect x="329" y="374" width="19" height="16" rx="2" fill="#e7dcc3" opacity=".82"/><rect x="351" y="374" width="19" height="16" rx="2" fill="#e7dcc3" opacity=".68"/><rect x="373" y="374" width="19" height="16" rx="2" fill="#e7dcc3" opacity=".82"/><rect x="395" y="374" width="19" height="16" rx="2" fill="#e7dcc3" opacity=".68"/><rect x="417" y="374" width="19" height="16" rx="2" fill="#e7dcc3" opacity=".82"/><rect x="439" y="374" width="19" height="16" rx="2" fill="#e7dcc3" opacity=".68"/><rect x="461" y="374" width="19" height="16" rx="2" fill="#e7dcc3" opacity=".82"/><rect x="483" y="374" width="19" height="16" rx="2" fill="#e7dcc3" opacity=".68"/><rect x="505" y="374" width="19" height="16" rx="2" fill="#e7dcc3" opacity=".82"/><rect x="527" y="374" width="19" height="16" rx="2" fill="#e7dcc3" opacity=".68"/><rect x="549" y="374" width="19" height="16" rx="2" fill="#e7dcc3" opacity=".82"/><rect x="571" y="374" width="19" height="16" rx="2" fill="#e7dcc3" opacity=".68"/><rect x="593" y="374" width="19" height="16" rx="2" fill="#e7dcc3" opacity=".82"/><rect x="615" y="374" width="19" height="16" rx="2" fill="#e7dcc3" opacity=".68"/><rect x="637" y="374" width="19" height="16" rx="2" fill="#e7dcc3" opacity=".82"/><rect x="659" y="374" width="19" height="16" rx="2" fill="#e7dcc3" opacity=".68"/><rect x="681" y="374" width="19" height="16" rx="2" fill="#e7dcc3" opacity=".82"/><rect x="263" y="393" width="19" height="16" rx="2" fill="#e7dcc3" opacity=".82"/><rect x="285" y="393" width="19" height="16" rx="2" fill="#e7dcc3" opacity=".68"/><rect x="307" y="393" width="19" height="16" rx="2" fill="#e7dcc3" opacity=".82"/><rect x="329" y="393" width="19" height="16" rx="2" fill="#e7dcc3" opacity=".68"/><rect x="351" y="393" width="19" height="16" rx="2" fill="#e7dcc3" opacity=".82"/><rect x="373" y="393" width="19" height="16" rx="2" fill="#e7dcc3" opacity=".68"/><rect x="395" y="393" width="19" height="16" rx="2" fill="#e7dcc3" opacity=".82"/><rect x="417" y="393" width="19" height="16" rx="2" fill="#e7dcc3" opacity=".68"/><rect x="439" y="393" width="19" height="16" rx="2" fill="#e7dcc3" opacity=".82"/><rect x="461" y="393" width="19" height="16" rx="2" fill="#e7dcc3" opacity=".68"/><rect x="483" y="393" width="19" height="16" rx="2" fill="#e7dcc3" opacity=".82"/><rect x="505" y="393" width="19" height="16" rx="2" fill="#e7dcc3" opacity=".68"/><rect x="527" y="393" width="19" height="16" rx="2" fill="#e7dcc3" opacity=".82"/><rect x="549" y="393" width="19" height="16" rx="2" fill="#e7dcc3" opacity=".68"/><rect x="571" y="393" width="19" height="16" rx="2" fill="#e7dcc3" opacity=".82"/><rect x="593" y="393" width="19" height="16" rx="2" fill="#e7dcc3" opacity=".68"/><rect x="615" y="393" width="19" height="16" rx="2" fill="#e7dcc3" opacity=".82"/><rect x="637" y="393" width="19" height="16" rx="2" fill="#e7dcc3" opacity=".68"/><rect x="659" y="393" width="19" height="16" rx="2" fill="#e7dcc3" opacity=".82"/><rect x="681" y="393" width="19" height="16" rx="2" fill="#e7dcc3" opacity=".68"/><rect x="263" y="412" width="19" height="16" rx="2" fill="#e7dcc3" opacity=".68"/><rect x="285" y="412" width="19" height="16" rx="2" fill="#e7dcc3" opacity=".82"/><rect x="307" y="412" width="19" height="16" rx="2" fill="#e7dcc3" opacity=".68"/><rect x="329" y="412" width="19" height="16" rx="2" fill="#e7dcc3" opacity=".82"/><rect x="351" y="412" width="19" height="16" rx="2" fill="#e7dcc3" opacity=".68"/><rect x="373" y="412" width="19" height="16" rx="2" fill="#e7dcc3" opacity=".82"/><rect x="395" y="412" width="19" height="16" rx="2" fill="#e7dcc3" opacity=".68"/><rect x="417" y="412" width="19" height="16" rx="2" fill="#e7dcc3" opacity=".82"/><rect x="439" y="412" width="19" height="16" rx="2" fill="#e7dcc3" opacity=".68"/><rect x="461" y="412" width="19" height="16" rx="2" fill="#e7dcc3" opacity=".82"/><rect x="483" y="412" width="19" height="16" rx="2" fill="#e7dcc3" opacity=".68"/><rect x="505" y="412" width="19" height="16" rx="2" fill="#e7dcc3" opacity=".82"/><rect x="527" y="412" width="19" height="16" rx="2" fill="#e7dcc3" opacity=".68"/><rect x="549" y="412" width="19" height="16" rx="2" fill="#e7dcc3" opacity=".82"/><rect x="571" y="412" width="19" height="16" rx="2" fill="#e7dcc3" opacity=".68"/><rect x="593" y="412" width="19" height="16" rx="2" fill="#e7dcc3" opacity=".82"/><rect x="615" y="412" width="19" height="16" rx="2" fill="#e7dcc3" opacity=".68"/><rect x="637" y="412" width="19" height="16" rx="2" fill="#e7dcc3" opacity=".82"/><rect x="659" y="412" width="19" height="16" rx="2" fill="#e7dcc3" opacity=".68"/><rect x="681" y="412" width="19" height="16" rx="2" fill="#e7dcc3" opacity=".82"/><rect x="263" y="431" width="19" height="16" rx="2" fill="#e7dcc3" opacity=".82"/><rect x="285" y="431" width="19" height="16" rx="2" fill="#e7dcc3" opacity=".68"/><rect x="307" y="431" width="19" height="16" rx="2" fill="#e7dcc3" opacity=".82"/><rect x="329" y="431" width="19" height="16" rx="2" fill="#e7dcc3" opacity=".68"/><rect x="351" y="431" width="19" height="16" rx="2" fill="#e7dcc3" opacity=".82"/><rect x="373" y="431" width="19" height="16" rx="2" fill="#e7dcc3" opacity=".68"/><rect x="395" y="431" width="19" height="16" rx="2" fill="#e7dcc3" opacity=".82"/><rect x="417" y="431" width="19" height="16" rx="2" fill="#e7dcc3" opacity=".68"/><rect x="439" y="431" width="19" height="16" rx="2" fill="#e7dcc3" opacity=".82"/><rect x="461" y="431" width="19" height="16" rx="2" fill="#e7dcc3" opacity=".68"/><rect x="483" y="431" width="19" height="16" rx="2" fill="#e7dcc3" opacity=".82"/><rect x="505" y="431" width="19" height="16" rx="2" fill="#e7dcc3" opacity=".68"/><rect x="527" y="431" width="19" height="16" rx="2" fill="#e7dcc3" opacity=".82"/><rect x="549" y="431" width="19" height="16" rx="2" fill="#e7dcc3" opacity=".68"/><rect x="571" y="431" width="19" height="16" rx="2" fill="#e7dcc3" opacity=".82"/><rect x="593" y="431" width="19" height="16" rx="2" fill="#e7dcc3" opacity=".68"/><rect x="615" y="431" width="19" height="16" rx="2" fill="#e7dcc3" opacity=".82"/><rect x="637" y="431" width="19" height="16" rx="2" fill="#e7dcc3" opacity=".68"/><rect x="659" y="431" width="19" height="16" rx="2" fill="#e7dcc3" opacity=".82"/><rect x="681" y="431" width="19" height="16" rx="2" fill="#e7dcc3" opacity=".68"/></g>
    <path d="M300 118h66v19h-44v19h22v19h-66v-19h22z" fill="#2d73d6" stroke="#fff" stroke-opacity=".32" stroke-width="2" filter="url(#softShadow)"/><path d="M578 137h22v57h44v19h-66z" fill="#d84242" stroke="#fff" stroke-opacity=".32" stroke-width="2" filter="url(#softShadow)"/><path d="M440 270h88v19h-22v38h-22v-38h-44z" fill="#f0c33c" stroke="#fff" stroke-opacity=".32" stroke-width="2" filter="url(#softShadow)"/><path d="M630 308h22v19h44v19h-66zm22 38h22v19h-22z" fill="#2aa85f" stroke="#fff" stroke-opacity=".32" stroke-width="2" filter="url(#softShadow)"/>
  
</svg>
