<svg xmlns="http://www.w3.org/2000/svg" width="960" height="540" viewBox="0 0 960 540" role="img" aria-labelledby="blokus-title blokus-desc">
  <title id="blokus-title">blokus tabletop cover</title>
  <desc id="blokus-desc">A custom tabletop representative image focused on the physical board-game components.</desc>
  <defs>
    <linearGradient id="table" x1="0" y1="0" x2="1" y2="1">
      <stop offset="0" stop-color="#4e2f1c"/>
      <stop offset=".38" stop-color="#24140c"/>
      <stop offset="1" stop-color="#100906"/>
    </linearGradient>
    <linearGradient id="rail" x1="0" y1="0" x2="0" y2="1">
      <stop offset="0" stop-color="#795031"/>
      <stop offset=".5" stop-color="#4e2f1c"/>
      <stop offset="1" stop-color="#24140c"/>
    </linearGradient>
    <linearGradient id="felt" x1="0" y1="0" x2="1" y2="1">
      <stop offset="0" stop-color="#184232"/>
      <stop offset="1" stop-color="#0d241d"/>
    </linearGradient>
    <radialGradient id="spot" cx="50%" cy="42%" r="70%">
      <stop offset="0" stop-color="#2364aa" stop-opacity=".32"/>
      <stop offset=".64" stop-color="#2364aa" stop-opacity=".08"/>
      <stop offset="1" stop-color="#2364aa" stop-opacity="0"/>
    </radialGradient>
    <filter id="shadow" x="-30%" y="-30%" width="160%" height="160%">
      <feDropShadow dx="0" dy="14" stdDeviation="18" flood-color="#000" flood-opacity=".42"/>
    </filter>
    <filter id="chipShadow" x="-35%" y="-35%" width="170%" height="170%">
      <feDropShadow dx="0" dy="7" stdDeviation="7" flood-color="#000" flood-opacity=".32"/>
    </filter>
    <pattern id="woodgrain" width="90" height="46" patternUnits="userSpaceOnUse">
      <path d="M0 9c22-10 47 10 90 0M0 25c30 12 59-12 90 0M0 41c24-8 52 9 90 0" fill="none" stroke="#ffe2aa" stroke-opacity=".055" stroke-width="2"/>
    </pattern>
    <pattern id="feltthread" width="38" height="38" patternUnits="userSpaceOnUse" patternTransform="rotate(25)">
      <path d="M0 0h38" stroke="#fff" stroke-opacity=".045" stroke-width="2"/>
    </pattern>
  </defs>
  <rect width="960" height="540" rx="34" fill="url(#table)"/>
  <rect width="960" height="540" rx="34" fill="url(#woodgrain)"/>
  <rect x="42" y="34" width="876" height="472" rx="38" fill="url(#rail)" filter="url(#shadow)"/>
  <rect x="70" y="62" width="820" height="416" rx="28" fill="url(#felt)"/>
  <rect x="70" y="62" width="820" height="416" rx="28" fill="url(#feltthread)"/>
  <rect x="70" y="62" width="820" height="416" rx="28" fill="url(#spot)"/>
  <rect x="91" y="83" width="778" height="374" rx="20" fill="none" stroke="#ead0a0" stroke-opacity=".28" stroke-width="2"/>
  
    <rect x="240" y="48" width="480" height="420" rx="18" fill="#b8a98d" filter="url(#chipShadow)"/>
    <g><rect x="260" y="67" width="20" height="17" rx="2" fill="#ddd0b7"/><rect x="282" y="67" width="20" height="17" rx="2" fill="#eee5cf"/><rect x="304" y="67" width="20" height="17" rx="2" fill="#ddd0b7"/><rect x="326" y="67" width="20" height="17" rx="2" fill="#eee5cf"/><rect x="348" y="67" width="20" height="17" rx="2" fill="#ddd0b7"/><rect x="370" y="67" width="20" height="17" rx="2" fill="#eee5cf"/><rect x="392" y="67" width="20" height="17" rx="2" fill="#ddd0b7"/><rect x="414" y="67" width="20" height="17" rx="2" fill="#eee5cf"/><rect x="436" y="67" width="20" height="17" rx="2" fill="#ddd0b7"/><rect x="458" y="67" width="20" height="17" rx="2" fill="#eee5cf"/><rect x="480" y="67" width="20" height="17" rx="2" fill="#ddd0b7"/><rect x="502" y="67" width="20" height="17" rx="2" fill="#eee5cf"/><rect x="524" y="67" width="20" height="17" rx="2" fill="#ddd0b7"/><rect x="546" y="67" width="20" height="17" rx="2" fill="#eee5cf"/><rect x="568" y="67" width="20" height="17" rx="2" fill="#ddd0b7"/><rect x="590" y="67" width="20" height="17" rx="2" fill="#eee5cf"/><rect x="612" y="67" width="20" height="17" rx="2" fill="#ddd0b7"/><rect x="634" y="67" width="20" height="17" rx="2" fill="#eee5cf"/><rect x="656" y="67" width="20" height="17" rx="2" fill="#ddd0b7"/><rect x="678" y="67" width="20" height="17" rx="2" fill="#eee5cf"/><rect x="260" y="86" width="20" height="17" rx="2" fill="#eee5cf"/><rect x="282" y="86" width="20" height="17" rx="2" fill="#ddd0b7"/><rect x="304" y="86" width="20" height="17" rx="2" fill="#eee5cf"/><rect x="326" y="86" width="20" height="17" rx="2" fill="#ddd0b7"/><rect x="348" y="86" width="20" height="17" rx="2" fill="#eee5cf"/><rect x="370" y="86" width="20" height="17" rx="2" fill="#ddd0b7"/><rect x="392" y="86" width="20" height="17" rx="2" fill="#eee5cf"/><rect x="414" y="86" width="20" height="17" rx="2" fill="#ddd0b7"/><rect x="436" y="86" width="20" height="17" rx="2" fill="#eee5cf"/><rect x="458" y="86" width="20" height="17" rx="2" fill="#ddd0b7"/><rect x="480" y="86" width="20" height="17" rx="2" fill="#eee5cf"/><rect x="502" y="86" width="20" height="17" rx="2" fill="#ddd0b7"/><rect x="524" y="86" width="20" height="17" rx="2" fill="#eee5cf"/><rect x="546" y="86" width="20" height="17" rx="2" fill="#ddd0b7"/><rect x="568" y="86" width="20" height="17" rx="2" fill="#eee5cf"/><rect x="590" y="86" width="20" height="17" rx="2" fill="#ddd0b7"/><rect x="612" y="86" width="20" height="17" rx="2" fill="#eee5cf"/><rect x="634" y="86" width="20" height="17" rx="2" fill="#ddd0b7"/><rect x="656" y="86" width="20" height="17" rx="2" fill="#eee5cf"/><rect x="678" y="86" width="20" height="17" rx="2" fill="#ddd0b7"/><rect x="260" y="105" width="20" height="17" rx="2" fill="#ddd0b7"/><rect x="282" y="105" width="20" height="17" rx="2" fill="#eee5cf"/><rect x="304" y="105" width="20" height="17" rx="2" fill="#ddd0b7"/><rect x="326" y="105" width="20" height="17" rx="2" fill="#eee5cf"/><rect x="348" y="105" width="20" height="17" rx="2" fill="#ddd0b7"/><rect x="370" y="105" width="20" height="17" rx="2" fill="#eee5cf"/><rect x="392" y="105" width="20" height="17" rx="2" fill="#ddd0b7"/><rect x="414" y="105" width="20" height="17" rx="2" fill="#eee5cf"/><rect x="436" y="105" width="20" height="17" rx="2" fill="#ddd0b7"/><rect x="458" y="105" width="20" height="17" rx="2" fill="#eee5cf"/><rect x="480" y="105" width="20" height="17" rx="2" fill="#ddd0b7"/><rect x="502" y="105" width="20" height="17" rx="2" fill="#eee5cf"/><rect x="524" y="105" width="20" height="17" rx="2" fill="#ddd0b7"/><rect x="546" y="105" width="20" height="17" rx="2" fill="#eee5cf"/><rect x="568" y="105" width="20" height="17" rx="2" fill="#ddd0b7"/><rect x="590" y="105" width="20" height="17" rx="2" fill="#eee5cf"/><rect x="612" y="105" width="20" height="17" rx="2" fill="#ddd0b7"/><rect x="634" y="105" width="20" height="17" rx="2" fill="#eee5cf"/><rect x="656" y="105" width="20" height="17" rx="2" fill="#ddd0b7"/><rect x="678" y="105" width="20" height="17" rx="2" fill="#eee5cf"/><rect x="260" y="124" width="20" height="17" rx="2" fill="#eee5cf"/><rect x="282" y="124" width="20" height="17" rx="2" fill="#ddd0b7"/><rect x="304" y="124" width="20" height="17" rx="2" fill="#eee5cf"/><rect x="326" y="124" width="20" height="17" rx="2" fill="#ddd0b7"/><rect x="348" y="124" width="20" height="17" rx="2" fill="#eee5cf"/><rect x="370" y="124" width="20" height="17" rx="2" fill="#ddd0b7"/><rect x="392" y="124" width="20" height="17" rx="2" fill="#eee5cf"/><rect x="414" y="124" width="20" height="17" rx="2" fill="#ddd0b7"/><rect x="436" y="124" width="20" height="17" rx="2" fill="#eee5cf"/><rect x="458" y="124" width="20" height="17" rx="2" fill="#ddd0b7"/><rect x="480" y="124" width="20" height="17" rx="2" fill="#eee5cf"/><rect x="502" y="124" width="20" height="17" rx="2" fill="#ddd0b7"/><rect x="524" y="124" width="20" height="17" rx="2" fill="#eee5cf"/><rect x="546" y="124" width="20" height="17" rx="2" fill="#ddd0b7"/><rect x="568" y="124" width="20" height="17" rx="2" fill="#eee5cf"/><rect x="590" y="124" width="20" height="17" rx="2" fill="#ddd0b7"/><rect x="612" y="124" width="20" height="17" rx="2" fill="#eee5cf"/><rect x="634" y="124" width="20" height="17" rx="2" fill="#ddd0b7"/><rect x="656" y="124" width="20" height="17" rx="2" fill="#eee5cf"/><rect x="678" y="124" width="20" height="17" rx="2" fill="#ddd0b7"/><rect x="260" y="143" width="20" height="17" rx="2" fill="#ddd0b7"/><rect x="282" y="143" width="20" height="17" rx="2" fill="#eee5cf"/><rect x="304" y="143" width="20" height="17" rx="2" fill="#ddd0b7"/><rect x="326" y="143" width="20" height="17" rx="2" fill="#eee5cf"/><rect x="348" y="143" width="20" height="17" rx="2" fill="#ddd0b7"/><rect x="370" y="143" width="20" height="17" rx="2" fill="#eee5cf"/><rect x="392" y="143" width="20" height="17" rx="2" fill="#ddd0b7"/><rect x="414" y="143" width="20" height="17" rx="2" fill="#eee5cf"/><rect x="436" y="143" width="20" height="17" rx="2" fill="#ddd0b7"/><rect x="458" y="143" width="20" height="17" rx="2" fill="#eee5cf"/><rect x="480" y="143" width="20" height="17" rx="2" fill="#ddd0b7"/><rect x="502" y="143" width="20" height="17" rx="2" fill="#eee5cf"/><rect x="524" y="143" width="20" height="17" rx="2" fill="#ddd0b7"/><rect x="546" y="143" width="20" height="17" rx="2" fill="#eee5cf"/><rect x="568" y="143" width="20" height="17" rx="2" fill="#ddd0b7"/><rect x="590" y="143" width="20" height="17" rx="2" fill="#eee5cf"/><rect x="612" y="143" width="20" height="17" rx="2" fill="#ddd0b7"/><rect x="634" y="143" width="20" height="17" rx="2" fill="#eee5cf"/><rect x="656" y="143" width="20" height="17" rx="2" fill="#ddd0b7"/><rect x="678" y="143" width="20" height="17" rx="2" fill="#eee5cf"/><rect x="260" y="162" width="20" height="17" rx="2" fill="#eee5cf"/><rect x="282" y="162" width="20" height="17" rx="2" fill="#ddd0b7"/><rect x="304" y="162" width="20" height="17" rx="2" fill="#eee5cf"/><rect x="326" y="162" width="20" height="17" rx="2" fill="#ddd0b7"/><rect x="348" y="162" width="20" height="17" rx="2" fill="#eee5cf"/><rect x="370" y="162" width="20" height="17" rx="2" fill="#ddd0b7"/><rect x="392" y="162" width="20" height="17" rx="2" fill="#eee5cf"/><rect x="414" y="162" width="20" height="17" rx="2" fill="#ddd0b7"/><rect x="436" y="162" width="20" height="17" rx="2" fill="#eee5cf"/><rect x="458" y="162" width="20" height="17" rx="2" fill="#ddd0b7"/><rect x="480" y="162" width="20" height="17" rx="2" fill="#eee5cf"/><rect x="502" y="162" width="20" height="17" rx="2" fill="#ddd0b7"/><rect x="524" y="162" width="20" height="17" rx="2" fill="#eee5cf"/><rect x="546" y="162" width="20" height="17" rx="2" fill="#ddd0b7"/><rect x="568" y="162" width="20" height="17" rx="2" fill="#eee5cf"/><rect x="590" y="162" width="20" height="17" rx="2" fill="#ddd0b7"/><rect x="612" y="162" width="20" height="17" rx="2" fill="#eee5cf"/><rect x="634" y="162" width="20" height="17" rx="2" fill="#ddd0b7"/><rect x="656" y="162" width="20" height="17" rx="2" fill="#eee5cf"/><rect x="678" y="162" width="20" height="17" rx="2" fill="#ddd0b7"/><rect x="260" y="181" width="20" height="17" rx="2" fill="#ddd0b7"/><rect x="282" y="181" width="20" height="17" rx="2" fill="#eee5cf"/><rect x="304" y="181" width="20" height="17" rx="2" fill="#ddd0b7"/><rect x="326" y="181" width="20" height="17" rx="2" fill="#eee5cf"/><rect x="348" y="181" width="20" height="17" rx="2" fill="#ddd0b7"/><rect x="370" y="181" width="20" height="17" rx="2" fill="#eee5cf"/><rect x="392" y="181" width="20" height="17" rx="2" fill="#ddd0b7"/><rect x="414" y="181" width="20" height="17" rx="2" fill="#eee5cf"/><rect x="436" y="181" width="20" height="17" rx="2" fill="#ddd0b7"/><rect x="458" y="181" width="20" height="17" rx="2" fill="#eee5cf"/><rect x="480" y="181" width="20" height="17" rx="2" fill="#ddd0b7"/><rect x="502" y="181" width="20" height="17" rx="2" fill="#eee5cf"/><rect x="524" y="181" width="20" height="17" rx="2" fill="#ddd0b7"/><rect x="546" y="181" width="20" height="17" rx="2" fill="#eee5cf"/><rect x="568" y="181" width="20" height="17" rx="2" fill="#ddd0b7"/><rect x="590" y="181" width="20" height="17" rx="2" fill="#eee5cf"/><rect x="612" y="181" width="20" height="17" rx="2" fill="#ddd0b7"/><rect x="634" y="181" width="20" height="17" rx="2" fill="#eee5cf"/><rect x="656" y="181" width="20" height="17" rx="2" fill="#ddd0b7"/><rect x="678" y="181" width="20" height="17" rx="2" fill="#eee5cf"/><rect x="260" y="200" width="20" height="17" rx="2" fill="#eee5cf"/><rect x="282" y="200" width="20" height="17" rx="2" fill="#ddd0b7"/><rect x="304" y="200" width="20" height="17" rx="2" fill="#eee5cf"/><rect x="326" y="200" width="20" height="17" rx="2" fill="#ddd0b7"/><rect x="348" y="200" width="20" height="17" rx="2" fill="#eee5cf"/><rect x="370" y="200" width="20" height="17" rx="2" fill="#ddd0b7"/><rect x="392" y="200" width="20" height="17" rx="2" fill="#eee5cf"/><rect x="414" y="200" width="20" height="17" rx="2" fill="#ddd0b7"/><rect x="436" y="200" width="20" height="17" rx="2" fill="#eee5cf"/><rect x="458" y="200" width="20" height="17" rx="2" fill="#ddd0b7"/><rect x="480" y="200" width="20" height="17" rx="2" fill="#eee5cf"/><rect x="502" y="200" width="20" height="17" rx="2" fill="#ddd0b7"/><rect x="524" y="200" width="20" height="17" rx="2" fill="#eee5cf"/><rect x="546" y="200" width="20" height="17" rx="2" fill="#ddd0b7"/><rect x="568" y="200" width="20" height="17" rx="2" fill="#eee5cf"/><rect x="590" y="200" width="20" height="17" rx="2" fill="#ddd0b7"/><rect x="612" y="200" width="20" height="17" rx="2" fill="#eee5cf"/><rect x="634" y="200" width="20" height="17" rx="2" fill="#ddd0b7"/><rect x="656" y="200" width="20" height="17" rx="2" fill="#eee5cf"/><rect x="678" y="200" width="20" height="17" rx="2" fill="#ddd0b7"/><rect x="260" y="219" width="20" height="17" rx="2" fill="#ddd0b7"/><rect x="282" y="219" width="20" height="17" rx="2" fill="#eee5cf"/><rect x="304" y="219" width="20" height="17" rx="2" fill="#ddd0b7"/><rect x="326" y="219" width="20" height="17" rx="2" fill="#eee5cf"/><rect x="348" y="219" width="20" height="17" rx="2" fill="#ddd0b7"/><rect x="370" y="219" width="20" height="17" rx="2" fill="#eee5cf"/><rect x="392" y="219" width="20" height="17" rx="2" fill="#ddd0b7"/><rect x="414" y="219" width="20" height="17" rx="2" fill="#eee5cf"/><rect x="436" y="219" width="20" height="17" rx="2" fill="#ddd0b7"/><rect x="458" y="219" width="20" height="17" rx="2" fill="#eee5cf"/><rect x="480" y="219" width="20" height="17" rx="2" fill="#ddd0b7"/><rect x="502" y="219" width="20" height="17" rx="2" fill="#eee5cf"/><rect x="524" y="219" width="20" height="17" rx="2" fill="#ddd0b7"/><rect x="546" y="219" width="20" height="17" rx="2" fill="#eee5cf"/><rect x="568" y="219" width="20" height="17" rx="2" fill="#ddd0b7"/><rect x="590" y="219" width="20" height="17" rx="2" fill="#eee5cf"/><rect x="612" y="219" width="20" height="17" rx="2" fill="#ddd0b7"/><rect x="634" y="219" width="20" height="17" rx="2" fill="#eee5cf"/><rect x="656" y="219" width="20" height="17" rx="2" fill="#ddd0b7"/><rect x="678" y="219" width="20" height="17" rx="2" fill="#eee5cf"/><rect x="260" y="238" width="20" height="17" rx="2" fill="#eee5cf"/><rect x="282" y="238" width="20" height="17" rx="2" fill="#ddd0b7"/><rect x="304" y="238" width="20" height="17" rx="2" fill="#eee5cf"/><rect x="326" y="238" width="20" height="17" rx="2" fill="#ddd0b7"/><rect x="348" y="238" width="20" height="17" rx="2" fill="#eee5cf"/><rect x="370" y="238" width="20" height="17" rx="2" fill="#ddd0b7"/><rect x="392" y="238" width="20" height="17" rx="2" fill="#eee5cf"/><rect x="414" y="238" width="20" height="17" rx="2" fill="#ddd0b7"/><rect x="436" y="238" width="20" height="17" rx="2" fill="#eee5cf"/><rect x="458" y="238" width="20" height="17" rx="2" fill="#ddd0b7"/><rect x="480" y="238" width="20" height="17" rx="2" fill="#eee5cf"/><rect x="502" y="238" width="20" height="17" rx="2" fill="#ddd0b7"/><rect x="524" y="238" width="20" height="17" rx="2" fill="#eee5cf"/><rect x="546" y="238" width="20" height="17" rx="2" fill="#ddd0b7"/><rect x="568" y="238" width="20" height="17" rx="2" fill="#eee5cf"/><rect x="590" y="238" width="20" height="17" rx="2" fill="#ddd0b7"/><rect x="612" y="238" width="20" height="17" rx="2" fill="#eee5cf"/><rect x="634" y="238" width="20" height="17" rx="2" fill="#ddd0b7"/><rect x="656" y="238" width="20" height="17" rx="2" fill="#eee5cf"/><rect x="678" y="238" width="20" height="17" rx="2" fill="#ddd0b7"/><rect x="260" y="257" width="20" height="17" rx="2" fill="#ddd0b7"/><rect x="282" y="257" width="20" height="17" rx="2" fill="#eee5cf"/><rect x="304" y="257" width="20" height="17" rx="2" fill="#ddd0b7"/><rect x="326" y="257" width="20" height="17" rx="2" fill="#eee5cf"/><rect x="348" y="257" width="20" height="17" rx="2" fill="#ddd0b7"/><rect x="370" y="257" width="20" height="17" rx="2" fill="#eee5cf"/><rect x="392" y="257" width="20" height="17" rx="2" fill="#ddd0b7"/><rect x="414" y="257" width="20" height="17" rx="2" fill="#eee5cf"/><rect x="436" y="257" width="20" height="17" rx="2" fill="#ddd0b7"/><rect x="458" y="257" width="20" height="17" rx="2" fill="#eee5cf"/><rect x="480" y="257" width="20" height="17" rx="2" fill="#ddd0b7"/><rect x="502" y="257" width="20" height="17" rx="2" fill="#eee5cf"/><rect x="524" y="257" width="20" height="17" rx="2" fill="#ddd0b7"/><rect x="546" y="257" width="20" height="17" rx="2" fill="#eee5cf"/><rect x="568" y="257" width="20" height="17" rx="2" fill="#ddd0b7"/><rect x="590" y="257" width="20" height="17" rx="2" fill="#eee5cf"/><rect x="612" y="257" width="20" height="17" rx="2" fill="#ddd0b7"/><rect x="634" y="257" width="20" height="17" rx="2" fill="#eee5cf"/><rect x="656" y="257" width="20" height="17" rx="2" fill="#ddd0b7"/><rect x="678" y="257" width="20" height="17" rx="2" fill="#eee5cf"/><rect x="260" y="276" width="20" height="17" rx="2" fill="#eee5cf"/><rect x="282" y="276" width="20" height="17" rx="2" fill="#ddd0b7"/><rect x="304" y="276" width="20" height="17" rx="2" fill="#eee5cf"/><rect x="326" y="276" width="20" height="17" rx="2" fill="#ddd0b7"/><rect x="348" y="276" width="20" height="17" rx="2" fill="#eee5cf"/><rect x="370" y="276" width="20" height="17" rx="2" fill="#ddd0b7"/><rect x="392" y="276" width="20" height="17" rx="2" fill="#eee5cf"/><rect x="414" y="276" width="20" height="17" rx="2" fill="#ddd0b7"/><rect x="436" y="276" width="20" height="17" rx="2" fill="#eee5cf"/><rect x="458" y="276" width="20" height="17" rx="2" fill="#ddd0b7"/><rect x="480" y="276" width="20" height="17" rx="2" fill="#eee5cf"/><rect x="502" y="276" width="20" height="17" rx="2" fill="#ddd0b7"/><rect x="524" y="276" width="20" height="17" rx="2" fill="#eee5cf"/><rect x="546" y="276" width="20" height="17" rx="2" fill="#ddd0b7"/><rect x="568" y="276" width="20" height="17" rx="2" fill="#eee5cf"/><rect x="590" y="276" width="20" height="17" rx="2" fill="#ddd0b7"/><rect x="612" y="276" width="20" height="17" rx="2" fill="#eee5cf"/><rect x="634" y="276" width="20" height="17" rx="2" fill="#ddd0b7"/><rect x="656" y="276" width="20" height="17" rx="2" fill="#eee5cf"/><rect x="678" y="276" width="20" height="17" rx="2" fill="#ddd0b7"/><rect x="260" y="295" width="20" height="17" rx="2" fill="#ddd0b7"/><rect x="282" y="295" width="20" height="17" rx="2" fill="#eee5cf"/><rect x="304" y="295" width="20" height="17" rx="2" fill="#ddd0b7"/><rect x="326" y="295" width="20" height="17" rx="2" fill="#eee5cf"/><rect x="348" y="295" width="20" height="17" rx="2" fill="#ddd0b7"/><rect x="370" y="295" width="20" height="17" rx="2" fill="#eee5cf"/><rect x="392" y="295" width="20" height="17" rx="2" fill="#ddd0b7"/><rect x="414" y="295" width="20" height="17" rx="2" fill="#eee5cf"/><rect x="436" y="295" width="20" height="17" rx="2" fill="#ddd0b7"/><rect x="458" y="295" width="20" height="17" rx="2" fill="#eee5cf"/><rect x="480" y="295" width="20" height="17" rx="2" fill="#ddd0b7"/><rect x="502" y="295" width="20" height="17" rx="2" fill="#eee5cf"/><rect x="524" y="295" width="20" height="17" rx="2" fill="#ddd0b7"/><rect x="546" y="295" width="20" height="17" rx="2" fill="#eee5cf"/><rect x="568" y="295" width="20" height="17" rx="2" fill="#ddd0b7"/><rect x="590" y="295" width="20" height="17" rx="2" fill="#eee5cf"/><rect x="612" y="295" width="20" height="17" rx="2" fill="#ddd0b7"/><rect x="634" y="295" width="20" height="17" rx="2" fill="#eee5cf"/><rect x="656" y="295" width="20" height="17" rx="2" fill="#ddd0b7"/><rect x="678" y="295" width="20" height="17" rx="2" fill="#eee5cf"/><rect x="260" y="314" width="20" height="17" rx="2" fill="#eee5cf"/><rect x="282" y="314" width="20" height="17" rx="2" fill="#ddd0b7"/><rect x="304" y="314" width="20" height="17" rx="2" fill="#eee5cf"/><rect x="326" y="314" width="20" height="17" rx="2" fill="#ddd0b7"/><rect x="348" y="314" width="20" height="17" rx="2" fill="#eee5cf"/><rect x="370" y="314" width="20" height="17" rx="2" fill="#ddd0b7"/><rect x="392" y="314" width="20" height="17" rx="2" fill="#eee5cf"/><rect x="414" y="314" width="20" height="17" rx="2" fill="#ddd0b7"/><rect x="436" y="314" width="20" height="17" rx="2" fill="#eee5cf"/><rect x="458" y="314" width="20" height="17" rx="2" fill="#ddd0b7"/><rect x="480" y="314" width="20" height="17" rx="2" fill="#eee5cf"/><rect x="502" y="314" width="20" height="17" rx="2" fill="#ddd0b7"/><rect x="524" y="314" width="20" height="17" rx="2" fill="#eee5cf"/><rect x="546" y="314" width="20" height="17" rx="2" fill="#ddd0b7"/><rect x="568" y="314" width="20" height="17" rx="2" fill="#eee5cf"/><rect x="590" y="314" width="20" height="17" rx="2" fill="#ddd0b7"/><rect x="612" y="314" width="20" height="17" rx="2" fill="#eee5cf"/><rect x="634" y="314" width="20" height="17" rx="2" fill="#ddd0b7"/><rect x="656" y="314" width="20" height="17" rx="2" fill="#eee5cf"/><rect x="678" y="314" width="20" height="17" rx="2" fill="#ddd0b7"/><rect x="260" y="333" width="20" height="17" rx="2" fill="#ddd0b7"/><rect x="282" y="333" width="20" height="17" rx="2" fill="#eee5cf"/><rect x="304" y="333" width="20" height="17" rx="2" fill="#ddd0b7"/><rect x="326" y="333" width="20" height="17" rx="2" fill="#eee5cf"/><rect x="348" y="333" width="20" height="17" rx="2" fill="#ddd0b7"/><rect x="370" y="333" width="20" height="17" rx="2" fill="#eee5cf"/><rect x="392" y="333" width="20" height="17" rx="2" fill="#ddd0b7"/><rect x="414" y="333" width="20" height="17" rx="2" fill="#eee5cf"/><rect x="436" y="333" width="20" height="17" rx="2" fill="#ddd0b7"/><rect x="458" y="333" width="20" height="17" rx="2" fill="#eee5cf"/><rect x="480" y="333" width="20" height="17" rx="2" fill="#ddd0b7"/><rect x="502" y="333" width="20" height="17" rx="2" fill="#eee5cf"/><rect x="524" y="333" width="20" height="17" rx="2" fill="#ddd0b7"/><rect x="546" y="333" width="20" height="17" rx="2" fill="#eee5cf"/><rect x="568" y="333" width="20" height="17" rx="2" fill="#ddd0b7"/><rect x="590" y="333" width="20" height="17" rx="2" fill="#eee5cf"/><rect x="612" y="333" width="20" height="17" rx="2" fill="#ddd0b7"/><rect x="634" y="333" width="20" height="17" rx="2" fill="#eee5cf"/><rect x="656" y="333" width="20" height="17" rx="2" fill="#ddd0b7"/><rect x="678" y="333" width="20" height="17" rx="2" fill="#eee5cf"/><rect x="260" y="352" width="20" height="17" rx="2" fill="#eee5cf"/><rect x="282" y="352" width="20" height="17" rx="2" fill="#ddd0b7"/><rect x="304" y="352" width="20" height="17" rx="2" fill="#eee5cf"/><rect x="326" y="352" width="20" height="17" rx="2" fill="#ddd0b7"/><rect x="348" y="352" width="20" height="17" rx="2" fill="#eee5cf"/><rect x="370" y="352" width="20" height="17" rx="2" fill="#ddd0b7"/><rect x="392" y="352" width="20" height="17" rx="2" fill="#eee5cf"/><rect x="414" y="352" width="20" height="17" rx="2" fill="#ddd0b7"/><rect x="436" y="352" width="20" height="17" rx="2" fill="#eee5cf"/><rect x="458" y="352" width="20" height="17" rx="2" fill="#ddd0b7"/><rect x="480" y="352" width="20" height="17" rx="2" fill="#eee5cf"/><rect x="502" y="352" width="20" height="17" rx="2" fill="#ddd0b7"/><rect x="524" y="352" width="20" height="17" rx="2" fill="#eee5cf"/><rect x="546" y="352" width="20" height="17" rx="2" fill="#ddd0b7"/><rect x="568" y="352" width="20" height="17" rx="2" fill="#eee5cf"/><rect x="590" y="352" width="20" height="17" rx="2" fill="#ddd0b7"/><rect x="612" y="352" width="20" height="17" rx="2" fill="#eee5cf"/><rect x="634" y="352" width="20" height="17" rx="2" fill="#ddd0b7"/><rect x="656" y="352" width="20" height="17" rx="2" fill="#eee5cf"/><rect x="678" y="352" width="20" height="17" rx="2" fill="#ddd0b7"/><rect x="260" y="371" width="20" height="17" rx="2" fill="#ddd0b7"/><rect x="282" y="371" width="20" height="17" rx="2" fill="#eee5cf"/><rect x="304" y="371" width="20" height="17" rx="2" fill="#ddd0b7"/><rect x="326" y="371" width="20" height="17" rx="2" fill="#eee5cf"/><rect x="348" y="371" width="20" height="17" rx="2" fill="#ddd0b7"/><rect x="370" y="371" width="20" height="17" rx="2" fill="#eee5cf"/><rect x="392" y="371" width="20" height="17" rx="2" fill="#ddd0b7"/><rect x="414" y="371" width="20" height="17" rx="2" fill="#eee5cf"/><rect x="436" y="371" width="20" height="17" rx="2" fill="#ddd0b7"/><rect x="458" y="371" width="20" height="17" rx="2" fill="#eee5cf"/><rect x="480" y="371" width="20" height="17" rx="2" fill="#ddd0b7"/><rect x="502" y="371" width="20" height="17" rx="2" fill="#eee5cf"/><rect x="524" y="371" width="20" height="17" rx="2" fill="#ddd0b7"/><rect x="546" y="371" width="20" height="17" rx="2" fill="#eee5cf"/><rect x="568" y="371" width="20" height="17" rx="2" fill="#ddd0b7"/><rect x="590" y="371" width="20" height="17" rx="2" fill="#eee5cf"/><rect x="612" y="371" width="20" height="17" rx="2" fill="#ddd0b7"/><rect x="634" y="371" width="20" height="17" rx="2" fill="#eee5cf"/><rect x="656" y="371" width="20" height="17" rx="2" fill="#ddd0b7"/><rect x="678" y="371" width="20" height="17" rx="2" fill="#eee5cf"/><rect x="260" y="390" width="20" height="17" rx="2" fill="#eee5cf"/><rect x="282" y="390" width="20" height="17" rx="2" fill="#ddd0b7"/><rect x="304" y="390" width="20" height="17" rx="2" fill="#eee5cf"/><rect x="326" y="390" width="20" height="17" rx="2" fill="#ddd0b7"/><rect x="348" y="390" width="20" height="17" rx="2" fill="#eee5cf"/><rect x="370" y="390" width="20" height="17" rx="2" fill="#ddd0b7"/><rect x="392" y="390" width="20" height="17" rx="2" fill="#eee5cf"/><rect x="414" y="390" width="20" height="17" rx="2" fill="#ddd0b7"/><rect x="436" y="390" width="20" height="17" rx="2" fill="#eee5cf"/><rect x="458" y="390" width="20" height="17" rx="2" fill="#ddd0b7"/><rect x="480" y="390" width="20" height="17" rx="2" fill="#eee5cf"/><rect x="502" y="390" width="20" height="17" rx="2" fill="#ddd0b7"/><rect x="524" y="390" width="20" height="17" rx="2" fill="#eee5cf"/><rect x="546" y="390" width="20" height="17" rx="2" fill="#ddd0b7"/><rect x="568" y="390" width="20" height="17" rx="2" fill="#eee5cf"/><rect x="590" y="390" width="20" height="17" rx="2" fill="#ddd0b7"/><rect x="612" y="390" width="20" height="17" rx="2" fill="#eee5cf"/><rect x="634" y="390" width="20" height="17" rx="2" fill="#ddd0b7"/><rect x="656" y="390" width="20" height="17" rx="2" fill="#eee5cf"/><rect x="678" y="390" width="20" height="17" rx="2" fill="#ddd0b7"/><rect x="260" y="409" width="20" height="17" rx="2" fill="#ddd0b7"/><rect x="282" y="409" width="20" height="17" rx="2" fill="#eee5cf"/><rect x="304" y="409" width="20" height="17" rx="2" fill="#ddd0b7"/><rect x="326" y="409" width="20" height="17" rx="2" fill="#eee5cf"/><rect x="348" y="409" width="20" height="17" rx="2" fill="#ddd0b7"/><rect x="370" y="409" width="20" height="17" rx="2" fill="#eee5cf"/><rect x="392" y="409" width="20" height="17" rx="2" fill="#ddd0b7"/><rect x="414" y="409" width="20" height="17" rx="2" fill="#eee5cf"/><rect x="436" y="409" width="20" height="17" rx="2" fill="#ddd0b7"/><rect x="458" y="409" width="20" height="17" rx="2" fill="#eee5cf"/><rect x="480" y="409" width="20" height="17" rx="2" fill="#ddd0b7"/><rect x="502" y="409" width="20" height="17" rx="2" fill="#eee5cf"/><rect x="524" y="409" width="20" height="17" rx="2" fill="#ddd0b7"/><rect x="546" y="409" width="20" height="17" rx="2" fill="#eee5cf"/><rect x="568" y="409" width="20" height="17" rx="2" fill="#ddd0b7"/><rect x="590" y="409" width="20" height="17" rx="2" fill="#eee5cf"/><rect x="612" y="409" width="20" height="17" rx="2" fill="#ddd0b7"/><rect x="634" y="409" width="20" height="17" rx="2" fill="#eee5cf"/><rect x="656" y="409" width="20" height="17" rx="2" fill="#ddd0b7"/><rect x="678" y="409" width="20" height="17" rx="2" fill="#eee5cf"/><rect x="260" y="428" width="20" height="17" rx="2" fill="#eee5cf"/><rect x="282" y="428" width="20" height="17" rx="2" fill="#ddd0b7"/><rect x="304" y="428" width="20" height="17" rx="2" fill="#eee5cf"/><rect x="326" y="428" width="20" height="17" rx="2" fill="#ddd0b7"/><rect x="348" y="428" width="20" height="17" rx="2" fill="#eee5cf"/><rect x="370" y="428" width="20" height="17" rx="2" fill="#ddd0b7"/><rect x="392" y="428" width="20" height="17" rx="2" fill="#eee5cf"/><rect x="414" y="428" width="20" height="17" rx="2" fill="#ddd0b7"/><rect x="436" y="428" width="20" height="17" rx="2" fill="#eee5cf"/><rect x="458" y="428" width="20" height="17" rx="2" fill="#ddd0b7"/><rect x="480" y="428" width="20" height="17" rx="2" fill="#eee5cf"/><rect x="502" y="428" width="20" height="17" rx="2" fill="#ddd0b7"/><rect x="524" y="428" width="20" height="17" rx="2" fill="#eee5cf"/><rect x="546" y="428" width="20" height="17" rx="2" fill="#ddd0b7"/><rect x="568" y="428" width="20" height="17" rx="2" fill="#eee5cf"/><rect x="590" y="428" width="20" height="17" rx="2" fill="#ddd0b7"/><rect x="612" y="428" width="20" height="17" rx="2" fill="#eee5cf"/><rect x="634" y="428" width="20" height="17" rx="2" fill="#ddd0b7"/><rect x="656" y="428" width="20" height="17" rx="2" fill="#eee5cf"/><rect x="678" y="428" width="20" height="17" rx="2" fill="#ddd0b7"/></g>
    <g filter="url(#chipShadow)"><rect x="282" y="104" width="22" height="22" rx="3" fill="#2468c9" stroke="#fff" stroke-opacity=".3" stroke-width="2"/><rect x="304" y="104" width="22" height="22" rx="3" fill="#2468c9" stroke="#fff" stroke-opacity=".3" stroke-width="2"/><rect x="304" y="126" width="22" height="22" rx="3" fill="#2468c9" stroke="#fff" stroke-opacity=".3" stroke-width="2"/><rect x="304" y="148" width="22" height="22" rx="3" fill="#2468c9" stroke="#fff" stroke-opacity=".3" stroke-width="2"/><rect x="326" y="148" width="22" height="22" rx="3" fill="#2468c9" stroke="#fff" stroke-opacity=".3" stroke-width="2"/></g>
    <g filter="url(#chipShadow)"><rect x="536" y="124" width="22" height="22" rx="3" fill="#d84545" stroke="#fff" stroke-opacity=".3" stroke-width="2"/><rect x="536" y="146" width="22" height="22" rx="3" fill="#d84545" stroke="#fff" stroke-opacity=".3" stroke-width="2"/><rect x="536" y="168" width="22" height="22" rx="3" fill="#d84545" stroke="#fff" stroke-opacity=".3" stroke-width="2"/><rect x="558" y="168" width="22" height="22" rx="3" fill="#d84545" stroke="#fff" stroke-opacity=".3" stroke-width="2"/><rect x="580" y="168" width="22" height="22" rx="3" fill="#d84545" stroke="#fff" stroke-opacity=".3" stroke-width="2"/></g>
    <g filter="url(#chipShadow)"><rect x="414" y="268" width="22" height="22" rx="3" fill="#edbd36" stroke="#fff" stroke-opacity=".3" stroke-width="2"/><rect x="436" y="268" width="22" height="22" rx="3" fill="#edbd36" stroke="#fff" stroke-opacity=".3" stroke-width="2"/><rect x="458" y="268" width="22" height="22" rx="3" fill="#edbd36" stroke="#fff" stroke-opacity=".3" stroke-width="2"/><rect x="436" y="290" width="22" height="22" rx="3" fill="#edbd36" stroke="#fff" stroke-opacity=".3" stroke-width="2"/><rect x="436" y="312" width="22" height="22" rx="3" fill="#edbd36" stroke="#fff" stroke-opacity=".3" stroke-width="2"/></g>
    <g filter="url(#chipShadow)"><rect x="594" y="312" width="22" height="22" rx="3" fill="#249b57" stroke="#fff" stroke-opacity=".3" stroke-width="2"/><rect x="616" y="312" width="22" height="22" rx="3" fill="#249b57" stroke="#fff" stroke-opacity=".3" stroke-width="2"/><rect x="638" y="312" width="22" height="22" rx="3" fill="#249b57" stroke="#fff" stroke-opacity=".3" stroke-width="2"/><rect x="638" y="334" width="22" height="22" rx="3" fill="#249b57" stroke="#fff" stroke-opacity=".3" stroke-width="2"/><rect x="660" y="334" width="22" height="22" rx="3" fill="#249b57" stroke="#fff" stroke-opacity=".3" stroke-width="2"/></g>
    <g filter="url(#chipShadow)"><rect x="326" y="354" width="22" height="22" rx="3" fill="#7d4fd8" stroke="#fff" stroke-opacity=".3" stroke-width="2"/><rect x="326" y="376" width="22" height="22" rx="3" fill="#7d4fd8" stroke="#fff" stroke-opacity=".3" stroke-width="2"/><rect x="348" y="376" width="22" height="22" rx="3" fill="#7d4fd8" stroke="#fff" stroke-opacity=".3" stroke-width="2"/><rect x="370" y="376" width="22" height="22" rx="3" fill="#7d4fd8" stroke="#fff" stroke-opacity=".3" stroke-width="2"/></g>
  
</svg>
