<svg xmlns="http://www.w3.org/2000/svg" width="960" height="540" viewBox="0 0 960 540" role="img" aria-labelledby="davinci-code-plus-title davinci-code-plus-desc">
  <title id="davinci-code-plus-title">davinci-code-plus tabletop cover</title>
  <desc id="davinci-code-plus-desc">A custom tabletop representative image focused on the physical board-game components.</desc>
  <defs>
    <linearGradient id="table" x1="0" y1="0" x2="1" y2="1">
      <stop offset="0" stop-color="#4e2f1c"/>
      <stop offset=".38" stop-color="#24140c"/>
      <stop offset="1" stop-color="#100906"/>
    </linearGradient>
    <linearGradient id="rail" x1="0" y1="0" x2="0" y2="1">
      <stop offset="0" stop-color="#795031"/>
      <stop offset=".5" stop-color="#4e2f1c"/>
      <stop offset="1" stop-color="#24140c"/>
    </linearGradient>
    <linearGradient id="felt" x1="0" y1="0" x2="1" y2="1">
      <stop offset="0" stop-color="#0b5a42"/>
      <stop offset="1" stop-color="#073125"/>
    </linearGradient>
    <radialGradient id="spot" cx="50%" cy="42%" r="70%">
      <stop offset="0" stop-color="#d33f49" stop-opacity=".32"/>
      <stop offset=".64" stop-color="#d33f49" stop-opacity=".08"/>
      <stop offset="1" stop-color="#d33f49" stop-opacity="0"/>
    </radialGradient>
    <filter id="shadow" x="-30%" y="-30%" width="160%" height="160%">
      <feDropShadow dx="0" dy="14" stdDeviation="18" flood-color="#000" flood-opacity=".42"/>
    </filter>
    <filter id="chipShadow" x="-35%" y="-35%" width="170%" height="170%">
      <feDropShadow dx="0" dy="7" stdDeviation="7" flood-color="#000" flood-opacity=".32"/>
    </filter>
    <pattern id="woodgrain" width="90" height="46" patternUnits="userSpaceOnUse">
      <path d="M0 9c22-10 47 10 90 0M0 25c30 12 59-12 90 0M0 41c24-8 52 9 90 0" fill="none" stroke="#ffe2aa" stroke-opacity=".055" stroke-width="2"/>
    </pattern>
    <pattern id="feltthread" width="38" height="38" patternUnits="userSpaceOnUse" patternTransform="rotate(25)">
      <path d="M0 0h38" stroke="#fff" stroke-opacity=".045" stroke-width="2"/>
    </pattern>
  </defs>
  <rect width="960" height="540" rx="34" fill="url(#table)"/>
  <rect width="960" height="540" rx="34" fill="url(#woodgrain)"/>
  <rect x="42" y="34" width="876" height="472" rx="38" fill="url(#rail)" filter="url(#shadow)"/>
  <rect x="70" y="62" width="820" height="416" rx="28" fill="url(#felt)"/>
  <rect x="70" y="62" width="820" height="416" rx="28" fill="url(#feltthread)"/>
  <rect x="70" y="62" width="820" height="416" rx="28" fill="url(#spot)"/>
  <rect x="91" y="83" width="778" height="374" rx="20" fill="none" stroke="#ead0a0" stroke-opacity=".28" stroke-width="2"/>
  
    <rect x="210" y="324" width="540" height="58" rx="16" fill="#392315" stroke="#d7ad68" stroke-opacity=".55" filter="url(#chipShadow)"/>
    <g transform="translate(246 164) rotate(-10 34 73)" filter="url(#chipShadow)">
    <rect width="68" height="146" rx="14" fill="#111" stroke="#e3c17c" stroke-opacity=".45" stroke-width="2"/>
    <text x="34" y="90.52" text-anchor="middle" font-family="Georgia,serif" font-size="31.28" font-weight="800" fill="#f7ead0">?</text>
  </g><g transform="translate(326 138) rotate(-4 34 73)" filter="url(#chipShadow)">
    <rect width="68" height="146" rx="14" fill="#f2e7ce" stroke="#e3c17c" stroke-opacity=".45" stroke-width="2"/>
    <text x="34" y="90.52" text-anchor="middle" font-family="Georgia,serif" font-size="31.28" font-weight="800" fill="#18120d">2</text>
  </g><g transform="translate(406 160) rotate(3 34 73)" filter="url(#chipShadow)">
    <rect width="68" height="146" rx="14" fill="#111" stroke="#e3c17c" stroke-opacity=".45" stroke-width="2"/>
    <text x="34" y="90.52" text-anchor="middle" font-family="Georgia,serif" font-size="31.28" font-weight="800" fill="#f7ead0">5</text>
  </g><g transform="translate(486 132) rotate(8 34 73)" filter="url(#chipShadow)">
    <rect width="68" height="146" rx="14" fill="#f2e7ce" stroke="#e3c17c" stroke-opacity=".45" stroke-width="2"/>
    <text x="34" y="90.52" text-anchor="middle" font-family="Georgia,serif" font-size="31.28" font-weight="800" fill="#18120d">?</text>
  </g><g transform="translate(566 166) rotate(-5 34 73)" filter="url(#chipShadow)">
    <rect width="68" height="146" rx="14" fill="#111" stroke="#e3c17c" stroke-opacity=".45" stroke-width="2"/>
    <text x="34" y="90.52" text-anchor="middle" font-family="Georgia,serif" font-size="31.28" font-weight="800" fill="#f7ead0">8</text>
  </g><g transform="translate(646 140) rotate(6 34 73)" filter="url(#chipShadow)">
    <rect width="68" height="146" rx="14" fill="#f2e7ce" stroke="#e3c17c" stroke-opacity=".45" stroke-width="2"/>
    <text x="34" y="90.52" text-anchor="middle" font-family="Georgia,serif" font-size="31.28" font-weight="800" fill="#b4363f">★</text>
  </g>
    <rect x="304" y="392" width="352" height="24" rx="12" fill="#d33f49" opacity=".42"/>
    <g filter="url(#chipShadow)">
      <rect x="376" y="86" width="208" height="44" rx="13" fill="#1c1110" stroke="#e7bf78" stroke-opacity=".35"/>
      <circle cx="426" cy="108" r="11" fill="#f4e8cc" />
      <circle cx="480" cy="108" r="11" fill="#d33f49" />
      <circle cx="534" cy="108" r="11" fill="#090807" />
    </g>
  
</svg>
