<svg xmlns="http://www.w3.org/2000/svg" width="960" height="540" viewBox="0 0 960 540" role="img" aria-labelledby="ghosts-title ghosts-desc">
  <title id="ghosts-title">ghosts board game cover</title>
  <desc id="ghosts-desc">A handcrafted tabletop style representative image for the board game.</desc>
  <defs>
    <linearGradient id="table" x1="0" y1="0" x2="1" y2="1">
      <stop offset="0" stop-color="#321f13"/>
      <stop offset=".5" stop-color="#1f130c"/>
      <stop offset="1" stop-color="#0d0805"/>
    </linearGradient>
    <linearGradient id="rail" x1="0" y1="0" x2="0" y2="1">
      <stop offset="0" stop-color="#5b3922"/>
      <stop offset=".52" stop-color="#3d2516"/>
      <stop offset="1" stop-color="#25160d"/>
    </linearGradient>
    <linearGradient id="felt" x1="0" y1="0" x2="1" y2="1">
      <stop offset="0" stop-color="#0c4a37"/>
      <stop offset="1" stop-color="#06291f"/>
    </linearGradient>
    <radialGradient id="glow" cx="50%" cy="44%" r="62%">
      <stop offset="0" stop-color="#7d73ef" stop-opacity=".28"/>
      <stop offset="1" stop-color="#7d73ef" stop-opacity="0"/>
    </radialGradient>
    <filter id="shadow" x="-20%" y="-20%" width="140%" height="140%">
      <feDropShadow dx="0" dy="14" stdDeviation="16" flood-color="#000" flood-opacity=".42"/>
    </filter>
    <filter id="softShadow" x="-30%" y="-30%" width="160%" height="160%">
      <feDropShadow dx="0" dy="6" stdDeviation="8" flood-color="#000" flood-opacity=".3"/>
    </filter>
    <pattern id="grain" width="54" height="54" patternUnits="userSpaceOnUse">
      <path d="M0 12c18-9 34 9 54 0M0 31c18 7 33-7 54 0M0 48c20-8 34 8 54 0" fill="none" stroke="#ffe1a0" stroke-opacity=".055" stroke-width="2"/>
    </pattern>
    <pattern id="feltLines" width="42" height="42" patternUnits="userSpaceOnUse" patternTransform="rotate(22)">
      <path d="M0 0h42" stroke="#ffffff" stroke-opacity=".045" stroke-width="2"/>
    </pattern>
  </defs>
  <rect width="960" height="540" rx="36" fill="url(#table)"/>
  <rect width="960" height="540" rx="36" fill="url(#grain)"/>
  <rect x="48" y="42" width="864" height="456" rx="34" fill="url(#rail)" filter="url(#shadow)"/>
  <rect x="75" y="69" width="810" height="402" rx="26" fill="url(#felt)"/>
  <rect x="75" y="69" width="810" height="402" rx="26" fill="url(#feltLines)"/>
  <rect x="75" y="69" width="810" height="402" rx="26" fill="url(#glow)"/>
  <rect x="93" y="87" width="774" height="366" rx="20" fill="none" stroke="rgba(255,232,185,.32)" stroke-width="2"/>
  
    <g filter="url(#softShadow)"><rect x="322" y="106" width="44" height="38" rx="6" fill="#1f3254" stroke="#93a9d8" stroke-opacity=".18"/><rect x="375" y="106" width="44" height="38" rx="6" fill="#25406f" stroke="#93a9d8" stroke-opacity=".18"/><rect x="428" y="106" width="44" height="38" rx="6" fill="#1f3254" stroke="#93a9d8" stroke-opacity=".18"/><rect x="481" y="106" width="44" height="38" rx="6" fill="#25406f" stroke="#93a9d8" stroke-opacity=".18"/><rect x="534" y="106" width="44" height="38" rx="6" fill="#1f3254" stroke="#93a9d8" stroke-opacity=".18"/><rect x="587" y="106" width="44" height="38" rx="6" fill="#25406f" stroke="#93a9d8" stroke-opacity=".18"/><rect x="322" y="153" width="44" height="38" rx="6" fill="#25406f" stroke="#93a9d8" stroke-opacity=".18"/><rect x="375" y="153" width="44" height="38" rx="6" fill="#1f3254" stroke="#93a9d8" stroke-opacity=".18"/><rect x="428" y="153" width="44" height="38" rx="6" fill="#25406f" stroke="#93a9d8" stroke-opacity=".18"/><rect x="481" y="153" width="44" height="38" rx="6" fill="#1f3254" stroke="#93a9d8" stroke-opacity=".18"/><rect x="534" y="153" width="44" height="38" rx="6" fill="#25406f" stroke="#93a9d8" stroke-opacity=".18"/><rect x="587" y="153" width="44" height="38" rx="6" fill="#1f3254" stroke="#93a9d8" stroke-opacity=".18"/><rect x="322" y="200" width="44" height="38" rx="6" fill="#1f3254" stroke="#93a9d8" stroke-opacity=".18"/><rect x="375" y="200" width="44" height="38" rx="6" fill="#25406f" stroke="#93a9d8" stroke-opacity=".18"/><rect x="428" y="200" width="44" height="38" rx="6" fill="#1f3254" stroke="#93a9d8" stroke-opacity=".18"/><rect x="481" y="200" width="44" height="38" rx="6" fill="#25406f" stroke="#93a9d8" stroke-opacity=".18"/><rect x="534" y="200" width="44" height="38" rx="6" fill="#1f3254" stroke="#93a9d8" stroke-opacity=".18"/><rect x="587" y="200" width="44" height="38" rx="6" fill="#25406f" stroke="#93a9d8" stroke-opacity=".18"/><rect x="322" y="247" width="44" height="38" rx="6" fill="#25406f" stroke="#93a9d8" stroke-opacity=".18"/><rect x="375" y="247" width="44" height="38" rx="6" fill="#1f3254" stroke="#93a9d8" stroke-opacity=".18"/><rect x="428" y="247" width="44" height="38" rx="6" fill="#25406f" stroke="#93a9d8" stroke-opacity=".18"/><rect x="481" y="247" width="44" height="38" rx="6" fill="#1f3254" stroke="#93a9d8" stroke-opacity=".18"/><rect x="534" y="247" width="44" height="38" rx="6" fill="#25406f" stroke="#93a9d8" stroke-opacity=".18"/><rect x="587" y="247" width="44" height="38" rx="6" fill="#1f3254" stroke="#93a9d8" stroke-opacity=".18"/><rect x="322" y="294" width="44" height="38" rx="6" fill="#1f3254" stroke="#93a9d8" stroke-opacity=".18"/><rect x="375" y="294" width="44" height="38" rx="6" fill="#25406f" stroke="#93a9d8" stroke-opacity=".18"/><rect x="428" y="294" width="44" height="38" rx="6" fill="#1f3254" stroke="#93a9d8" stroke-opacity=".18"/><rect x="481" y="294" width="44" height="38" rx="6" fill="#25406f" stroke="#93a9d8" stroke-opacity=".18"/><rect x="534" y="294" width="44" height="38" rx="6" fill="#1f3254" stroke="#93a9d8" stroke-opacity=".18"/><rect x="587" y="294" width="44" height="38" rx="6" fill="#25406f" stroke="#93a9d8" stroke-opacity=".18"/><rect x="322" y="341" width="44" height="38" rx="6" fill="#25406f" stroke="#93a9d8" stroke-opacity=".18"/><rect x="375" y="341" width="44" height="38" rx="6" fill="#1f3254" stroke="#93a9d8" stroke-opacity=".18"/><rect x="428" y="341" width="44" height="38" rx="6" fill="#25406f" stroke="#93a9d8" stroke-opacity=".18"/><rect x="481" y="341" width="44" height="38" rx="6" fill="#1f3254" stroke="#93a9d8" stroke-opacity=".18"/><rect x="534" y="341" width="44" height="38" rx="6" fill="#25406f" stroke="#93a9d8" stroke-opacity=".18"/><rect x="587" y="341" width="44" height="38" rx="6" fill="#1f3254" stroke="#93a9d8" stroke-opacity=".18"/></g>
    <path d="M344 168v-38c0-20 15-34 34-34s34 14 34 34v38l-12-8-11 8-11-8-11 8-11-8z" fill="#e8edff" filter="url(#softShadow)"/><path d="M450 168v-38c0-20 15-34 34-34s34 14 34 34v38l-12-8-11 8-11-8-11 8-11-8z" fill="#e8edff" filter="url(#softShadow)"/><path d="M556 168v-38c0-20 15-34 34-34s34 14 34 34v38l-12-8-11 8-11-8-11 8-11-8z" fill="#e8edff" filter="url(#softShadow)"/><path d="M397 356v-38c0-20 15-34 34-34s34 14 34 34v38l-12-8-11 8-11-8-11 8-11-8z" fill="#6453d8" filter="url(#softShadow)"/><path d="M503 356v-38c0-20 15-34 34-34s34 14 34 34v38l-12-8-11 8-11-8-11 8-11-8z" fill="#6453d8" filter="url(#softShadow)"/><path d="M609 356v-38c0-20 15-34 34-34s34 14 34 34v38l-12-8-11 8-11-8-11 8-11-8z" fill="#6453d8" filter="url(#softShadow)"/>
    <path d="M248 107h70v70m394 0v-70h70m-70 325h70v-70m-464 70h-70v-70" fill="none" stroke="#f0e8ff" stroke-width="10" stroke-linecap="round" opacity=".6"/>
  
</svg>
