<svg xmlns="http://www.w3.org/2000/svg" width="960" height="540" viewBox="0 0 960 540" role="img" aria-labelledby="ghosts-title ghosts-desc">
  <title id="ghosts-title">ghosts tabletop cover</title>
  <desc id="ghosts-desc">A custom tabletop representative image focused on the physical board-game components.</desc>
  <defs>
    <linearGradient id="table" x1="0" y1="0" x2="1" y2="1">
      <stop offset="0" stop-color="#4e2f1c"/>
      <stop offset=".38" stop-color="#24140c"/>
      <stop offset="1" stop-color="#100906"/>
    </linearGradient>
    <linearGradient id="rail" x1="0" y1="0" x2="0" y2="1">
      <stop offset="0" stop-color="#795031"/>
      <stop offset=".5" stop-color="#4e2f1c"/>
      <stop offset="1" stop-color="#24140c"/>
    </linearGradient>
    <linearGradient id="felt" x1="0" y1="0" x2="1" y2="1">
      <stop offset="0" stop-color="#1f335a"/>
      <stop offset="1" stop-color="#101b34"/>
    </linearGradient>
    <radialGradient id="spot" cx="50%" cy="42%" r="70%">
      <stop offset="0" stop-color="#7662ef" stop-opacity=".32"/>
      <stop offset=".64" stop-color="#7662ef" stop-opacity=".08"/>
      <stop offset="1" stop-color="#7662ef" stop-opacity="0"/>
    </radialGradient>
    <filter id="shadow" x="-30%" y="-30%" width="160%" height="160%">
      <feDropShadow dx="0" dy="14" stdDeviation="18" flood-color="#000" flood-opacity=".42"/>
    </filter>
    <filter id="chipShadow" x="-35%" y="-35%" width="170%" height="170%">
      <feDropShadow dx="0" dy="7" stdDeviation="7" flood-color="#000" flood-opacity=".32"/>
    </filter>
    <pattern id="woodgrain" width="90" height="46" patternUnits="userSpaceOnUse">
      <path d="M0 9c22-10 47 10 90 0M0 25c30 12 59-12 90 0M0 41c24-8 52 9 90 0" fill="none" stroke="#ffe2aa" stroke-opacity=".055" stroke-width="2"/>
    </pattern>
    <pattern id="feltthread" width="38" height="38" patternUnits="userSpaceOnUse" patternTransform="rotate(25)">
      <path d="M0 0h38" stroke="#fff" stroke-opacity=".045" stroke-width="2"/>
    </pattern>
  </defs>
  <rect width="960" height="540" rx="34" fill="url(#table)"/>
  <rect width="960" height="540" rx="34" fill="url(#woodgrain)"/>
  <rect x="42" y="34" width="876" height="472" rx="38" fill="url(#rail)" filter="url(#shadow)"/>
  <rect x="70" y="62" width="820" height="416" rx="28" fill="url(#felt)"/>
  <rect x="70" y="62" width="820" height="416" rx="28" fill="url(#feltthread)"/>
  <rect x="70" y="62" width="820" height="416" rx="28" fill="url(#spot)"/>
  <rect x="91" y="83" width="778" height="374" rx="20" fill="none" stroke="#ead0a0" stroke-opacity=".28" stroke-width="2"/>
  
    <g filter="url(#chipShadow)"><rect x="309" y="99" width="48" height="42" rx="7" fill="#1c2f55" stroke="#d9e5ff" stroke-opacity=".13"/><rect x="366" y="99" width="48" height="42" rx="7" fill="#253d6c" stroke="#d9e5ff" stroke-opacity=".13"/><rect x="423" y="99" width="48" height="42" rx="7" fill="#1c2f55" stroke="#d9e5ff" stroke-opacity=".13"/><rect x="480" y="99" width="48" height="42" rx="7" fill="#253d6c" stroke="#d9e5ff" stroke-opacity=".13"/><rect x="537" y="99" width="48" height="42" rx="7" fill="#1c2f55" stroke="#d9e5ff" stroke-opacity=".13"/><rect x="594" y="99" width="48" height="42" rx="7" fill="#253d6c" stroke="#d9e5ff" stroke-opacity=".13"/><rect x="309" y="149" width="48" height="42" rx="7" fill="#253d6c" stroke="#d9e5ff" stroke-opacity=".13"/><rect x="366" y="149" width="48" height="42" rx="7" fill="#1c2f55" stroke="#d9e5ff" stroke-opacity=".13"/><rect x="423" y="149" width="48" height="42" rx="7" fill="#253d6c" stroke="#d9e5ff" stroke-opacity=".13"/><rect x="480" y="149" width="48" height="42" rx="7" fill="#1c2f55" stroke="#d9e5ff" stroke-opacity=".13"/><rect x="537" y="149" width="48" height="42" rx="7" fill="#253d6c" stroke="#d9e5ff" stroke-opacity=".13"/><rect x="594" y="149" width="48" height="42" rx="7" fill="#1c2f55" stroke="#d9e5ff" stroke-opacity=".13"/><rect x="309" y="199" width="48" height="42" rx="7" fill="#1c2f55" stroke="#d9e5ff" stroke-opacity=".13"/><rect x="366" y="199" width="48" height="42" rx="7" fill="#253d6c" stroke="#d9e5ff" stroke-opacity=".13"/><rect x="423" y="199" width="48" height="42" rx="7" fill="#1c2f55" stroke="#d9e5ff" stroke-opacity=".13"/><rect x="480" y="199" width="48" height="42" rx="7" fill="#253d6c" stroke="#d9e5ff" stroke-opacity=".13"/><rect x="537" y="199" width="48" height="42" rx="7" fill="#1c2f55" stroke="#d9e5ff" stroke-opacity=".13"/><rect x="594" y="199" width="48" height="42" rx="7" fill="#253d6c" stroke="#d9e5ff" stroke-opacity=".13"/><rect x="309" y="249" width="48" height="42" rx="7" fill="#253d6c" stroke="#d9e5ff" stroke-opacity=".13"/><rect x="366" y="249" width="48" height="42" rx="7" fill="#1c2f55" stroke="#d9e5ff" stroke-opacity=".13"/><rect x="423" y="249" width="48" height="42" rx="7" fill="#253d6c" stroke="#d9e5ff" stroke-opacity=".13"/><rect x="480" y="249" width="48" height="42" rx="7" fill="#1c2f55" stroke="#d9e5ff" stroke-opacity=".13"/><rect x="537" y="249" width="48" height="42" rx="7" fill="#253d6c" stroke="#d9e5ff" stroke-opacity=".13"/><rect x="594" y="249" width="48" height="42" rx="7" fill="#1c2f55" stroke="#d9e5ff" stroke-opacity=".13"/><rect x="309" y="299" width="48" height="42" rx="7" fill="#1c2f55" stroke="#d9e5ff" stroke-opacity=".13"/><rect x="366" y="299" width="48" height="42" rx="7" fill="#253d6c" stroke="#d9e5ff" stroke-opacity=".13"/><rect x="423" y="299" width="48" height="42" rx="7" fill="#1c2f55" stroke="#d9e5ff" stroke-opacity=".13"/><rect x="480" y="299" width="48" height="42" rx="7" fill="#253d6c" stroke="#d9e5ff" stroke-opacity=".13"/><rect x="537" y="299" width="48" height="42" rx="7" fill="#1c2f55" stroke="#d9e5ff" stroke-opacity=".13"/><rect x="594" y="299" width="48" height="42" rx="7" fill="#253d6c" stroke="#d9e5ff" stroke-opacity=".13"/><rect x="309" y="349" width="48" height="42" rx="7" fill="#253d6c" stroke="#d9e5ff" stroke-opacity=".13"/><rect x="366" y="349" width="48" height="42" rx="7" fill="#1c2f55" stroke="#d9e5ff" stroke-opacity=".13"/><rect x="423" y="349" width="48" height="42" rx="7" fill="#253d6c" stroke="#d9e5ff" stroke-opacity=".13"/><rect x="480" y="349" width="48" height="42" rx="7" fill="#1c2f55" stroke="#d9e5ff" stroke-opacity=".13"/><rect x="537" y="349" width="48" height="42" rx="7" fill="#253d6c" stroke="#d9e5ff" stroke-opacity=".13"/><rect x="594" y="349" width="48" height="42" rx="7" fill="#1c2f55" stroke="#d9e5ff" stroke-opacity=".13"/></g>
    <path d="M333 173v-46c0-23 17-39 39-39s39 16 39 39v46l-12-8-13 8-13-8-13 8-13-8z" fill="#edf2ff" filter="url(#chipShadow)"/><path d="M447 173v-46c0-23 17-39 39-39s39 16 39 39v46l-12-8-13 8-13-8-13 8-13-8z" fill="#edf2ff" filter="url(#chipShadow)"/><path d="M561 173v-46c0-23 17-39 39-39s39 16 39 39v46l-12-8-13 8-13-8-13 8-13-8z" fill="#edf2ff" filter="url(#chipShadow)"/><path d="M390 374v-46c0-23 17-39 39-39s39 16 39 39v46l-12-8-13 8-13-8-13 8-13-8z" fill="#7662ef" filter="url(#chipShadow)"/><path d="M504 374v-46c0-23 17-39 39-39s39 16 39 39v46l-12-8-13 8-13-8-13 8-13-8z" fill="#7662ef" filter="url(#chipShadow)"/><path d="M618 374v-46c0-23 17-39 39-39s39 16 39 39v46l-12-8-13 8-13-8-13 8-13-8z" fill="#7662ef" filter="url(#chipShadow)"/>
    <path d="M242 100h74v74m402-74h74v74m0 194v74h-74m-402 0h-74v-74" fill="none" stroke="#eff3ff" stroke-width="11" stroke-linecap="round" opacity=".6"/>
  
</svg>
