<svg xmlns="http://www.w3.org/2000/svg" width="960" height="540" viewBox="0 0 960 540" role="img" aria-labelledby="guryongtu-title guryongtu-desc">
  <title id="guryongtu-title">guryongtu board game cover</title>
  <desc id="guryongtu-desc">A handcrafted tabletop style representative image for the board game.</desc>
  <defs>
    <linearGradient id="table" x1="0" y1="0" x2="1" y2="1">
      <stop offset="0" stop-color="#321f13"/>
      <stop offset=".5" stop-color="#1f130c"/>
      <stop offset="1" stop-color="#0d0805"/>
    </linearGradient>
    <linearGradient id="rail" x1="0" y1="0" x2="0" y2="1">
      <stop offset="0" stop-color="#5b3922"/>
      <stop offset=".52" stop-color="#3d2516"/>
      <stop offset="1" stop-color="#25160d"/>
    </linearGradient>
    <linearGradient id="felt" x1="0" y1="0" x2="1" y2="1">
      <stop offset="0" stop-color="#0c4a37"/>
      <stop offset="1" stop-color="#06291f"/>
    </linearGradient>
    <radialGradient id="glow" cx="50%" cy="44%" r="62%">
      <stop offset="0" stop-color="#d4a64e" stop-opacity=".28"/>
      <stop offset="1" stop-color="#d4a64e" stop-opacity="0"/>
    </radialGradient>
    <filter id="shadow" x="-20%" y="-20%" width="140%" height="140%">
      <feDropShadow dx="0" dy="14" stdDeviation="16" flood-color="#000" flood-opacity=".42"/>
    </filter>
    <filter id="softShadow" x="-30%" y="-30%" width="160%" height="160%">
      <feDropShadow dx="0" dy="6" stdDeviation="8" flood-color="#000" flood-opacity=".3"/>
    </filter>
    <pattern id="grain" width="54" height="54" patternUnits="userSpaceOnUse">
      <path d="M0 12c18-9 34 9 54 0M0 31c18 7 33-7 54 0M0 48c20-8 34 8 54 0" fill="none" stroke="#ffe1a0" stroke-opacity=".055" stroke-width="2"/>
    </pattern>
    <pattern id="feltLines" width="42" height="42" patternUnits="userSpaceOnUse" patternTransform="rotate(22)">
      <path d="M0 0h42" stroke="#ffffff" stroke-opacity=".045" stroke-width="2"/>
    </pattern>
  </defs>
  <rect width="960" height="540" rx="36" fill="url(#table)"/>
  <rect width="960" height="540" rx="36" fill="url(#grain)"/>
  <rect x="48" y="42" width="864" height="456" rx="34" fill="url(#rail)" filter="url(#shadow)"/>
  <rect x="75" y="69" width="810" height="402" rx="26" fill="url(#felt)"/>
  <rect x="75" y="69" width="810" height="402" rx="26" fill="url(#feltLines)"/>
  <rect x="75" y="69" width="810" height="402" rx="26" fill="url(#glow)"/>
  <rect x="93" y="87" width="774" height="366" rx="20" fill="none" stroke="rgba(255,232,185,.32)" stroke-width="2"/>
  
    <path d="M186 154h588l-74 132H260z" fill="#111827" opacity=".72" stroke="#d6b16b" stroke-opacity=".55" stroke-width="3"/>
    <g filter="url(#softShadow)">
      <rect x="315" y="126" width="120" height="164" rx="18" fill="#eee0bf"/>
      <rect x="525" y="126" width="120" height="164" rx="18" fill="#eee0bf"/>
      <text x="375" y="228" text-anchor="middle" font-family="Georgia,serif" font-size="72" font-weight="800" fill="#111827">9</text>
      <text x="585" y="228" text-anchor="middle" font-family="Georgia,serif" font-size="72" font-weight="800" fill="#111827">1</text>
    </g>
    <path d="M465 185l28 34-28 34m30-68l28 34-28 34" fill="none" stroke="#d4a64e" stroke-width="12" stroke-linecap="round" stroke-linejoin="round"/>
    <g filter="url(#softShadow)"><rect x="173" y="352" width="52" height="78" rx="10" fill="#efe1bd" /><text x="199" y="401" text-anchor="middle" font-family="Georgia,serif" font-size="34" font-weight="700" fill="#302015">1</text></g><g filter="url(#softShadow)"><rect x="242" y="352" width="52" height="78" rx="10" fill="#efe1bd" /><text x="268" y="401" text-anchor="middle" font-family="Georgia,serif" font-size="34" font-weight="700" fill="#302015">2</text></g><g filter="url(#softShadow)"><rect x="311" y="352" width="52" height="78" rx="10" fill="#efe1bd" /><text x="337" y="401" text-anchor="middle" font-family="Georgia,serif" font-size="34" font-weight="700" fill="#302015">3</text></g><g filter="url(#softShadow)"><rect x="380" y="352" width="52" height="78" rx="10" fill="#efe1bd" /><text x="406" y="401" text-anchor="middle" font-family="Georgia,serif" font-size="34" font-weight="700" fill="#302015">4</text></g><g filter="url(#softShadow)"><rect x="449" y="352" width="52" height="78" rx="10" fill="#d4a64e" /><text x="475" y="401" text-anchor="middle" font-family="Georgia,serif" font-size="34" font-weight="700" fill="#28190d">5</text></g><g filter="url(#softShadow)"><rect x="518" y="352" width="52" height="78" rx="10" fill="#efe1bd" /><text x="544" y="401" text-anchor="middle" font-family="Georgia,serif" font-size="34" font-weight="700" fill="#302015">6</text></g><g filter="url(#softShadow)"><rect x="587" y="352" width="52" height="78" rx="10" fill="#efe1bd" /><text x="613" y="401" text-anchor="middle" font-family="Georgia,serif" font-size="34" font-weight="700" fill="#302015">7</text></g><g filter="url(#softShadow)"><rect x="656" y="352" width="52" height="78" rx="10" fill="#efe1bd" /><text x="682" y="401" text-anchor="middle" font-family="Georgia,serif" font-size="34" font-weight="700" fill="#302015">8</text></g><g filter="url(#softShadow)"><rect x="725" y="352" width="52" height="78" rx="10" fill="#efe1bd" /><text x="751" y="401" text-anchor="middle" font-family="Georgia,serif" font-size="34" font-weight="700" fill="#302015">9</text></g>
  
</svg>
