<svg xmlns="http://www.w3.org/2000/svg" width="960" height="540" viewBox="0 0 960 540" role="img" aria-labelledby="guryongtu-title guryongtu-desc">
  <title id="guryongtu-title">guryongtu tabletop cover</title>
  <desc id="guryongtu-desc">A custom tabletop representative image focused on the physical board-game components.</desc>
  <defs>
    <linearGradient id="table" x1="0" y1="0" x2="1" y2="1">
      <stop offset="0" stop-color="#4e2f1c"/>
      <stop offset=".38" stop-color="#24140c"/>
      <stop offset="1" stop-color="#100906"/>
    </linearGradient>
    <linearGradient id="rail" x1="0" y1="0" x2="0" y2="1">
      <stop offset="0" stop-color="#795031"/>
      <stop offset=".5" stop-color="#4e2f1c"/>
      <stop offset="1" stop-color="#24140c"/>
    </linearGradient>
    <linearGradient id="felt" x1="0" y1="0" x2="1" y2="1">
      <stop offset="0" stop-color="#0b5a42"/>
      <stop offset="1" stop-color="#073125"/>
    </linearGradient>
    <radialGradient id="spot" cx="50%" cy="42%" r="70%">
      <stop offset="0" stop-color="#d7a54d" stop-opacity=".32"/>
      <stop offset=".64" stop-color="#d7a54d" stop-opacity=".08"/>
      <stop offset="1" stop-color="#d7a54d" stop-opacity="0"/>
    </radialGradient>
    <filter id="shadow" x="-30%" y="-30%" width="160%" height="160%">
      <feDropShadow dx="0" dy="14" stdDeviation="18" flood-color="#000" flood-opacity=".42"/>
    </filter>
    <filter id="chipShadow" x="-35%" y="-35%" width="170%" height="170%">
      <feDropShadow dx="0" dy="7" stdDeviation="7" flood-color="#000" flood-opacity=".32"/>
    </filter>
    <pattern id="woodgrain" width="90" height="46" patternUnits="userSpaceOnUse">
      <path d="M0 9c22-10 47 10 90 0M0 25c30 12 59-12 90 0M0 41c24-8 52 9 90 0" fill="none" stroke="#ffe2aa" stroke-opacity=".055" stroke-width="2"/>
    </pattern>
    <pattern id="feltthread" width="38" height="38" patternUnits="userSpaceOnUse" patternTransform="rotate(25)">
      <path d="M0 0h38" stroke="#fff" stroke-opacity=".045" stroke-width="2"/>
    </pattern>
  </defs>
  <rect width="960" height="540" rx="34" fill="url(#table)"/>
  <rect width="960" height="540" rx="34" fill="url(#woodgrain)"/>
  <rect x="42" y="34" width="876" height="472" rx="38" fill="url(#rail)" filter="url(#shadow)"/>
  <rect x="70" y="62" width="820" height="416" rx="28" fill="url(#felt)"/>
  <rect x="70" y="62" width="820" height="416" rx="28" fill="url(#feltthread)"/>
  <rect x="70" y="62" width="820" height="416" rx="28" fill="url(#spot)"/>
  <rect x="91" y="83" width="778" height="374" rx="20" fill="none" stroke="#ead0a0" stroke-opacity=".28" stroke-width="2"/>
  
    <path d="M210 142h540l-56 154H266z" fill="#151316" stroke="#d4a761" stroke-opacity=".65" stroke-width="4" filter="url(#chipShadow)"/>
    <path d="M266 296h428" stroke="#f0c56e" stroke-opacity=".5" stroke-width="4"/>
    <g transform="translate(323 137) rotate(-7 58 78)" filter="url(#chipShadow)">
    <rect width="116" height="156" rx="14" fill="#f2dfb8" stroke="#e3c17c" stroke-opacity=".45" stroke-width="2"/>
    <text x="58" y="96.72" text-anchor="middle" font-family="Georgia,serif" font-size="53.36" font-weight="800" fill="#18130f">9</text>
  </g>
    <g transform="translate(522 137) rotate(8 58 78)" filter="url(#chipShadow)">
    <rect width="116" height="156" rx="14" fill="#f2dfb8" stroke="#e3c17c" stroke-opacity=".45" stroke-width="2"/>
    <text x="58" y="96.72" text-anchor="middle" font-family="Georgia,serif" font-size="53.36" font-weight="800" fill="#18130f">1</text>
  </g>
    <path d="M461 202h44m-22-22l22 22-22 22" fill="none" stroke="#d7a54d" stroke-width="12" stroke-linecap="round" stroke-linejoin="round"/>
    <g transform="translate(205 356) rotate(-4 24 35)" filter="url(#chipShadow)">
    <rect width="48" height="70" rx="14" fill="#d7a54d" stroke="#e3c17c" stroke-opacity=".45" stroke-width="2"/>
    <text x="24" y="43.4" text-anchor="middle" font-family="Georgia,serif" font-size="22.080000000000002" font-weight="800" fill="#24150a">1</text>
  </g><g transform="translate(267 356) rotate(0 24 35)" filter="url(#chipShadow)">
    <rect width="48" height="70" rx="14" fill="#efe2bf" stroke="#e3c17c" stroke-opacity=".45" stroke-width="2"/>
    <text x="24" y="43.4" text-anchor="middle" font-family="Georgia,serif" font-size="22.080000000000002" font-weight="800" fill="#342015">2</text>
  </g><g transform="translate(329 356) rotate(0 24 35)" filter="url(#chipShadow)">
    <rect width="48" height="70" rx="14" fill="#efe2bf" stroke="#e3c17c" stroke-opacity=".45" stroke-width="2"/>
    <text x="24" y="43.4" text-anchor="middle" font-family="Georgia,serif" font-size="22.080000000000002" font-weight="800" fill="#342015">3</text>
  </g><g transform="translate(391 356) rotate(0 24 35)" filter="url(#chipShadow)">
    <rect width="48" height="70" rx="14" fill="#efe2bf" stroke="#e3c17c" stroke-opacity=".45" stroke-width="2"/>
    <text x="24" y="43.4" text-anchor="middle" font-family="Georgia,serif" font-size="22.080000000000002" font-weight="800" fill="#342015">4</text>
  </g><g transform="translate(453 356) rotate(0 24 35)" filter="url(#chipShadow)">
    <rect width="48" height="70" rx="14" fill="#efe2bf" stroke="#e3c17c" stroke-opacity=".45" stroke-width="2"/>
    <text x="24" y="43.4" text-anchor="middle" font-family="Georgia,serif" font-size="22.080000000000002" font-weight="800" fill="#342015">5</text>
  </g><g transform="translate(515 356) rotate(0 24 35)" filter="url(#chipShadow)">
    <rect width="48" height="70" rx="14" fill="#efe2bf" stroke="#e3c17c" stroke-opacity=".45" stroke-width="2"/>
    <text x="24" y="43.4" text-anchor="middle" font-family="Georgia,serif" font-size="22.080000000000002" font-weight="800" fill="#342015">6</text>
  </g><g transform="translate(577 356) rotate(0 24 35)" filter="url(#chipShadow)">
    <rect width="48" height="70" rx="14" fill="#efe2bf" stroke="#e3c17c" stroke-opacity=".45" stroke-width="2"/>
    <text x="24" y="43.4" text-anchor="middle" font-family="Georgia,serif" font-size="22.080000000000002" font-weight="800" fill="#342015">7</text>
  </g><g transform="translate(639 356) rotate(0 24 35)" filter="url(#chipShadow)">
    <rect width="48" height="70" rx="14" fill="#efe2bf" stroke="#e3c17c" stroke-opacity=".45" stroke-width="2"/>
    <text x="24" y="43.4" text-anchor="middle" font-family="Georgia,serif" font-size="22.080000000000002" font-weight="800" fill="#342015">8</text>
  </g><g transform="translate(701 356) rotate(4 24 35)" filter="url(#chipShadow)">
    <rect width="48" height="70" rx="14" fill="#d7a54d" stroke="#e3c17c" stroke-opacity=".45" stroke-width="2"/>
    <text x="24" y="43.4" text-anchor="middle" font-family="Georgia,serif" font-size="22.080000000000002" font-weight="800" fill="#24150a">9</text>
  </g>
  
</svg>
