<svg xmlns="http://www.w3.org/2000/svg" width="960" height="540" viewBox="0 0 960 540" role="img" aria-labelledby="hangman-board-game-title hangman-board-game-desc">
  <title id="hangman-board-game-title">hangman-board-game board game cover</title>
  <desc id="hangman-board-game-desc">A handcrafted tabletop style representative image for the board game.</desc>
  <defs>
    <linearGradient id="table" x1="0" y1="0" x2="1" y2="1">
      <stop offset="0" stop-color="#321f13"/>
      <stop offset=".5" stop-color="#1f130c"/>
      <stop offset="1" stop-color="#0d0805"/>
    </linearGradient>
    <linearGradient id="rail" x1="0" y1="0" x2="0" y2="1">
      <stop offset="0" stop-color="#5b3922"/>
      <stop offset=".52" stop-color="#3d2516"/>
      <stop offset="1" stop-color="#25160d"/>
    </linearGradient>
    <linearGradient id="felt" x1="0" y1="0" x2="1" y2="1">
      <stop offset="0" stop-color="#0c4a37"/>
      <stop offset="1" stop-color="#06291f"/>
    </linearGradient>
    <radialGradient id="glow" cx="50%" cy="44%" r="62%">
      <stop offset="0" stop-color="#b74e59" stop-opacity=".28"/>
      <stop offset="1" stop-color="#b74e59" stop-opacity="0"/>
    </radialGradient>
    <filter id="shadow" x="-20%" y="-20%" width="140%" height="140%">
      <feDropShadow dx="0" dy="14" stdDeviation="16" flood-color="#000" flood-opacity=".42"/>
    </filter>
    <filter id="softShadow" x="-30%" y="-30%" width="160%" height="160%">
      <feDropShadow dx="0" dy="6" stdDeviation="8" flood-color="#000" flood-opacity=".3"/>
    </filter>
    <pattern id="grain" width="54" height="54" patternUnits="userSpaceOnUse">
      <path d="M0 12c18-9 34 9 54 0M0 31c18 7 33-7 54 0M0 48c20-8 34 8 54 0" fill="none" stroke="#ffe1a0" stroke-opacity=".055" stroke-width="2"/>
    </pattern>
    <pattern id="feltLines" width="42" height="42" patternUnits="userSpaceOnUse" patternTransform="rotate(22)">
      <path d="M0 0h42" stroke="#ffffff" stroke-opacity=".045" stroke-width="2"/>
    </pattern>
  </defs>
  <rect width="960" height="540" rx="36" fill="url(#table)"/>
  <rect width="960" height="540" rx="36" fill="url(#grain)"/>
  <rect x="48" y="42" width="864" height="456" rx="34" fill="url(#rail)" filter="url(#shadow)"/>
  <rect x="75" y="69" width="810" height="402" rx="26" fill="url(#felt)"/>
  <rect x="75" y="69" width="810" height="402" rx="26" fill="url(#feltLines)"/>
  <rect x="75" y="69" width="810" height="402" rx="26" fill="url(#glow)"/>
  <rect x="93" y="87" width="774" height="366" rx="20" fill="none" stroke="rgba(255,232,185,.32)" stroke-width="2"/>
  
    <rect x="238" y="122" width="484" height="260" rx="24" fill="#2c1a12" stroke="#ddb672" stroke-opacity=".48" filter="url(#softShadow)"/>
    <rect x="274" y="158" width="412" height="70" rx="12" fill="#eadfbd"/>
    <rect x="295" y="181" width="36" height="24" rx="5" fill="#1e1a16" opacity="1"/><rect x="348" y="181" width="36" height="24" rx="5" fill="#1e1a16" opacity="1"/><rect x="401" y="181" width="36" height="24" rx="5" fill="#1e1a16" opacity="1"/><rect x="454" y="181" width="36" height="24" rx="5" fill="#1e1a16" opacity="1"/><rect x="507" y="181" width="36" height="24" rx="5" fill="#c9ba96" opacity=".8"/><rect x="560" y="181" width="36" height="24" rx="5" fill="#c9ba96" opacity=".8"/><rect x="613" y="181" width="36" height="24" rx="5" fill="#c9ba96" opacity=".8"/>
    <g filter="url(#softShadow)"><g><rect x="304" y="282" width="45" height="45" rx="8" fill="#f0e4c8"/><text x="326" y="313" text-anchor="middle" font-family="Georgia,serif" font-size="25" font-weight="800" fill="#27170f">A</text></g><g><rect x="362" y="282" width="45" height="45" rx="8" fill="#f0e4c8"/><text x="384" y="313" text-anchor="middle" font-family="Georgia,serif" font-size="25" font-weight="800" fill="#27170f">E</text></g><g><rect x="420" y="282" width="45" height="45" rx="8" fill="#f0e4c8"/><text x="442" y="313" text-anchor="middle" font-family="Georgia,serif" font-size="25" font-weight="800" fill="#27170f">R</text></g><g><rect x="478" y="282" width="45" height="45" rx="8" fill="#f0e4c8"/><text x="500" y="313" text-anchor="middle" font-family="Georgia,serif" font-size="25" font-weight="800" fill="#27170f">T</text></g><g><rect x="536" y="282" width="45" height="45" rx="8" fill="#f0e4c8"/><text x="558" y="313" text-anchor="middle" font-family="Georgia,serif" font-size="25" font-weight="800" fill="#27170f">S</text></g><g><rect x="594" y="282" width="45" height="45" rx="8" fill="#f0e4c8"/><text x="616" y="313" text-anchor="middle" font-family="Georgia,serif" font-size="25" font-weight="800" fill="#27170f">O</text></g></g>
    <rect x="566" y="265" width="84" height="26" rx="13" fill="#b74e59"/>
    <rect x="566" y="304" width="130" height="20" rx="10" fill="#6d3437"/>
  
</svg>
