<svg xmlns="http://www.w3.org/2000/svg" width="960" height="540" viewBox="0 0 960 540" role="img" aria-labelledby="hangman-board-game-title hangman-board-game-desc">
  <title id="hangman-board-game-title">hangman-board-game tabletop cover</title>
  <desc id="hangman-board-game-desc">A custom tabletop representative image focused on the physical board-game components.</desc>
  <defs>
    <linearGradient id="table" x1="0" y1="0" x2="1" y2="1">
      <stop offset="0" stop-color="#4e2f1c"/>
      <stop offset=".38" stop-color="#24140c"/>
      <stop offset="1" stop-color="#100906"/>
    </linearGradient>
    <linearGradient id="rail" x1="0" y1="0" x2="0" y2="1">
      <stop offset="0" stop-color="#795031"/>
      <stop offset=".5" stop-color="#4e2f1c"/>
      <stop offset="1" stop-color="#24140c"/>
    </linearGradient>
    <linearGradient id="felt" x1="0" y1="0" x2="1" y2="1">
      <stop offset="0" stop-color="#0b5a42"/>
      <stop offset="1" stop-color="#073125"/>
    </linearGradient>
    <radialGradient id="spot" cx="50%" cy="42%" r="70%">
      <stop offset="0" stop-color="#b74e59" stop-opacity=".32"/>
      <stop offset=".64" stop-color="#b74e59" stop-opacity=".08"/>
      <stop offset="1" stop-color="#b74e59" stop-opacity="0"/>
    </radialGradient>
    <filter id="shadow" x="-30%" y="-30%" width="160%" height="160%">
      <feDropShadow dx="0" dy="14" stdDeviation="18" flood-color="#000" flood-opacity=".42"/>
    </filter>
    <filter id="chipShadow" x="-35%" y="-35%" width="170%" height="170%">
      <feDropShadow dx="0" dy="7" stdDeviation="7" flood-color="#000" flood-opacity=".32"/>
    </filter>
    <pattern id="woodgrain" width="90" height="46" patternUnits="userSpaceOnUse">
      <path d="M0 9c22-10 47 10 90 0M0 25c30 12 59-12 90 0M0 41c24-8 52 9 90 0" fill="none" stroke="#ffe2aa" stroke-opacity=".055" stroke-width="2"/>
    </pattern>
    <pattern id="feltthread" width="38" height="38" patternUnits="userSpaceOnUse" patternTransform="rotate(25)">
      <path d="M0 0h38" stroke="#fff" stroke-opacity=".045" stroke-width="2"/>
    </pattern>
  </defs>
  <rect width="960" height="540" rx="34" fill="url(#table)"/>
  <rect width="960" height="540" rx="34" fill="url(#woodgrain)"/>
  <rect x="42" y="34" width="876" height="472" rx="38" fill="url(#rail)" filter="url(#shadow)"/>
  <rect x="70" y="62" width="820" height="416" rx="28" fill="url(#felt)"/>
  <rect x="70" y="62" width="820" height="416" rx="28" fill="url(#feltthread)"/>
  <rect x="70" y="62" width="820" height="416" rx="28" fill="url(#spot)"/>
  <rect x="91" y="83" width="778" height="374" rx="20" fill="none" stroke="#ead0a0" stroke-opacity=".28" stroke-width="2"/>
  
    <rect x="232" y="112" width="496" height="288" rx="28" fill="#2d1b12" stroke="#ddb672" stroke-opacity=".52" filter="url(#chipShadow)"/>
    <rect x="270" y="152" width="420" height="78" rx="15" fill="#eadfbd" filter="url(#chipShadow)"/>
    <rect x="293" y="178" width="38" height="27" rx="6" fill="#21160f" opacity="1"/><rect x="347" y="178" width="38" height="27" rx="6" fill="#21160f" opacity="1"/><rect x="401" y="178" width="38" height="27" rx="6" fill="#21160f" opacity="1"/><rect x="455" y="178" width="38" height="27" rx="6" fill="#21160f" opacity="1"/><rect x="509" y="178" width="38" height="27" rx="6" fill="#cbbd98" opacity=".85"/><rect x="563" y="178" width="38" height="27" rx="6" fill="#cbbd98" opacity=".85"/><rect x="617" y="178" width="38" height="27" rx="6" fill="#cbbd98" opacity=".85"/>
    <g filter="url(#chipShadow)">
    <rect x="302" y="282" width="47" height="47" rx="9" fill="#f1e4c6"/>
    <text x="325" y="314" text-anchor="middle" font-family="Georgia,serif" font-size="26" font-weight="800" fill="#24150e">A</text>
  </g><g filter="url(#chipShadow)">
    <rect x="361" y="282" width="47" height="47" rx="9" fill="#f1e4c6"/>
    <text x="384" y="314" text-anchor="middle" font-family="Georgia,serif" font-size="26" font-weight="800" fill="#24150e">E</text>
  </g><g filter="url(#chipShadow)">
    <rect x="420" y="282" width="47" height="47" rx="9" fill="#f1e4c6"/>
    <text x="443" y="314" text-anchor="middle" font-family="Georgia,serif" font-size="26" font-weight="800" fill="#24150e">R</text>
  </g><g filter="url(#chipShadow)">
    <rect x="479" y="282" width="47" height="47" rx="9" fill="#f1e4c6"/>
    <text x="502" y="314" text-anchor="middle" font-family="Georgia,serif" font-size="26" font-weight="800" fill="#24150e">T</text>
  </g><g filter="url(#chipShadow)">
    <rect x="538" y="282" width="47" height="47" rx="9" fill="#f1e4c6"/>
    <text x="561" y="314" text-anchor="middle" font-family="Georgia,serif" font-size="26" font-weight="800" fill="#24150e">S</text>
  </g><g filter="url(#chipShadow)">
    <rect x="597" y="282" width="47" height="47" rx="9" fill="#f1e4c6"/>
    <text x="620" y="314" text-anchor="middle" font-family="Georgia,serif" font-size="26" font-weight="800" fill="#24150e">O</text>
  </g>
    <rect x="548" y="256" width="122" height="28" rx="14" fill="#b74e59"/>
    <rect x="548" y="302" width="148" height="20" rx="10" fill="#6b3338"/>
    <path d="M238 421h484" stroke="#e5bf75" stroke-opacity=".24" stroke-width="12" stroke-linecap="round"/>
  
</svg>
