<svg xmlns="http://www.w3.org/2000/svg" width="960" height="540" viewBox="0 0 960 540" role="img" aria-labelledby="omok-title omok-desc">
  <title id="omok-title">오목 대표 이미지</title>
  <desc id="omok-desc">목재 오목판 위에 흑백 돌이 5목을 향해 이어진 자체 제작 이미지.</desc>
  <defs>
    <linearGradient id="omok-table" x1="0" y1="0" x2="1" y2="1">
      <stop offset="0" stop-color="#4f301b"/>
      <stop offset=".45" stop-color="#201108"/>
      <stop offset="1" stop-color="#0d0704"/>
    </linearGradient>
    <linearGradient id="omok-board" x1="0" y1="0" x2="1" y2="1">
      <stop offset="0" stop-color="#e2b975"/>
      <stop offset=".55" stop-color="#bd7b39"/>
      <stop offset="1" stop-color="#7a421e"/>
    </linearGradient>
    <radialGradient id="omok-black" cx="35%" cy="25%" r="70%">
      <stop offset="0" stop-color="#70685d"/>
      <stop offset=".35" stop-color="#272420"/>
      <stop offset="1" stop-color="#050505"/>
    </radialGradient>
    <radialGradient id="omok-white" cx="35%" cy="25%" r="70%">
      <stop offset="0" stop-color="#ffffff"/>
      <stop offset=".5" stop-color="#eee4ce"/>
      <stop offset="1" stop-color="#bba981"/>
    </radialGradient>
    <filter id="omok-shadow" x="-25%" y="-25%" width="150%" height="150%">
      <feDropShadow dx="0" dy="16" stdDeviation="16" flood-color="#000" flood-opacity=".38"/>
    </filter>
    <pattern id="omok-grain" width="96" height="44" patternUnits="userSpaceOnUse">
      <path d="M0 10c27-12 53 12 96 0M0 27c30 10 60-10 96 0M0 41c22-8 56 9 96 0" fill="none" stroke="#ffe0a4" stroke-opacity=".09" stroke-width="2"/>
    </pattern>
  </defs>
  <rect width="960" height="540" rx="34" fill="url(#omok-table)"/>
  <rect width="960" height="540" rx="34" fill="url(#omok-grain)" opacity=".9"/>
  <rect x="178" y="48" width="604" height="444" rx="24" fill="#4c2b17" filter="url(#omok-shadow)"/>
  <rect x="204" y="74" width="552" height="392" rx="16" fill="url(#omok-board)"/>
  <rect x="204" y="74" width="552" height="392" rx="16" fill="url(#omok-grain)" opacity=".65"/>
  <g stroke="#4a2812" stroke-opacity=".62" stroke-width="3">
    <path d="M242 112H718M242 142H718M242 172H718M242 202H718M242 232H718M242 262H718M242 292H718M242 322H718M242 352H718M242 382H718M242 412H718"/>
    <path d="M242 112V412M276 112V412M310 112V412M344 112V412M378 112V412M412 112V412M446 112V412M480 112V412M514 112V412M548 112V412M582 112V412M616 112V412M650 112V412M684 112V412M718 112V412"/>
  </g>
  <g fill="#3a1d0d">
    <circle cx="344" cy="202" r="5"/>
    <circle cx="616" cy="202" r="5"/>
    <circle cx="480" cy="262" r="5"/>
    <circle cx="344" cy="322" r="5"/>
    <circle cx="616" cy="322" r="5"/>
  </g>
  <g filter="url(#omok-shadow)">
    <circle cx="378" cy="202" r="24" fill="url(#omok-black)"/>
    <circle cx="412" cy="232" r="24" fill="url(#omok-black)"/>
    <circle cx="446" cy="262" r="24" fill="url(#omok-black)"/>
    <circle cx="480" cy="292" r="24" fill="url(#omok-black)"/>
    <circle cx="514" cy="322" r="24" fill="url(#omok-black)"/>
    <circle cx="412" cy="292" r="24" fill="url(#omok-white)"/>
    <circle cx="446" cy="232" r="24" fill="url(#omok-white)"/>
    <circle cx="514" cy="262" r="24" fill="url(#omok-white)"/>
    <circle cx="548" cy="292" r="24" fill="url(#omok-white)"/>
    <circle cx="582" cy="322" r="24" fill="url(#omok-white)"/>
  </g>
  <path d="M372 196l150 132" fill="none" stroke="#f1d17b" stroke-width="9" stroke-linecap="round" opacity=".72"/>
  <text x="480" y="446" text-anchor="middle" font-family="Malgun Gothic, Pretendard, sans-serif" font-size="42" font-weight="900" fill="#f7e5bf">오목</text>
</svg>
