<svg xmlns="http://www.w3.org/2000/svg" width="960" height="540" viewBox="0 0 960 540" role="img" aria-labelledby="qawale-title qawale-desc">
  <title id="qawale-title">qawale board game cover</title>
  <desc id="qawale-desc">A handcrafted tabletop style representative image for the board game.</desc>
  <defs>
    <linearGradient id="table" x1="0" y1="0" x2="1" y2="1">
      <stop offset="0" stop-color="#321f13"/>
      <stop offset=".5" stop-color="#1f130c"/>
      <stop offset="1" stop-color="#0d0805"/>
    </linearGradient>
    <linearGradient id="rail" x1="0" y1="0" x2="0" y2="1">
      <stop offset="0" stop-color="#5b3922"/>
      <stop offset=".52" stop-color="#3d2516"/>
      <stop offset="1" stop-color="#25160d"/>
    </linearGradient>
    <linearGradient id="felt" x1="0" y1="0" x2="1" y2="1">
      <stop offset="0" stop-color="#0c4a37"/>
      <stop offset="1" stop-color="#06291f"/>
    </linearGradient>
    <radialGradient id="glow" cx="50%" cy="44%" r="62%">
      <stop offset="0" stop-color="#3c75a5" stop-opacity=".28"/>
      <stop offset="1" stop-color="#3c75a5" stop-opacity="0"/>
    </radialGradient>
    <filter id="shadow" x="-20%" y="-20%" width="140%" height="140%">
      <feDropShadow dx="0" dy="14" stdDeviation="16" flood-color="#000" flood-opacity=".42"/>
    </filter>
    <filter id="softShadow" x="-30%" y="-30%" width="160%" height="160%">
      <feDropShadow dx="0" dy="6" stdDeviation="8" flood-color="#000" flood-opacity=".3"/>
    </filter>
    <pattern id="grain" width="54" height="54" patternUnits="userSpaceOnUse">
      <path d="M0 12c18-9 34 9 54 0M0 31c18 7 33-7 54 0M0 48c20-8 34 8 54 0" fill="none" stroke="#ffe1a0" stroke-opacity=".055" stroke-width="2"/>
    </pattern>
    <pattern id="feltLines" width="42" height="42" patternUnits="userSpaceOnUse" patternTransform="rotate(22)">
      <path d="M0 0h42" stroke="#ffffff" stroke-opacity=".045" stroke-width="2"/>
    </pattern>
  </defs>
  <rect width="960" height="540" rx="36" fill="url(#table)"/>
  <rect width="960" height="540" rx="36" fill="url(#grain)"/>
  <rect x="48" y="42" width="864" height="456" rx="34" fill="url(#rail)" filter="url(#shadow)"/>
  <rect x="75" y="69" width="810" height="402" rx="26" fill="url(#felt)"/>
  <rect x="75" y="69" width="810" height="402" rx="26" fill="url(#feltLines)"/>
  <rect x="75" y="69" width="810" height="402" rx="26" fill="url(#glow)"/>
  <rect x="93" y="87" width="774" height="366" rx="20" fill="none" stroke="rgba(255,232,185,.32)" stroke-width="2"/>
  
    <g filter="url(#softShadow)"><rect x="330" y="107" width="60" height="50" rx="12" fill="#94724c" stroke="#e0c28e" stroke-opacity=".28"/><rect x="410" y="107" width="60" height="50" rx="12" fill="#94724c" stroke="#e0c28e" stroke-opacity=".28"/><rect x="490" y="107" width="60" height="50" rx="12" fill="#94724c" stroke="#e0c28e" stroke-opacity=".28"/><rect x="570" y="107" width="60" height="50" rx="12" fill="#94724c" stroke="#e0c28e" stroke-opacity=".28"/><rect x="330" y="176" width="60" height="50" rx="12" fill="#94724c" stroke="#e0c28e" stroke-opacity=".28"/><rect x="410" y="176" width="60" height="50" rx="12" fill="#94724c" stroke="#e0c28e" stroke-opacity=".28"/><rect x="490" y="176" width="60" height="50" rx="12" fill="#94724c" stroke="#e0c28e" stroke-opacity=".28"/><rect x="570" y="176" width="60" height="50" rx="12" fill="#94724c" stroke="#e0c28e" stroke-opacity=".28"/><rect x="330" y="245" width="60" height="50" rx="12" fill="#94724c" stroke="#e0c28e" stroke-opacity=".28"/><rect x="410" y="245" width="60" height="50" rx="12" fill="#94724c" stroke="#e0c28e" stroke-opacity=".28"/><rect x="490" y="245" width="60" height="50" rx="12" fill="#94724c" stroke="#e0c28e" stroke-opacity=".28"/><rect x="570" y="245" width="60" height="50" rx="12" fill="#94724c" stroke="#e0c28e" stroke-opacity=".28"/><rect x="330" y="314" width="60" height="50" rx="12" fill="#94724c" stroke="#e0c28e" stroke-opacity=".28"/><rect x="410" y="314" width="60" height="50" rx="12" fill="#94724c" stroke="#e0c28e" stroke-opacity=".28"/><rect x="490" y="314" width="60" height="50" rx="12" fill="#94724c" stroke="#e0c28e" stroke-opacity=".28"/><rect x="570" y="314" width="60" height="50" rx="12" fill="#94724c" stroke="#e0c28e" stroke-opacity=".28"/></g>
    <g filter="url(#softShadow)"><circle cx="330" cy="107" r="26" fill="#e7d9bd" /><circle cx="330" cy="97" r="26" fill="#e7d9bd" /></g><g filter="url(#softShadow)"><circle cx="650" cy="112" r="26" fill="#e7d9bd" /><circle cx="650" cy="97" r="26" fill="#e7d9bd" /></g><g filter="url(#softShadow)"><circle cx="410" cy="270" r="26" fill="#234b7c" /><circle cx="410" cy="260" r="26" fill="#234b7c" /></g><g filter="url(#softShadow)"><circle cx="490" cy="275" r="26" fill="#d8a447" /><circle cx="490" cy="260" r="26" fill="#d8a447" /></g><g filter="url(#softShadow)"><circle cx="570" cy="270" r="26" fill="#234b7c" /><circle cx="570" cy="260" r="26" fill="#234b7c" /></g><g filter="url(#softShadow)"><circle cx="330" cy="388" r="26" fill="#e7d9bd" /><circle cx="330" cy="373" r="26" fill="#e7d9bd" /></g><g filter="url(#softShadow)"><circle cx="650" cy="383" r="26" fill="#e7d9bd" /><circle cx="650" cy="373" r="26" fill="#e7d9bd" /></g>
    <path d="M410 270h160" stroke="#f4d27d" stroke-width="9" stroke-linecap="round"/>
  
</svg>
