<svg xmlns="http://www.w3.org/2000/svg" width="960" height="540" viewBox="0 0 960 540" role="img" aria-labelledby="qawale-title qawale-desc">
  <title id="qawale-title">qawale tabletop cover</title>
  <desc id="qawale-desc">A custom tabletop representative image focused on the physical board-game components.</desc>
  <defs>
    <linearGradient id="table" x1="0" y1="0" x2="1" y2="1">
      <stop offset="0" stop-color="#4e2f1c"/>
      <stop offset=".38" stop-color="#24140c"/>
      <stop offset="1" stop-color="#100906"/>
    </linearGradient>
    <linearGradient id="rail" x1="0" y1="0" x2="0" y2="1">
      <stop offset="0" stop-color="#795031"/>
      <stop offset=".5" stop-color="#4e2f1c"/>
      <stop offset="1" stop-color="#24140c"/>
    </linearGradient>
    <linearGradient id="felt" x1="0" y1="0" x2="1" y2="1">
      <stop offset="0" stop-color="#0b5a42"/>
      <stop offset="1" stop-color="#073125"/>
    </linearGradient>
    <radialGradient id="spot" cx="50%" cy="42%" r="70%">
      <stop offset="0" stop-color="#315c8c" stop-opacity=".32"/>
      <stop offset=".64" stop-color="#315c8c" stop-opacity=".08"/>
      <stop offset="1" stop-color="#315c8c" stop-opacity="0"/>
    </radialGradient>
    <filter id="shadow" x="-30%" y="-30%" width="160%" height="160%">
      <feDropShadow dx="0" dy="14" stdDeviation="18" flood-color="#000" flood-opacity=".42"/>
    </filter>
    <filter id="chipShadow" x="-35%" y="-35%" width="170%" height="170%">
      <feDropShadow dx="0" dy="7" stdDeviation="7" flood-color="#000" flood-opacity=".32"/>
    </filter>
    <pattern id="woodgrain" width="90" height="46" patternUnits="userSpaceOnUse">
      <path d="M0 9c22-10 47 10 90 0M0 25c30 12 59-12 90 0M0 41c24-8 52 9 90 0" fill="none" stroke="#ffe2aa" stroke-opacity=".055" stroke-width="2"/>
    </pattern>
    <pattern id="feltthread" width="38" height="38" patternUnits="userSpaceOnUse" patternTransform="rotate(25)">
      <path d="M0 0h38" stroke="#fff" stroke-opacity=".045" stroke-width="2"/>
    </pattern>
  </defs>
  <rect width="960" height="540" rx="34" fill="url(#table)"/>
  <rect width="960" height="540" rx="34" fill="url(#woodgrain)"/>
  <rect x="42" y="34" width="876" height="472" rx="38" fill="url(#rail)" filter="url(#shadow)"/>
  <rect x="70" y="62" width="820" height="416" rx="28" fill="url(#felt)"/>
  <rect x="70" y="62" width="820" height="416" rx="28" fill="url(#feltthread)"/>
  <rect x="70" y="62" width="820" height="416" rx="28" fill="url(#spot)"/>
  <rect x="91" y="83" width="778" height="374" rx="20" fill="none" stroke="#ead0a0" stroke-opacity=".28" stroke-width="2"/>
  
    <rect x="290" y="82" width="390" height="366" rx="28" fill="#6a482d" stroke="#e8c27e" stroke-opacity=".35" filter="url(#chipShadow)"/>
    <g filter="url(#chipShadow)">
        <rect x="330" y="114" width="72" height="56" rx="16" fill="#8b6844" stroke="#e4c487" stroke-opacity=".3"/>
        <ellipse cx="366" cy="142" rx="24" ry="15" fill="#5d4028" opacity=".45"/>
      </g><g filter="url(#chipShadow)">
        <rect x="429" y="114" width="72" height="56" rx="16" fill="#8b6844" stroke="#e4c487" stroke-opacity=".3"/>
        <ellipse cx="465" cy="142" rx="24" ry="15" fill="#5d4028" opacity=".45"/>
      </g><g filter="url(#chipShadow)">
        <rect x="528" y="114" width="72" height="56" rx="16" fill="#8b6844" stroke="#e4c487" stroke-opacity=".3"/>
        <ellipse cx="564" cy="142" rx="24" ry="15" fill="#5d4028" opacity=".45"/>
      </g><g filter="url(#chipShadow)">
        <rect x="627" y="114" width="72" height="56" rx="16" fill="#8b6844" stroke="#e4c487" stroke-opacity=".3"/>
        <ellipse cx="663" cy="142" rx="24" ry="15" fill="#5d4028" opacity=".45"/>
      </g><g filter="url(#chipShadow)">
        <rect x="330" y="191" width="72" height="56" rx="16" fill="#8b6844" stroke="#e4c487" stroke-opacity=".3"/>
        <ellipse cx="366" cy="219" rx="24" ry="15" fill="#5d4028" opacity=".45"/>
      </g><g filter="url(#chipShadow)">
        <rect x="429" y="191" width="72" height="56" rx="16" fill="#8b6844" stroke="#e4c487" stroke-opacity=".3"/>
        <ellipse cx="465" cy="219" rx="24" ry="15" fill="#5d4028" opacity=".45"/>
      </g><g filter="url(#chipShadow)">
        <rect x="528" y="191" width="72" height="56" rx="16" fill="#8b6844" stroke="#e4c487" stroke-opacity=".3"/>
        <ellipse cx="564" cy="219" rx="24" ry="15" fill="#5d4028" opacity=".45"/>
      </g><g filter="url(#chipShadow)">
        <rect x="627" y="191" width="72" height="56" rx="16" fill="#8b6844" stroke="#e4c487" stroke-opacity=".3"/>
        <ellipse cx="663" cy="219" rx="24" ry="15" fill="#5d4028" opacity=".45"/>
      </g><g filter="url(#chipShadow)">
        <rect x="330" y="268" width="72" height="56" rx="16" fill="#8b6844" stroke="#e4c487" stroke-opacity=".3"/>
        <ellipse cx="366" cy="296" rx="24" ry="15" fill="#5d4028" opacity=".45"/>
      </g><g filter="url(#chipShadow)">
        <rect x="429" y="268" width="72" height="56" rx="16" fill="#8b6844" stroke="#e4c487" stroke-opacity=".3"/>
        <ellipse cx="465" cy="296" rx="24" ry="15" fill="#5d4028" opacity=".45"/>
      </g><g filter="url(#chipShadow)">
        <rect x="528" y="268" width="72" height="56" rx="16" fill="#8b6844" stroke="#e4c487" stroke-opacity=".3"/>
        <ellipse cx="564" cy="296" rx="24" ry="15" fill="#5d4028" opacity=".45"/>
      </g><g filter="url(#chipShadow)">
        <rect x="627" y="268" width="72" height="56" rx="16" fill="#8b6844" stroke="#e4c487" stroke-opacity=".3"/>
        <ellipse cx="663" cy="296" rx="24" ry="15" fill="#5d4028" opacity=".45"/>
      </g><g filter="url(#chipShadow)">
        <rect x="330" y="345" width="72" height="56" rx="16" fill="#8b6844" stroke="#e4c487" stroke-opacity=".3"/>
        <ellipse cx="366" cy="373" rx="24" ry="15" fill="#5d4028" opacity=".45"/>
      </g><g filter="url(#chipShadow)">
        <rect x="429" y="345" width="72" height="56" rx="16" fill="#8b6844" stroke="#e4c487" stroke-opacity=".3"/>
        <ellipse cx="465" cy="373" rx="24" ry="15" fill="#5d4028" opacity=".45"/>
      </g><g filter="url(#chipShadow)">
        <rect x="528" y="345" width="72" height="56" rx="16" fill="#8b6844" stroke="#e4c487" stroke-opacity=".3"/>
        <ellipse cx="564" cy="373" rx="24" ry="15" fill="#5d4028" opacity=".45"/>
      </g><g filter="url(#chipShadow)">
        <rect x="627" y="345" width="72" height="56" rx="16" fill="#8b6844" stroke="#e4c487" stroke-opacity=".3"/>
        <ellipse cx="663" cy="373" rx="24" ry="15" fill="#5d4028" opacity=".45"/>
      </g>
    <g filter="url(#chipShadow)"><circle cx="366" cy="129" r="27" fill="#e8ddc0" /><circle cx="366" cy="113" r="27" fill="#e8ddc0" /><circle cx="366" cy="97" r="27" fill="#e8ddc0" /></g><g filter="url(#chipShadow)"><circle cx="663" cy="129" r="27" fill="#e8ddc0" /><circle cx="663" cy="113" r="27" fill="#e8ddc0" /><circle cx="663" cy="97" r="27" fill="#e8ddc0" /></g><g filter="url(#chipShadow)"><circle cx="366" cy="360" r="27" fill="#e8ddc0" /><circle cx="366" cy="344" r="27" fill="#e8ddc0" /><circle cx="366" cy="328" r="27" fill="#e8ddc0" /></g><g filter="url(#chipShadow)"><circle cx="663" cy="360" r="27" fill="#e8ddc0" /><circle cx="663" cy="344" r="27" fill="#e8ddc0" /><circle cx="663" cy="328" r="27" fill="#e8ddc0" /></g><g filter="url(#chipShadow)"><circle cx="465" cy="282" r="27" fill="#315c8c" /><circle cx="465" cy="266" r="27" fill="#315c8c" /></g><g filter="url(#chipShadow)"><circle cx="564" cy="282" r="27" fill="#d8a748" /><circle cx="564" cy="266" r="27" fill="#d8a748" /></g><g filter="url(#chipShadow)"><circle cx="564" cy="205" r="27" fill="#315c8c" /><circle cx="564" cy="189" r="27" fill="#315c8c" /></g><g filter="url(#chipShadow)"><circle cx="465" cy="359" r="27" fill="#d8a748" /><circle cx="465" cy="343" r="27" fill="#d8a748" /></g>
    <path d="M465 270h99m0-77v77m-99 77v-77" stroke="#f0cf7e" stroke-width="10" stroke-linecap="round" opacity=".75"/>
  
</svg>
