<svg xmlns="http://www.w3.org/2000/svg" width="960" height="540" viewBox="0 0 960 540" role="img" aria-labelledby="quoridor-title quoridor-desc">
  <title id="quoridor-title">quoridor tabletop cover</title>
  <desc id="quoridor-desc">A custom tabletop representative image focused on the physical board-game components.</desc>
  <defs>
    <linearGradient id="table" x1="0" y1="0" x2="1" y2="1">
      <stop offset="0" stop-color="#4e2f1c"/>
      <stop offset=".38" stop-color="#24140c"/>
      <stop offset="1" stop-color="#100906"/>
    </linearGradient>
    <linearGradient id="rail" x1="0" y1="0" x2="0" y2="1">
      <stop offset="0" stop-color="#795031"/>
      <stop offset=".5" stop-color="#4e2f1c"/>
      <stop offset="1" stop-color="#24140c"/>
    </linearGradient>
    <linearGradient id="felt" x1="0" y1="0" x2="1" y2="1">
      <stop offset="0" stop-color="#0b5a42"/>
      <stop offset="1" stop-color="#073125"/>
    </linearGradient>
    <radialGradient id="spot" cx="50%" cy="42%" r="70%">
      <stop offset="0" stop-color="#c5843a" stop-opacity=".32"/>
      <stop offset=".64" stop-color="#c5843a" stop-opacity=".08"/>
      <stop offset="1" stop-color="#c5843a" stop-opacity="0"/>
    </radialGradient>
    <filter id="shadow" x="-30%" y="-30%" width="160%" height="160%">
      <feDropShadow dx="0" dy="14" stdDeviation="18" flood-color="#000" flood-opacity=".42"/>
    </filter>
    <filter id="chipShadow" x="-35%" y="-35%" width="170%" height="170%">
      <feDropShadow dx="0" dy="7" stdDeviation="7" flood-color="#000" flood-opacity=".32"/>
    </filter>
    <pattern id="woodgrain" width="90" height="46" patternUnits="userSpaceOnUse">
      <path d="M0 9c22-10 47 10 90 0M0 25c30 12 59-12 90 0M0 41c24-8 52 9 90 0" fill="none" stroke="#ffe2aa" stroke-opacity=".055" stroke-width="2"/>
    </pattern>
    <pattern id="feltthread" width="38" height="38" patternUnits="userSpaceOnUse" patternTransform="rotate(25)">
      <path d="M0 0h38" stroke="#fff" stroke-opacity=".045" stroke-width="2"/>
    </pattern>
  </defs>
  <rect width="960" height="540" rx="34" fill="url(#table)"/>
  <rect width="960" height="540" rx="34" fill="url(#woodgrain)"/>
  <rect x="42" y="34" width="876" height="472" rx="38" fill="url(#rail)" filter="url(#shadow)"/>
  <rect x="70" y="62" width="820" height="416" rx="28" fill="url(#felt)"/>
  <rect x="70" y="62" width="820" height="416" rx="28" fill="url(#feltthread)"/>
  <rect x="70" y="62" width="820" height="416" rx="28" fill="url(#spot)"/>
  <rect x="91" y="83" width="778" height="374" rx="20" fill="none" stroke="#ead0a0" stroke-opacity=".28" stroke-width="2"/>
  
    <g filter="url(#chipShadow)"><rect x="286" y="90" width="37" height="31" rx="4" fill="#b9854b" stroke="#553119" stroke-width="2"/><rect x="331" y="90" width="37" height="31" rx="4" fill="#d3a463" stroke="#553119" stroke-width="2"/><rect x="376" y="90" width="37" height="31" rx="4" fill="#b9854b" stroke="#553119" stroke-width="2"/><rect x="421" y="90" width="37" height="31" rx="4" fill="#d3a463" stroke="#553119" stroke-width="2"/><rect x="466" y="90" width="37" height="31" rx="4" fill="#b9854b" stroke="#553119" stroke-width="2"/><rect x="511" y="90" width="37" height="31" rx="4" fill="#d3a463" stroke="#553119" stroke-width="2"/><rect x="556" y="90" width="37" height="31" rx="4" fill="#b9854b" stroke="#553119" stroke-width="2"/><rect x="601" y="90" width="37" height="31" rx="4" fill="#d3a463" stroke="#553119" stroke-width="2"/><rect x="646" y="90" width="37" height="31" rx="4" fill="#b9854b" stroke="#553119" stroke-width="2"/><rect x="286" y="128" width="37" height="31" rx="4" fill="#d3a463" stroke="#553119" stroke-width="2"/><rect x="331" y="128" width="37" height="31" rx="4" fill="#b9854b" stroke="#553119" stroke-width="2"/><rect x="376" y="128" width="37" height="31" rx="4" fill="#d3a463" stroke="#553119" stroke-width="2"/><rect x="421" y="128" width="37" height="31" rx="4" fill="#b9854b" stroke="#553119" stroke-width="2"/><rect x="466" y="128" width="37" height="31" rx="4" fill="#d3a463" stroke="#553119" stroke-width="2"/><rect x="511" y="128" width="37" height="31" rx="4" fill="#b9854b" stroke="#553119" stroke-width="2"/><rect x="556" y="128" width="37" height="31" rx="4" fill="#d3a463" stroke="#553119" stroke-width="2"/><rect x="601" y="128" width="37" height="31" rx="4" fill="#b9854b" stroke="#553119" stroke-width="2"/><rect x="646" y="128" width="37" height="31" rx="4" fill="#d3a463" stroke="#553119" stroke-width="2"/><rect x="286" y="166" width="37" height="31" rx="4" fill="#b9854b" stroke="#553119" stroke-width="2"/><rect x="331" y="166" width="37" height="31" rx="4" fill="#d3a463" stroke="#553119" stroke-width="2"/><rect x="376" y="166" width="37" height="31" rx="4" fill="#b9854b" stroke="#553119" stroke-width="2"/><rect x="421" y="166" width="37" height="31" rx="4" fill="#d3a463" stroke="#553119" stroke-width="2"/><rect x="466" y="166" width="37" height="31" rx="4" fill="#b9854b" stroke="#553119" stroke-width="2"/><rect x="511" y="166" width="37" height="31" rx="4" fill="#d3a463" stroke="#553119" stroke-width="2"/><rect x="556" y="166" width="37" height="31" rx="4" fill="#b9854b" stroke="#553119" stroke-width="2"/><rect x="601" y="166" width="37" height="31" rx="4" fill="#d3a463" stroke="#553119" stroke-width="2"/><rect x="646" y="166" width="37" height="31" rx="4" fill="#b9854b" stroke="#553119" stroke-width="2"/><rect x="286" y="204" width="37" height="31" rx="4" fill="#d3a463" stroke="#553119" stroke-width="2"/><rect x="331" y="204" width="37" height="31" rx="4" fill="#b9854b" stroke="#553119" stroke-width="2"/><rect x="376" y="204" width="37" height="31" rx="4" fill="#d3a463" stroke="#553119" stroke-width="2"/><rect x="421" y="204" width="37" height="31" rx="4" fill="#b9854b" stroke="#553119" stroke-width="2"/><rect x="466" y="204" width="37" height="31" rx="4" fill="#d3a463" stroke="#553119" stroke-width="2"/><rect x="511" y="204" width="37" height="31" rx="4" fill="#b9854b" stroke="#553119" stroke-width="2"/><rect x="556" y="204" width="37" height="31" rx="4" fill="#d3a463" stroke="#553119" stroke-width="2"/><rect x="601" y="204" width="37" height="31" rx="4" fill="#b9854b" stroke="#553119" stroke-width="2"/><rect x="646" y="204" width="37" height="31" rx="4" fill="#d3a463" stroke="#553119" stroke-width="2"/><rect x="286" y="242" width="37" height="31" rx="4" fill="#b9854b" stroke="#553119" stroke-width="2"/><rect x="331" y="242" width="37" height="31" rx="4" fill="#d3a463" stroke="#553119" stroke-width="2"/><rect x="376" y="242" width="37" height="31" rx="4" fill="#b9854b" stroke="#553119" stroke-width="2"/><rect x="421" y="242" width="37" height="31" rx="4" fill="#d3a463" stroke="#553119" stroke-width="2"/><rect x="466" y="242" width="37" height="31" rx="4" fill="#b9854b" stroke="#553119" stroke-width="2"/><rect x="511" y="242" width="37" height="31" rx="4" fill="#d3a463" stroke="#553119" stroke-width="2"/><rect x="556" y="242" width="37" height="31" rx="4" fill="#b9854b" stroke="#553119" stroke-width="2"/><rect x="601" y="242" width="37" height="31" rx="4" fill="#d3a463" stroke="#553119" stroke-width="2"/><rect x="646" y="242" width="37" height="31" rx="4" fill="#b9854b" stroke="#553119" stroke-width="2"/><rect x="286" y="280" width="37" height="31" rx="4" fill="#d3a463" stroke="#553119" stroke-width="2"/><rect x="331" y="280" width="37" height="31" rx="4" fill="#b9854b" stroke="#553119" stroke-width="2"/><rect x="376" y="280" width="37" height="31" rx="4" fill="#d3a463" stroke="#553119" stroke-width="2"/><rect x="421" y="280" width="37" height="31" rx="4" fill="#b9854b" stroke="#553119" stroke-width="2"/><rect x="466" y="280" width="37" height="31" rx="4" fill="#d3a463" stroke="#553119" stroke-width="2"/><rect x="511" y="280" width="37" height="31" rx="4" fill="#b9854b" stroke="#553119" stroke-width="2"/><rect x="556" y="280" width="37" height="31" rx="4" fill="#d3a463" stroke="#553119" stroke-width="2"/><rect x="601" y="280" width="37" height="31" rx="4" fill="#b9854b" stroke="#553119" stroke-width="2"/><rect x="646" y="280" width="37" height="31" rx="4" fill="#d3a463" stroke="#553119" stroke-width="2"/><rect x="286" y="318" width="37" height="31" rx="4" fill="#b9854b" stroke="#553119" stroke-width="2"/><rect x="331" y="318" width="37" height="31" rx="4" fill="#d3a463" stroke="#553119" stroke-width="2"/><rect x="376" y="318" width="37" height="31" rx="4" fill="#b9854b" stroke="#553119" stroke-width="2"/><rect x="421" y="318" width="37" height="31" rx="4" fill="#d3a463" stroke="#553119" stroke-width="2"/><rect x="466" y="318" width="37" height="31" rx="4" fill="#b9854b" stroke="#553119" stroke-width="2"/><rect x="511" y="318" width="37" height="31" rx="4" fill="#d3a463" stroke="#553119" stroke-width="2"/><rect x="556" y="318" width="37" height="31" rx="4" fill="#b9854b" stroke="#553119" stroke-width="2"/><rect x="601" y="318" width="37" height="31" rx="4" fill="#d3a463" stroke="#553119" stroke-width="2"/><rect x="646" y="318" width="37" height="31" rx="4" fill="#b9854b" stroke="#553119" stroke-width="2"/><rect x="286" y="356" width="37" height="31" rx="4" fill="#d3a463" stroke="#553119" stroke-width="2"/><rect x="331" y="356" width="37" height="31" rx="4" fill="#b9854b" stroke="#553119" stroke-width="2"/><rect x="376" y="356" width="37" height="31" rx="4" fill="#d3a463" stroke="#553119" stroke-width="2"/><rect x="421" y="356" width="37" height="31" rx="4" fill="#b9854b" stroke="#553119" stroke-width="2"/><rect x="466" y="356" width="37" height="31" rx="4" fill="#d3a463" stroke="#553119" stroke-width="2"/><rect x="511" y="356" width="37" height="31" rx="4" fill="#b9854b" stroke="#553119" stroke-width="2"/><rect x="556" y="356" width="37" height="31" rx="4" fill="#d3a463" stroke="#553119" stroke-width="2"/><rect x="601" y="356" width="37" height="31" rx="4" fill="#b9854b" stroke="#553119" stroke-width="2"/><rect x="646" y="356" width="37" height="31" rx="4" fill="#d3a463" stroke="#553119" stroke-width="2"/><rect x="286" y="394" width="37" height="31" rx="4" fill="#b9854b" stroke="#553119" stroke-width="2"/><rect x="331" y="394" width="37" height="31" rx="4" fill="#d3a463" stroke="#553119" stroke-width="2"/><rect x="376" y="394" width="37" height="31" rx="4" fill="#b9854b" stroke="#553119" stroke-width="2"/><rect x="421" y="394" width="37" height="31" rx="4" fill="#d3a463" stroke="#553119" stroke-width="2"/><rect x="466" y="394" width="37" height="31" rx="4" fill="#b9854b" stroke="#553119" stroke-width="2"/><rect x="511" y="394" width="37" height="31" rx="4" fill="#d3a463" stroke="#553119" stroke-width="2"/><rect x="556" y="394" width="37" height="31" rx="4" fill="#b9854b" stroke="#553119" stroke-width="2"/><rect x="601" y="394" width="37" height="31" rx="4" fill="#d3a463" stroke="#553119" stroke-width="2"/><rect x="646" y="394" width="37" height="31" rx="4" fill="#b9854b" stroke="#553119" stroke-width="2"/></g>
    <g fill="#3b2314" filter="url(#chipShadow)">
      <rect x="452" y="112" width="16" height="144" rx="5"/>
      <rect x="558" y="221" width="154" height="16" rx="5"/>
      <rect x="315" y="288" width="16" height="128" rx="5"/>
      <rect x="591" y="88" width="16" height="108" rx="5"/>
    </g>
    <g filter="url(#chipShadow)">
      <circle cx="482" cy="406" r="27" fill="#f2eadb" />
      <circle cx="482" cy="371" r="18" fill="#f2eadb" />
      <circle cx="482" cy="145" r="27" fill="#152033" />
      <circle cx="482" cy="110" r="18" fill="#152033" />
    </g>
    <path d="M260 437h440" stroke="#f1d18e" stroke-opacity=".28" stroke-width="10" stroke-linecap="round"/>
  
</svg>
