<svg xmlns="http://www.w3.org/2000/svg" width="960" height="540" viewBox="0 0 960 540" role="img" aria-labelledby="quoridor-title quoridor-desc">
  <title id="quoridor-title">quoridor board game cover</title>
  <desc id="quoridor-desc">A handcrafted tabletop style representative image for the board game.</desc>
  <defs>
    <linearGradient id="table" x1="0" y1="0" x2="1" y2="1">
      <stop offset="0" stop-color="#321f13"/>
      <stop offset=".5" stop-color="#1f130c"/>
      <stop offset="1" stop-color="#0d0805"/>
    </linearGradient>
    <linearGradient id="rail" x1="0" y1="0" x2="0" y2="1">
      <stop offset="0" stop-color="#5b3922"/>
      <stop offset=".52" stop-color="#3d2516"/>
      <stop offset="1" stop-color="#25160d"/>
    </linearGradient>
    <linearGradient id="felt" x1="0" y1="0" x2="1" y2="1">
      <stop offset="0" stop-color="#0c4a37"/>
      <stop offset="1" stop-color="#06291f"/>
    </linearGradient>
    <radialGradient id="glow" cx="50%" cy="44%" r="62%">
      <stop offset="0" stop-color="#c78438" stop-opacity=".28"/>
      <stop offset="1" stop-color="#c78438" stop-opacity="0"/>
    </radialGradient>
    <filter id="shadow" x="-20%" y="-20%" width="140%" height="140%">
      <feDropShadow dx="0" dy="14" stdDeviation="16" flood-color="#000" flood-opacity=".42"/>
    </filter>
    <filter id="softShadow" x="-30%" y="-30%" width="160%" height="160%">
      <feDropShadow dx="0" dy="6" stdDeviation="8" flood-color="#000" flood-opacity=".3"/>
    </filter>
    <pattern id="grain" width="54" height="54" patternUnits="userSpaceOnUse">
      <path d="M0 12c18-9 34 9 54 0M0 31c18 7 33-7 54 0M0 48c20-8 34 8 54 0" fill="none" stroke="#ffe1a0" stroke-opacity=".055" stroke-width="2"/>
    </pattern>
    <pattern id="feltLines" width="42" height="42" patternUnits="userSpaceOnUse" patternTransform="rotate(22)">
      <path d="M0 0h42" stroke="#ffffff" stroke-opacity=".045" stroke-width="2"/>
    </pattern>
  </defs>
  <rect width="960" height="540" rx="36" fill="url(#table)"/>
  <rect width="960" height="540" rx="36" fill="url(#grain)"/>
  <rect x="48" y="42" width="864" height="456" rx="34" fill="url(#rail)" filter="url(#shadow)"/>
  <rect x="75" y="69" width="810" height="402" rx="26" fill="url(#felt)"/>
  <rect x="75" y="69" width="810" height="402" rx="26" fill="url(#feltLines)"/>
  <rect x="75" y="69" width="810" height="402" rx="26" fill="url(#glow)"/>
  <rect x="93" y="87" width="774" height="366" rx="20" fill="none" stroke="rgba(255,232,185,.32)" stroke-width="2"/>
  
    <g filter="url(#softShadow)"><rect x="279" y="88" width="35" height="29" rx="4" fill="#ba8648" stroke="#6b3f20" stroke-width="2"/><rect x="324" y="88" width="35" height="29" rx="4" fill="#d0a15e" stroke="#6b3f20" stroke-width="2"/><rect x="369" y="88" width="35" height="29" rx="4" fill="#ba8648" stroke="#6b3f20" stroke-width="2"/><rect x="414" y="88" width="35" height="29" rx="4" fill="#d0a15e" stroke="#6b3f20" stroke-width="2"/><rect x="459" y="88" width="35" height="29" rx="4" fill="#ba8648" stroke="#6b3f20" stroke-width="2"/><rect x="504" y="88" width="35" height="29" rx="4" fill="#d0a15e" stroke="#6b3f20" stroke-width="2"/><rect x="549" y="88" width="35" height="29" rx="4" fill="#ba8648" stroke="#6b3f20" stroke-width="2"/><rect x="594" y="88" width="35" height="29" rx="4" fill="#d0a15e" stroke="#6b3f20" stroke-width="2"/><rect x="639" y="88" width="35" height="29" rx="4" fill="#ba8648" stroke="#6b3f20" stroke-width="2"/><rect x="279" y="126" width="35" height="29" rx="4" fill="#d0a15e" stroke="#6b3f20" stroke-width="2"/><rect x="324" y="126" width="35" height="29" rx="4" fill="#ba8648" stroke="#6b3f20" stroke-width="2"/><rect x="369" y="126" width="35" height="29" rx="4" fill="#d0a15e" stroke="#6b3f20" stroke-width="2"/><rect x="414" y="126" width="35" height="29" rx="4" fill="#ba8648" stroke="#6b3f20" stroke-width="2"/><rect x="459" y="126" width="35" height="29" rx="4" fill="#d0a15e" stroke="#6b3f20" stroke-width="2"/><rect x="504" y="126" width="35" height="29" rx="4" fill="#ba8648" stroke="#6b3f20" stroke-width="2"/><rect x="549" y="126" width="35" height="29" rx="4" fill="#d0a15e" stroke="#6b3f20" stroke-width="2"/><rect x="594" y="126" width="35" height="29" rx="4" fill="#ba8648" stroke="#6b3f20" stroke-width="2"/><rect x="639" y="126" width="35" height="29" rx="4" fill="#d0a15e" stroke="#6b3f20" stroke-width="2"/><rect x="279" y="164" width="35" height="29" rx="4" fill="#ba8648" stroke="#6b3f20" stroke-width="2"/><rect x="324" y="164" width="35" height="29" rx="4" fill="#d0a15e" stroke="#6b3f20" stroke-width="2"/><rect x="369" y="164" width="35" height="29" rx="4" fill="#ba8648" stroke="#6b3f20" stroke-width="2"/><rect x="414" y="164" width="35" height="29" rx="4" fill="#d0a15e" stroke="#6b3f20" stroke-width="2"/><rect x="459" y="164" width="35" height="29" rx="4" fill="#ba8648" stroke="#6b3f20" stroke-width="2"/><rect x="504" y="164" width="35" height="29" rx="4" fill="#d0a15e" stroke="#6b3f20" stroke-width="2"/><rect x="549" y="164" width="35" height="29" rx="4" fill="#ba8648" stroke="#6b3f20" stroke-width="2"/><rect x="594" y="164" width="35" height="29" rx="4" fill="#d0a15e" stroke="#6b3f20" stroke-width="2"/><rect x="639" y="164" width="35" height="29" rx="4" fill="#ba8648" stroke="#6b3f20" stroke-width="2"/><rect x="279" y="202" width="35" height="29" rx="4" fill="#d0a15e" stroke="#6b3f20" stroke-width="2"/><rect x="324" y="202" width="35" height="29" rx="4" fill="#ba8648" stroke="#6b3f20" stroke-width="2"/><rect x="369" y="202" width="35" height="29" rx="4" fill="#d0a15e" stroke="#6b3f20" stroke-width="2"/><rect x="414" y="202" width="35" height="29" rx="4" fill="#ba8648" stroke="#6b3f20" stroke-width="2"/><rect x="459" y="202" width="35" height="29" rx="4" fill="#d0a15e" stroke="#6b3f20" stroke-width="2"/><rect x="504" y="202" width="35" height="29" rx="4" fill="#ba8648" stroke="#6b3f20" stroke-width="2"/><rect x="549" y="202" width="35" height="29" rx="4" fill="#d0a15e" stroke="#6b3f20" stroke-width="2"/><rect x="594" y="202" width="35" height="29" rx="4" fill="#ba8648" stroke="#6b3f20" stroke-width="2"/><rect x="639" y="202" width="35" height="29" rx="4" fill="#d0a15e" stroke="#6b3f20" stroke-width="2"/><rect x="279" y="240" width="35" height="29" rx="4" fill="#ba8648" stroke="#6b3f20" stroke-width="2"/><rect x="324" y="240" width="35" height="29" rx="4" fill="#d0a15e" stroke="#6b3f20" stroke-width="2"/><rect x="369" y="240" width="35" height="29" rx="4" fill="#ba8648" stroke="#6b3f20" stroke-width="2"/><rect x="414" y="240" width="35" height="29" rx="4" fill="#d0a15e" stroke="#6b3f20" stroke-width="2"/><rect x="459" y="240" width="35" height="29" rx="4" fill="#ba8648" stroke="#6b3f20" stroke-width="2"/><rect x="504" y="240" width="35" height="29" rx="4" fill="#d0a15e" stroke="#6b3f20" stroke-width="2"/><rect x="549" y="240" width="35" height="29" rx="4" fill="#ba8648" stroke="#6b3f20" stroke-width="2"/><rect x="594" y="240" width="35" height="29" rx="4" fill="#d0a15e" stroke="#6b3f20" stroke-width="2"/><rect x="639" y="240" width="35" height="29" rx="4" fill="#ba8648" stroke="#6b3f20" stroke-width="2"/><rect x="279" y="278" width="35" height="29" rx="4" fill="#d0a15e" stroke="#6b3f20" stroke-width="2"/><rect x="324" y="278" width="35" height="29" rx="4" fill="#ba8648" stroke="#6b3f20" stroke-width="2"/><rect x="369" y="278" width="35" height="29" rx="4" fill="#d0a15e" stroke="#6b3f20" stroke-width="2"/><rect x="414" y="278" width="35" height="29" rx="4" fill="#ba8648" stroke="#6b3f20" stroke-width="2"/><rect x="459" y="278" width="35" height="29" rx="4" fill="#d0a15e" stroke="#6b3f20" stroke-width="2"/><rect x="504" y="278" width="35" height="29" rx="4" fill="#ba8648" stroke="#6b3f20" stroke-width="2"/><rect x="549" y="278" width="35" height="29" rx="4" fill="#d0a15e" stroke="#6b3f20" stroke-width="2"/><rect x="594" y="278" width="35" height="29" rx="4" fill="#ba8648" stroke="#6b3f20" stroke-width="2"/><rect x="639" y="278" width="35" height="29" rx="4" fill="#d0a15e" stroke="#6b3f20" stroke-width="2"/><rect x="279" y="316" width="35" height="29" rx="4" fill="#ba8648" stroke="#6b3f20" stroke-width="2"/><rect x="324" y="316" width="35" height="29" rx="4" fill="#d0a15e" stroke="#6b3f20" stroke-width="2"/><rect x="369" y="316" width="35" height="29" rx="4" fill="#ba8648" stroke="#6b3f20" stroke-width="2"/><rect x="414" y="316" width="35" height="29" rx="4" fill="#d0a15e" stroke="#6b3f20" stroke-width="2"/><rect x="459" y="316" width="35" height="29" rx="4" fill="#ba8648" stroke="#6b3f20" stroke-width="2"/><rect x="504" y="316" width="35" height="29" rx="4" fill="#d0a15e" stroke="#6b3f20" stroke-width="2"/><rect x="549" y="316" width="35" height="29" rx="4" fill="#ba8648" stroke="#6b3f20" stroke-width="2"/><rect x="594" y="316" width="35" height="29" rx="4" fill="#d0a15e" stroke="#6b3f20" stroke-width="2"/><rect x="639" y="316" width="35" height="29" rx="4" fill="#ba8648" stroke="#6b3f20" stroke-width="2"/><rect x="279" y="354" width="35" height="29" rx="4" fill="#d0a15e" stroke="#6b3f20" stroke-width="2"/><rect x="324" y="354" width="35" height="29" rx="4" fill="#ba8648" stroke="#6b3f20" stroke-width="2"/><rect x="369" y="354" width="35" height="29" rx="4" fill="#d0a15e" stroke="#6b3f20" stroke-width="2"/><rect x="414" y="354" width="35" height="29" rx="4" fill="#ba8648" stroke="#6b3f20" stroke-width="2"/><rect x="459" y="354" width="35" height="29" rx="4" fill="#d0a15e" stroke="#6b3f20" stroke-width="2"/><rect x="504" y="354" width="35" height="29" rx="4" fill="#ba8648" stroke="#6b3f20" stroke-width="2"/><rect x="549" y="354" width="35" height="29" rx="4" fill="#d0a15e" stroke="#6b3f20" stroke-width="2"/><rect x="594" y="354" width="35" height="29" rx="4" fill="#ba8648" stroke="#6b3f20" stroke-width="2"/><rect x="639" y="354" width="35" height="29" rx="4" fill="#d0a15e" stroke="#6b3f20" stroke-width="2"/><rect x="279" y="392" width="35" height="29" rx="4" fill="#ba8648" stroke="#6b3f20" stroke-width="2"/><rect x="324" y="392" width="35" height="29" rx="4" fill="#d0a15e" stroke="#6b3f20" stroke-width="2"/><rect x="369" y="392" width="35" height="29" rx="4" fill="#ba8648" stroke="#6b3f20" stroke-width="2"/><rect x="414" y="392" width="35" height="29" rx="4" fill="#d0a15e" stroke="#6b3f20" stroke-width="2"/><rect x="459" y="392" width="35" height="29" rx="4" fill="#ba8648" stroke="#6b3f20" stroke-width="2"/><rect x="504" y="392" width="35" height="29" rx="4" fill="#d0a15e" stroke="#6b3f20" stroke-width="2"/><rect x="549" y="392" width="35" height="29" rx="4" fill="#ba8648" stroke="#6b3f20" stroke-width="2"/><rect x="594" y="392" width="35" height="29" rx="4" fill="#d0a15e" stroke="#6b3f20" stroke-width="2"/><rect x="639" y="392" width="35" height="29" rx="4" fill="#ba8648" stroke="#6b3f20" stroke-width="2"/></g>
    <g fill="#372112">
      <rect x="452" y="96" width="14" height="136" rx="5"/>
      <rect x="545" y="220" width="150" height="14" rx="5"/>
      <rect x="318" y="298" width="14" height="116" rx="5"/>
      <rect x="591" y="89" width="14" height="102" rx="5"/>
    </g>
    <g filter="url(#softShadow)">
      <circle cx="482" cy="410" r="25" fill="#f1eadb" />
      <circle cx="482" cy="378" r="17" fill="#f1eadb" />
      <circle cx="480" cy="147" r="25" fill="#1e293b" />
      <circle cx="480" cy="115" r="17" fill="#1e293b" />
    </g>
  
</svg>
