<svg xmlns="http://www.w3.org/2000/svg" width="960" height="540" viewBox="0 0 960 540" role="img" aria-labelledby="yacht-dice-title yacht-dice-desc">
  <title id="yacht-dice-title">yacht-dice board game cover</title>
  <desc id="yacht-dice-desc">A handcrafted tabletop style representative image for the board game.</desc>
  <defs>
    <linearGradient id="table" x1="0" y1="0" x2="1" y2="1">
      <stop offset="0" stop-color="#321f13"/>
      <stop offset=".5" stop-color="#1f130c"/>
      <stop offset="1" stop-color="#0d0805"/>
    </linearGradient>
    <linearGradient id="rail" x1="0" y1="0" x2="0" y2="1">
      <stop offset="0" stop-color="#5b3922"/>
      <stop offset=".52" stop-color="#3d2516"/>
      <stop offset="1" stop-color="#25160d"/>
    </linearGradient>
    <linearGradient id="felt" x1="0" y1="0" x2="1" y2="1">
      <stop offset="0" stop-color="#0c4a37"/>
      <stop offset="1" stop-color="#06291f"/>
    </linearGradient>
    <radialGradient id="glow" cx="50%" cy="44%" r="62%">
      <stop offset="0" stop-color="#21a078" stop-opacity=".28"/>
      <stop offset="1" stop-color="#21a078" stop-opacity="0"/>
    </radialGradient>
    <filter id="shadow" x="-20%" y="-20%" width="140%" height="140%">
      <feDropShadow dx="0" dy="14" stdDeviation="16" flood-color="#000" flood-opacity=".42"/>
    </filter>
    <filter id="softShadow" x="-30%" y="-30%" width="160%" height="160%">
      <feDropShadow dx="0" dy="6" stdDeviation="8" flood-color="#000" flood-opacity=".3"/>
    </filter>
    <pattern id="grain" width="54" height="54" patternUnits="userSpaceOnUse">
      <path d="M0 12c18-9 34 9 54 0M0 31c18 7 33-7 54 0M0 48c20-8 34 8 54 0" fill="none" stroke="#ffe1a0" stroke-opacity=".055" stroke-width="2"/>
    </pattern>
    <pattern id="feltLines" width="42" height="42" patternUnits="userSpaceOnUse" patternTransform="rotate(22)">
      <path d="M0 0h42" stroke="#ffffff" stroke-opacity=".045" stroke-width="2"/>
    </pattern>
  </defs>
  <rect width="960" height="540" rx="36" fill="url(#table)"/>
  <rect width="960" height="540" rx="36" fill="url(#grain)"/>
  <rect x="48" y="42" width="864" height="456" rx="34" fill="url(#rail)" filter="url(#shadow)"/>
  <rect x="75" y="69" width="810" height="402" rx="26" fill="url(#felt)"/>
  <rect x="75" y="69" width="810" height="402" rx="26" fill="url(#feltLines)"/>
  <rect x="75" y="69" width="810" height="402" rx="26" fill="url(#glow)"/>
  <rect x="93" y="87" width="774" height="366" rx="20" fill="none" stroke="rgba(255,232,185,.32)" stroke-width="2"/>
  
    <path d="M206 116c80-30 154-18 220 10 76 32 144 22 221-3 46-14 85 6 102 49 20 49 9 150-30 191-48 51-147 32-222 22-74-10-134 25-205 17-64-8-103-50-103-118 0-73 7-129 17-168z" fill="#0a3f2f" stroke="#d9b06a" stroke-opacity=".44" stroke-width="4" filter="url(#softShadow)"/>
    <g transform="translate(285 164) rotate(-15 37 37)" filter="url(#softShadow)">
    <rect width="74" height="74" rx="16" fill="#f8efdd"/>
    <rect x="5" y="5" width="64" height="64" rx="12" fill="none" stroke="#cdbb9d" stroke-width="2"/>
    <circle cx="22.2" cy="22.2" r="6" fill="#55251f" /><circle cx="51.8" cy="22.2" r="6" fill="#55251f" /><circle cx="37.0" cy="37.0" r="6" fill="#55251f" /><circle cx="22.2" cy="51.8" r="6" fill="#55251f" /><circle cx="51.8" cy="51.8" r="6" fill="#55251f" />
  </g>
    <g transform="translate(410 122) rotate(12 37 37)" filter="url(#softShadow)">
    <rect width="74" height="74" rx="16" fill="#f8efdd"/>
    <rect x="5" y="5" width="64" height="64" rx="12" fill="none" stroke="#cdbb9d" stroke-width="2"/>
    <circle cx="22.2" cy="22.2" r="6" fill="#55251f" /><circle cx="51.8" cy="51.8" r="6" fill="#55251f" />
  </g>
    <g transform="translate(535 180) rotate(-8 37 37)" filter="url(#softShadow)">
    <rect width="74" height="74" rx="16" fill="#f8efdd"/>
    <rect x="5" y="5" width="64" height="64" rx="12" fill="none" stroke="#cdbb9d" stroke-width="2"/>
    <circle cx="22.2" cy="18.5" r="6" fill="#55251f" /><circle cx="51.8" cy="18.5" r="6" fill="#55251f" /><circle cx="22.2" cy="37.0" r="6" fill="#55251f" /><circle cx="51.8" cy="37.0" r="6" fill="#55251f" /><circle cx="22.2" cy="55.5" r="6" fill="#55251f" /><circle cx="51.8" cy="55.5" r="6" fill="#55251f" />
  </g>
    <g transform="translate(376 285) rotate(8 37 37)" filter="url(#softShadow)">
    <rect width="74" height="74" rx="16" fill="#f8efdd"/>
    <rect x="5" y="5" width="64" height="64" rx="12" fill="none" stroke="#cdbb9d" stroke-width="2"/>
    <circle cx="22.2" cy="22.2" r="6" fill="#55251f" /><circle cx="51.8" cy="22.2" r="6" fill="#55251f" /><circle cx="22.2" cy="51.8" r="6" fill="#55251f" /><circle cx="51.8" cy="51.8" r="6" fill="#55251f" />
  </g>
    <g transform="translate(555 304) rotate(-14 37 37)" filter="url(#softShadow)">
    <rect width="74" height="74" rx="16" fill="#f8efdd"/>
    <rect x="5" y="5" width="64" height="64" rx="12" fill="none" stroke="#cdbb9d" stroke-width="2"/>
    <circle cx="37.0" cy="37.0" r="6" fill="#55251f" />
  </g>
    <rect x="210" y="410" width="540" height="24" rx="12" fill="#d7b36d" opacity=".32"/>
  
</svg>
