<svg xmlns="http://www.w3.org/2000/svg" width="960" height="540" viewBox="0 0 960 540" role="img" aria-labelledby="yinsh-title yinsh-desc">
  <title id="yinsh-title">yinsh board game cover</title>
  <desc id="yinsh-desc">A handcrafted tabletop style representative image for the board game.</desc>
  <defs>
    <linearGradient id="table" x1="0" y1="0" x2="1" y2="1">
      <stop offset="0" stop-color="#321f13"/>
      <stop offset=".5" stop-color="#1f130c"/>
      <stop offset="1" stop-color="#0d0805"/>
    </linearGradient>
    <linearGradient id="rail" x1="0" y1="0" x2="0" y2="1">
      <stop offset="0" stop-color="#5b3922"/>
      <stop offset=".52" stop-color="#3d2516"/>
      <stop offset="1" stop-color="#25160d"/>
    </linearGradient>
    <linearGradient id="felt" x1="0" y1="0" x2="1" y2="1">
      <stop offset="0" stop-color="#0c4a37"/>
      <stop offset="1" stop-color="#06291f"/>
    </linearGradient>
    <radialGradient id="glow" cx="50%" cy="44%" r="62%">
      <stop offset="0" stop-color="#56a8c4" stop-opacity=".28"/>
      <stop offset="1" stop-color="#56a8c4" stop-opacity="0"/>
    </radialGradient>
    <filter id="shadow" x="-20%" y="-20%" width="140%" height="140%">
      <feDropShadow dx="0" dy="14" stdDeviation="16" flood-color="#000" flood-opacity=".42"/>
    </filter>
    <filter id="softShadow" x="-30%" y="-30%" width="160%" height="160%">
      <feDropShadow dx="0" dy="6" stdDeviation="8" flood-color="#000" flood-opacity=".3"/>
    </filter>
    <pattern id="grain" width="54" height="54" patternUnits="userSpaceOnUse">
      <path d="M0 12c18-9 34 9 54 0M0 31c18 7 33-7 54 0M0 48c20-8 34 8 54 0" fill="none" stroke="#ffe1a0" stroke-opacity=".055" stroke-width="2"/>
    </pattern>
    <pattern id="feltLines" width="42" height="42" patternUnits="userSpaceOnUse" patternTransform="rotate(22)">
      <path d="M0 0h42" stroke="#ffffff" stroke-opacity=".045" stroke-width="2"/>
    </pattern>
  </defs>
  <rect width="960" height="540" rx="36" fill="url(#table)"/>
  <rect width="960" height="540" rx="36" fill="url(#grain)"/>
  <rect x="48" y="42" width="864" height="456" rx="34" fill="url(#rail)" filter="url(#shadow)"/>
  <rect x="75" y="69" width="810" height="402" rx="26" fill="url(#felt)"/>
  <rect x="75" y="69" width="810" height="402" rx="26" fill="url(#feltLines)"/>
  <rect x="75" y="69" width="810" height="402" rx="26" fill="url(#glow)"/>
  <rect x="93" y="87" width="774" height="366" rx="20" fill="none" stroke="rgba(255,232,185,.32)" stroke-width="2"/>
  
    <g stroke="#d9c5a0" stroke-opacity=".18" stroke-width="2">
      <path d="M260 256h440M320 116l320 280M640 116L320 396"/>
      <path d="M306 186h348M322 326h316"/>
    </g>
    <circle cx="356" cy="116" r="5" fill="#d9c5a0" opacity=".8"/><circle cx="418" cy="116" r="5" fill="#d9c5a0" opacity=".8"/><circle cx="480" cy="116" r="5" fill="#d9c5a0" opacity=".8"/><circle cx="542" cy="116" r="5" fill="#d9c5a0" opacity=".8"/><circle cx="604" cy="116" r="5" fill="#d9c5a0" opacity=".8"/><circle cx="325" cy="151" r="5" fill="#d9c5a0" opacity=".8"/><circle cx="387" cy="151" r="5" fill="#d9c5a0" opacity=".8"/><circle cx="449" cy="151" r="5" fill="#d9c5a0" opacity=".8"/><circle cx="511" cy="151" r="5" fill="#d9c5a0" opacity=".8"/><circle cx="573" cy="151" r="5" fill="#d9c5a0" opacity=".8"/><circle cx="635" cy="151" r="5" fill="#d9c5a0" opacity=".8"/><circle cx="294" cy="186" r="5" fill="#d9c5a0" opacity=".8"/><circle cx="356" cy="186" r="5" fill="#d9c5a0" opacity=".8"/><circle cx="418" cy="186" r="5" fill="#d9c5a0" opacity=".8"/><circle cx="480" cy="186" r="5" fill="#d9c5a0" opacity=".8"/><circle cx="542" cy="186" r="5" fill="#d9c5a0" opacity=".8"/><circle cx="604" cy="186" r="5" fill="#d9c5a0" opacity=".8"/><circle cx="666" cy="186" r="5" fill="#d9c5a0" opacity=".8"/><circle cx="263" cy="221" r="5" fill="#d9c5a0" opacity=".8"/><circle cx="325" cy="221" r="5" fill="#d9c5a0" opacity=".8"/><circle cx="387" cy="221" r="5" fill="#d9c5a0" opacity=".8"/><circle cx="449" cy="221" r="5" fill="#d9c5a0" opacity=".8"/><circle cx="511" cy="221" r="5" fill="#d9c5a0" opacity=".8"/><circle cx="573" cy="221" r="5" fill="#d9c5a0" opacity=".8"/><circle cx="635" cy="221" r="5" fill="#d9c5a0" opacity=".8"/><circle cx="697" cy="221" r="5" fill="#d9c5a0" opacity=".8"/><circle cx="232" cy="256" r="5" fill="#d9c5a0" opacity=".8"/><circle cx="294" cy="256" r="5" fill="#d9c5a0" opacity=".8"/><circle cx="356" cy="256" r="5" fill="#d9c5a0" opacity=".8"/><circle cx="418" cy="256" r="5" fill="#d9c5a0" opacity=".8"/><circle cx="480" cy="256" r="5" fill="#d9c5a0" opacity=".8"/><circle cx="542" cy="256" r="5" fill="#d9c5a0" opacity=".8"/><circle cx="604" cy="256" r="5" fill="#d9c5a0" opacity=".8"/><circle cx="666" cy="256" r="5" fill="#d9c5a0" opacity=".8"/><circle cx="728" cy="256" r="5" fill="#d9c5a0" opacity=".8"/><circle cx="263" cy="291" r="5" fill="#d9c5a0" opacity=".8"/><circle cx="325" cy="291" r="5" fill="#d9c5a0" opacity=".8"/><circle cx="387" cy="291" r="5" fill="#d9c5a0" opacity=".8"/><circle cx="449" cy="291" r="5" fill="#d9c5a0" opacity=".8"/><circle cx="511" cy="291" r="5" fill="#d9c5a0" opacity=".8"/><circle cx="573" cy="291" r="5" fill="#d9c5a0" opacity=".8"/><circle cx="635" cy="291" r="5" fill="#d9c5a0" opacity=".8"/><circle cx="697" cy="291" r="5" fill="#d9c5a0" opacity=".8"/><circle cx="294" cy="326" r="5" fill="#d9c5a0" opacity=".8"/><circle cx="356" cy="326" r="5" fill="#d9c5a0" opacity=".8"/><circle cx="418" cy="326" r="5" fill="#d9c5a0" opacity=".8"/><circle cx="480" cy="326" r="5" fill="#d9c5a0" opacity=".8"/><circle cx="542" cy="326" r="5" fill="#d9c5a0" opacity=".8"/><circle cx="604" cy="326" r="5" fill="#d9c5a0" opacity=".8"/><circle cx="666" cy="326" r="5" fill="#d9c5a0" opacity=".8"/><circle cx="325" cy="361" r="5" fill="#d9c5a0" opacity=".8"/><circle cx="387" cy="361" r="5" fill="#d9c5a0" opacity=".8"/><circle cx="449" cy="361" r="5" fill="#d9c5a0" opacity=".8"/><circle cx="511" cy="361" r="5" fill="#d9c5a0" opacity=".8"/><circle cx="573" cy="361" r="5" fill="#d9c5a0" opacity=".8"/><circle cx="635" cy="361" r="5" fill="#d9c5a0" opacity=".8"/><circle cx="356" cy="396" r="5" fill="#d9c5a0" opacity=".8"/><circle cx="418" cy="396" r="5" fill="#d9c5a0" opacity=".8"/><circle cx="480" cy="396" r="5" fill="#d9c5a0" opacity=".8"/><circle cx="542" cy="396" r="5" fill="#d9c5a0" opacity=".8"/><circle cx="604" cy="396" r="5" fill="#d9c5a0" opacity=".8"/>
    <g filter="url(#softShadow)"><circle cx="360" cy="186" r="32" fill="none" stroke="#f0eadb" stroke-width="12"/><circle cx="404" cy="204" r="16" fill="#151515"/></g><g filter="url(#softShadow)"><circle cx="482" cy="256" r="32" fill="none" stroke="#151515" stroke-width="12"/><circle cx="526" cy="274" r="16" fill="#f0eadb"/></g><g filter="url(#softShadow)"><circle cx="602" cy="291" r="32" fill="none" stroke="#f0eadb" stroke-width="12"/><circle cx="646" cy="309" r="16" fill="#151515"/></g><g filter="url(#softShadow)"><circle cx="420" cy="326" r="32" fill="none" stroke="#151515" stroke-width="12"/><circle cx="464" cy="344" r="16" fill="#f0eadb"/></g><g filter="url(#softShadow)"><circle cx="540" cy="151" r="32" fill="none" stroke="#f0eadb" stroke-width="12"/><circle cx="584" cy="169" r="16" fill="#151515"/></g>
  
</svg>
