<svg xmlns="http://www.w3.org/2000/svg" width="960" height="540" viewBox="0 0 960 540" role="img" aria-labelledby="yinsh-title yinsh-desc">
  <title id="yinsh-title">yinsh tabletop cover</title>
  <desc id="yinsh-desc">A custom tabletop representative image focused on the physical board-game components.</desc>
  <defs>
    <linearGradient id="table" x1="0" y1="0" x2="1" y2="1">
      <stop offset="0" stop-color="#4e2f1c"/>
      <stop offset=".38" stop-color="#24140c"/>
      <stop offset="1" stop-color="#100906"/>
    </linearGradient>
    <linearGradient id="rail" x1="0" y1="0" x2="0" y2="1">
      <stop offset="0" stop-color="#795031"/>
      <stop offset=".5" stop-color="#4e2f1c"/>
      <stop offset="1" stop-color="#24140c"/>
    </linearGradient>
    <linearGradient id="felt" x1="0" y1="0" x2="1" y2="1">
      <stop offset="0" stop-color="#133b48"/>
      <stop offset="1" stop-color="#0b222c"/>
    </linearGradient>
    <radialGradient id="spot" cx="50%" cy="42%" r="70%">
      <stop offset="0" stop-color="#56a8c4" stop-opacity=".32"/>
      <stop offset=".64" stop-color="#56a8c4" stop-opacity=".08"/>
      <stop offset="1" stop-color="#56a8c4" stop-opacity="0"/>
    </radialGradient>
    <filter id="shadow" x="-30%" y="-30%" width="160%" height="160%">
      <feDropShadow dx="0" dy="14" stdDeviation="18" flood-color="#000" flood-opacity=".42"/>
    </filter>
    <filter id="chipShadow" x="-35%" y="-35%" width="170%" height="170%">
      <feDropShadow dx="0" dy="7" stdDeviation="7" flood-color="#000" flood-opacity=".32"/>
    </filter>
    <pattern id="woodgrain" width="90" height="46" patternUnits="userSpaceOnUse">
      <path d="M0 9c22-10 47 10 90 0M0 25c30 12 59-12 90 0M0 41c24-8 52 9 90 0" fill="none" stroke="#ffe2aa" stroke-opacity=".055" stroke-width="2"/>
    </pattern>
    <pattern id="feltthread" width="38" height="38" patternUnits="userSpaceOnUse" patternTransform="rotate(25)">
      <path d="M0 0h38" stroke="#fff" stroke-opacity=".045" stroke-width="2"/>
    </pattern>
  </defs>
  <rect width="960" height="540" rx="34" fill="url(#table)"/>
  <rect width="960" height="540" rx="34" fill="url(#woodgrain)"/>
  <rect x="42" y="34" width="876" height="472" rx="38" fill="url(#rail)" filter="url(#shadow)"/>
  <rect x="70" y="62" width="820" height="416" rx="28" fill="url(#felt)"/>
  <rect x="70" y="62" width="820" height="416" rx="28" fill="url(#feltthread)"/>
  <rect x="70" y="62" width="820" height="416" rx="28" fill="url(#spot)"/>
  <rect x="91" y="83" width="778" height="374" rx="20" fill="none" stroke="#ead0a0" stroke-opacity=".28" stroke-width="2"/>
  
    <g stroke="#d9c5a0" stroke-opacity=".18" stroke-width="2">
      <path d="M260 256h440M320 116l320 280M640 116L320 396"/>
      <path d="M306 186h348M322 326h316"/>
    </g>
    <circle cx="356" cy="116" r="5" fill="#d9c5a0" opacity=".82"/><circle cx="418" cy="116" r="5" fill="#d9c5a0" opacity=".82"/><circle cx="480" cy="116" r="5" fill="#d9c5a0" opacity=".82"/><circle cx="542" cy="116" r="5" fill="#d9c5a0" opacity=".82"/><circle cx="604" cy="116" r="5" fill="#d9c5a0" opacity=".82"/><circle cx="325" cy="151" r="5" fill="#d9c5a0" opacity=".82"/><circle cx="387" cy="151" r="5" fill="#d9c5a0" opacity=".82"/><circle cx="449" cy="151" r="5" fill="#d9c5a0" opacity=".82"/><circle cx="511" cy="151" r="5" fill="#d9c5a0" opacity=".82"/><circle cx="573" cy="151" r="5" fill="#d9c5a0" opacity=".82"/><circle cx="635" cy="151" r="5" fill="#d9c5a0" opacity=".82"/><circle cx="294" cy="186" r="5" fill="#d9c5a0" opacity=".82"/><circle cx="356" cy="186" r="5" fill="#d9c5a0" opacity=".82"/><circle cx="418" cy="186" r="5" fill="#d9c5a0" opacity=".82"/><circle cx="480" cy="186" r="5" fill="#d9c5a0" opacity=".82"/><circle cx="542" cy="186" r="5" fill="#d9c5a0" opacity=".82"/><circle cx="604" cy="186" r="5" fill="#d9c5a0" opacity=".82"/><circle cx="666" cy="186" r="5" fill="#d9c5a0" opacity=".82"/><circle cx="263" cy="221" r="5" fill="#d9c5a0" opacity=".82"/><circle cx="325" cy="221" r="5" fill="#d9c5a0" opacity=".82"/><circle cx="387" cy="221" r="5" fill="#d9c5a0" opacity=".82"/><circle cx="449" cy="221" r="5" fill="#d9c5a0" opacity=".82"/><circle cx="511" cy="221" r="5" fill="#d9c5a0" opacity=".82"/><circle cx="573" cy="221" r="5" fill="#d9c5a0" opacity=".82"/><circle cx="635" cy="221" r="5" fill="#d9c5a0" opacity=".82"/><circle cx="697" cy="221" r="5" fill="#d9c5a0" opacity=".82"/><circle cx="232" cy="256" r="5" fill="#d9c5a0" opacity=".82"/><circle cx="294" cy="256" r="5" fill="#d9c5a0" opacity=".82"/><circle cx="356" cy="256" r="5" fill="#d9c5a0" opacity=".82"/><circle cx="418" cy="256" r="5" fill="#d9c5a0" opacity=".82"/><circle cx="480" cy="256" r="5" fill="#d9c5a0" opacity=".82"/><circle cx="542" cy="256" r="5" fill="#d9c5a0" opacity=".82"/><circle cx="604" cy="256" r="5" fill="#d9c5a0" opacity=".82"/><circle cx="666" cy="256" r="5" fill="#d9c5a0" opacity=".82"/><circle cx="728" cy="256" r="5" fill="#d9c5a0" opacity=".82"/><circle cx="263" cy="291" r="5" fill="#d9c5a0" opacity=".82"/><circle cx="325" cy="291" r="5" fill="#d9c5a0" opacity=".82"/><circle cx="387" cy="291" r="5" fill="#d9c5a0" opacity=".82"/><circle cx="449" cy="291" r="5" fill="#d9c5a0" opacity=".82"/><circle cx="511" cy="291" r="5" fill="#d9c5a0" opacity=".82"/><circle cx="573" cy="291" r="5" fill="#d9c5a0" opacity=".82"/><circle cx="635" cy="291" r="5" fill="#d9c5a0" opacity=".82"/><circle cx="697" cy="291" r="5" fill="#d9c5a0" opacity=".82"/><circle cx="294" cy="326" r="5" fill="#d9c5a0" opacity=".82"/><circle cx="356" cy="326" r="5" fill="#d9c5a0" opacity=".82"/><circle cx="418" cy="326" r="5" fill="#d9c5a0" opacity=".82"/><circle cx="480" cy="326" r="5" fill="#d9c5a0" opacity=".82"/><circle cx="542" cy="326" r="5" fill="#d9c5a0" opacity=".82"/><circle cx="604" cy="326" r="5" fill="#d9c5a0" opacity=".82"/><circle cx="666" cy="326" r="5" fill="#d9c5a0" opacity=".82"/><circle cx="325" cy="361" r="5" fill="#d9c5a0" opacity=".82"/><circle cx="387" cy="361" r="5" fill="#d9c5a0" opacity=".82"/><circle cx="449" cy="361" r="5" fill="#d9c5a0" opacity=".82"/><circle cx="511" cy="361" r="5" fill="#d9c5a0" opacity=".82"/><circle cx="573" cy="361" r="5" fill="#d9c5a0" opacity=".82"/><circle cx="635" cy="361" r="5" fill="#d9c5a0" opacity=".82"/><circle cx="356" cy="396" r="5" fill="#d9c5a0" opacity=".82"/><circle cx="418" cy="396" r="5" fill="#d9c5a0" opacity=".82"/><circle cx="480" cy="396" r="5" fill="#d9c5a0" opacity=".82"/><circle cx="542" cy="396" r="5" fill="#d9c5a0" opacity=".82"/><circle cx="604" cy="396" r="5" fill="#d9c5a0" opacity=".82"/>
    <g filter="url(#chipShadow)"><circle cx="360" cy="186" r="35" fill="none" stroke="#f0eadb" stroke-width="13"/><circle cx="404" cy="204" r="17" fill="#151515"/></g><g filter="url(#chipShadow)"><circle cx="482" cy="256" r="35" fill="none" stroke="#151515" stroke-width="13"/><circle cx="526" cy="274" r="17" fill="#f0eadb"/></g><g filter="url(#chipShadow)"><circle cx="602" cy="291" r="35" fill="none" stroke="#f0eadb" stroke-width="13"/><circle cx="646" cy="309" r="17" fill="#151515"/></g><g filter="url(#chipShadow)"><circle cx="420" cy="326" r="35" fill="none" stroke="#151515" stroke-width="13"/><circle cx="464" cy="344" r="17" fill="#f0eadb"/></g><g filter="url(#chipShadow)"><circle cx="540" cy="151" r="35" fill="none" stroke="#f0eadb" stroke-width="13"/><circle cx="584" cy="169" r="17" fill="#151515"/></g>
  
</svg>
