<svg xmlns="http://www.w3.org/2000/svg" width="1440" height="320" viewBox="0 0 1440 320" role="img" aria-label="dark walnut board game table rail">
  <defs>
    <linearGradient id="walnutBase" x1="0" y1="0" x2="0" y2="1">
      <stop offset="0" stop-color="#4a2e1b"/>
      <stop offset="0.2" stop-color="#342114"/>
      <stop offset="0.58" stop-color="#24160e"/>
      <stop offset="1" stop-color="#120c08"/>
    </linearGradient>
    <linearGradient id="bevel" x1="0" y1="0" x2="0" y2="1">
      <stop offset="0" stop-color="#f4c779" stop-opacity="0.16"/>
      <stop offset="0.12" stop-color="#f4c779" stop-opacity="0.045"/>
      <stop offset="0.74" stop-color="#050302" stop-opacity="0"/>
      <stop offset="1" stop-color="#050302" stop-opacity="0.34"/>
    </linearGradient>
    <filter id="fineGrain" x="-8%" y="-20%" width="116%" height="140%">
      <feTurbulence type="fractalNoise" baseFrequency="0.012 0.19" numOctaves="5" seed="73" result="noise"/>
      <feColorMatrix in="noise" type="matrix" values="0.36 0 0 0 0.075  0 0.22 0 0 0.038  0 0 0.12 0 0.018  0 0 0 0.26 0" result="grainColor"/>
      <feBlend mode="screen" in="SourceGraphic" in2="grainColor"/>
    </filter>
    <filter id="softKnot" x="-20%" y="-20%" width="140%" height="140%">
      <feGaussianBlur stdDeviation="10"/>
    </filter>
    <linearGradient id="longHighlight" x1="0" y1="0" x2="1" y2="0">
      <stop offset="0" stop-color="#f1c06d" stop-opacity="0"/>
      <stop offset="0.18" stop-color="#f1c06d" stop-opacity="0.045"/>
      <stop offset="0.42" stop-color="#f1c06d" stop-opacity="0.01"/>
      <stop offset="0.64" stop-color="#f1c06d" stop-opacity="0.04"/>
      <stop offset="1" stop-color="#f1c06d" stop-opacity="0"/>
    </linearGradient>
  </defs>
  <rect width="1440" height="320" fill="url(#walnutBase)"/>
  <rect width="1440" height="320" filter="url(#fineGrain)" opacity="0.9"/>
  <g fill="none" stroke-linecap="round">
    <path d="M-60 50C95 39 162 47 306 41s247-25 372-16 208 30 356 20 246-31 476-13" stroke="#8b5c34" stroke-opacity="0.12" stroke-width="2"/>
    <path d="M-80 76c210 2 303-24 475-12s272 29 438 8 348-30 688-3" stroke="#d49d5c" stroke-opacity="0.075" stroke-width="1.5"/>
    <path d="M-50 113c170-13 285-2 398-11s206-21 366-3 230 17 394-1 250-11 403 10" stroke="#9e6a3b" stroke-opacity="0.11" stroke-width="2"/>
    <path d="M-70 158c195 10 342-16 487-7s236 21 410 4 315-34 694-4" stroke="#d7a666" stroke-opacity="0.06" stroke-width="1.3"/>
    <path d="M-44 207c182-18 310 8 456-8s240-23 405-1 296 16 410-4 199-3 283 6" stroke="#7b4d2b" stroke-opacity="0.16" stroke-width="2"/>
    <path d="M-60 253c192-5 318-20 476-10s244 22 419 6 327-23 681 2" stroke="#c58b4d" stroke-opacity="0.075" stroke-width="1.5"/>
  </g>
  <g opacity="0.36" filter="url(#softKnot)">
    <ellipse cx="248" cy="176" rx="54" ry="18" fill="#0d0704"/>
    <ellipse cx="910" cy="86" rx="72" ry="16" fill="#0b0603"/>
    <ellipse cx="1188" cy="226" rx="66" ry="20" fill="#0b0603"/>
  </g>
  <g fill="none" stroke="#f1c06d" stroke-opacity="0.035" stroke-width="1">
    <path d="M18 18h1404"/>
    <path d="M18 302h1404"/>
    <path d="M0 126h1440"/>
    <path d="M0 236h1440"/>
  </g>
  <rect width="1440" height="320" fill="url(#longHighlight)"/>
  <rect width="1440" height="1" fill="#f3cf86" opacity="0.18"/>
  <rect y="319" width="1440" height="1" fill="#000000" opacity="0.52"/>
</svg>
