<svg xmlns="http://www.w3.org/2000/svg" width="960" height="180" viewBox="0 0 960 180" role="img" aria-label="dark walnut wood texture">
  <defs>
    <linearGradient id="base" x1="0" y1="0" x2="0" y2="1">
      <stop offset="0" stop-color="#3a2416"/>
      <stop offset="0.48" stop-color="#24160e"/>
      <stop offset="1" stop-color="#17100b"/>
    </linearGradient>
    <filter id="grain" x="-10%" y="-30%" width="120%" height="160%">
      <feTurbulence type="fractalNoise" baseFrequency="0.018 0.22" numOctaves="4" seed="19"/>
      <feColorMatrix type="matrix" values="0.38 0 0 0 0.12  0 0.26 0 0 0.07  0 0 0.14 0 0.035  0 0 0 0.34 0"/>
      <feBlend mode="screen" in2="SourceGraphic"/>
    </filter>
    <linearGradient id="shine" x1="0" y1="0" x2="1" y2="0">
      <stop offset="0" stop-color="#f5d187" stop-opacity="0"/>
      <stop offset="0.22" stop-color="#f5d187" stop-opacity="0.08"/>
      <stop offset="0.5" stop-color="#f5d187" stop-opacity="0.02"/>
      <stop offset="0.78" stop-color="#f5d187" stop-opacity="0.07"/>
      <stop offset="1" stop-color="#f5d187" stop-opacity="0"/>
    </linearGradient>
  </defs>
  <rect width="960" height="180" fill="url(#base)"/>
  <g filter="url(#grain)" opacity="0.92">
    <path d="M-30 35C94 10 150 60 250 33s161-20 282 3 188 21 272-2 128-12 187 5" fill="none" stroke="#8a5a31" stroke-opacity="0.28" stroke-width="9"/>
    <path d="M-20 82c126-34 187 22 298-3s176-28 293 4 186 16 277-6 126-7 161 8" fill="none" stroke="#ad7340" stroke-opacity="0.2" stroke-width="6"/>
    <path d="M-18 124c120-16 209 22 324 0s189-12 289 2 196 15 286-3 129-15 157 1" fill="none" stroke="#d2a05d" stroke-opacity="0.13" stroke-width="5"/>
  </g>
  <rect width="960" height="180" fill="url(#shine)"/>
  <rect x="0" y="0" width="960" height="1" fill="#f0c77b" opacity="0.2"/>
  <rect x="0" y="179" width="960" height="1" fill="#000" opacity="0.42"/>
</svg>
